<?xml version="1.0" encoding="utf-8"?>
<!-- Generator: Adobe Illustrator 16.0.4, SVG Export Plug-In . SVG Version: 6.00 Build 0)  -->
<!DOCTYPE svg PUBLIC "-//W3C//DTD SVG 1.1//EN" "http://www.w3.org/Graphics/SVG/1.1/DTD/svg11.dtd">
<svg version="1.1" id="US_UK_Download_on_the" xmlns="http://www.w3.org/2000/svg" xmlns:xlink="http://www.w3.org/1999/xlink"
	 x="0px" y="0px" width="135px" height="40px" viewBox="0 0 135 40" enable-background="new 0 0 135 40" xml:space="preserve">
<path fill="#A6A6A6" d="M130.197,40H4.729C2.122,40,0,37.872,0,35.268V4.726C0,2.12,2.122,0,4.729,0h125.468
	C132.803,0,135,2.12,135,4.726v30.542C135,37.872,132.803,40,130.197,40L130.197,40z"/>
<path d="M134.032,35.268c0,2.116-1.714,3.83-3.834,3.83H4.729c-2.119,0-3.839-1.714-3.839-3.83V4.725
	c0-2.115,1.72-3.835,3.839-3.835h125.468c2.121,0,3.834,1.72,3.834,3.835L134.032,35.268L134.032,35.268z"/>
<g>
	<g id="PLAY">
		<defs>
			<path id="SVGID_1_" d="M22.647,21.823L17.93,19.1c0,0-8.592-4.961-9.098-5.253c-0.505-0.292-1.008-0.116-1.008,0.494
				c0,1.016,0,10.595,0,10.595s0,10.352,0,10.809c0,0.455,0.36,0.653,0.798,0.4c0.439-0.253,9.308-5.376,9.308-5.376l4.717-2.722
				c0,0,4.002-2.311,4.534-2.616c0.533-0.309,0.48-0.73,0.031-0.972C26.764,24.217,22.647,21.823,22.647,21.823z"/>
		</defs>
		<clipPath id="SVGID_2_">
			<use xlink:href="#SVGID_1_"  overflow="visible"/>
		</clipPath>
		<linearGradient id="SVGID_3_" gradientUnits="userSpaceOnUse" x1="13.6665" y1="13.3491" x2="13.6665" y2="36.521">
			<stop  offset="0" style="stop-color:#207CB0"/>
			<stop  offset="0.3757" style="stop-color:#3CB2BF"/>
			<stop  offset="0.7961" style="stop-color:#58E9CE"/>
			<stop  offset="1" style="stop-color:#63FFD4"/>
		</linearGradient>
		<polygon clip-path="url(#SVGID_2_)" fill="url(#SVGID_3_)" points="7.825,13.349 7.825,24.936 7.825,36.521 19.508,24.936 		"/>
		<linearGradient id="SVGID_4_" gradientUnits="userSpaceOnUse" x1="7.8247" y1="19.1006" x2="22.647" y2="19.1006">
			<stop  offset="0" style="stop-color:#4BC3AE"/>
			<stop  offset="1" style="stop-color:#DEE999"/>
		</linearGradient>
		<polygon clip-path="url(#SVGID_2_)" fill="url(#SVGID_4_)" points="22.647,21.823 17.93,19.1 7.825,13.265 7.825,13.349 
			19.508,24.936 		"/>
		<linearGradient id="SVGID_5_" gradientUnits="userSpaceOnUse" x1="15.2358" y1="24.9355" x2="15.2358" y2="36.6055">
			<stop  offset="0" style="stop-color:#EC403D"/>
			<stop  offset="0.384" style="stop-color:#C93B75"/>
			<stop  offset="0.7988" style="stop-color:#A636AC"/>
			<stop  offset="1" style="stop-color:#9934C2"/>
		</linearGradient>
		<polygon clip-path="url(#SVGID_2_)" fill="url(#SVGID_5_)" points="7.825,36.521 7.825,36.605 17.93,30.769 22.647,28.047 
			19.508,24.936 		"/>
		<linearGradient id="SVGID_6_" gradientUnits="userSpaceOnUse" x1="23.772" y1="21.8232" x2="23.772" y2="28.0469">
			<stop  offset="0" style="stop-color:#FF8877"/>
			<stop  offset="0.6121" style="stop-color:#FFB175"/>
			<stop  offset="1" style="stop-color:#FFC774"/>
		</linearGradient>
		<polygon clip-path="url(#SVGID_2_)" fill="url(#SVGID_6_)" points="22.647,21.823 19.508,24.936 22.647,28.047 28.037,24.936 		
			"/>
	</g>
	<g>
		<path fill="#FFFFFF" d="M74.912,21.424c0.439,0.362,1.355,1.127,1.355,2.581c0,1.414-0.802,2.083-1.605,2.714
			c-0.248,0.249-0.535,0.517-0.535,0.938c0,0.419,0.287,0.65,0.497,0.822l0.689,0.534c0.841,0.707,1.604,1.357,1.604,2.677
			c0,1.796-1.74,3.611-5.025,3.611c-2.771,0-4.11-1.318-4.11-2.733c0-0.688,0.345-1.662,1.475-2.332
			c1.183-0.728,2.789-0.821,3.648-0.88c-0.268-0.343-0.572-0.706-0.572-1.298c0-0.325,0.096-0.517,0.189-0.747
			c-0.212,0.021-0.419,0.04-0.613,0.04c-2.023,0-3.171-1.512-3.171-3.001c0-0.88,0.401-1.857,1.224-2.563
			c1.09-0.897,2.389-1.05,3.422-1.05h3.937l-1.223,0.688H74.912z M73.556,29.911c-0.154-0.02-0.251-0.02-0.44-0.02
			c-0.172,0-1.207,0.038-2.007,0.308c-0.421,0.15-1.646,0.609-1.646,1.967c0,1.356,1.319,2.334,3.366,2.334
			c1.833,0,2.81-0.881,2.81-2.066C75.639,31.459,75.007,30.943,73.556,29.911z M74.108,26.278c0.439-0.439,0.476-1.05,0.476-1.395
			c0-1.376-0.819-3.518-2.405-3.518c-0.499,0-1.032,0.249-1.338,0.632c-0.325,0.399-0.421,0.915-0.421,1.414
			c0,1.279,0.747,3.402,2.39,3.402C73.287,26.814,73.802,26.584,74.108,26.278z"/>
		<path fill="#FFFFFF" d="M62.879,29.605c-3.035,0-4.657-2.368-4.657-4.505c0-2.5,2.042-4.636,4.943-4.636
			c2.805,0,4.561,2.193,4.561,4.503C67.726,27.221,65.989,29.605,62.879,29.605z M65.263,28.061c0.46-0.611,0.574-1.376,0.574-2.121
			c0-1.678-0.802-4.884-3.168-4.884c-0.629,0-1.259,0.249-1.717,0.649c-0.744,0.666-0.878,1.507-0.878,2.329
			c0,1.889,0.935,4.997,3.244,4.997C64.062,29.031,64.825,28.669,65.263,28.061z"/>
		<path fill="#FFFFFF" d="M52.535,29.605c-3.034,0-4.657-2.368-4.657-4.505c0-2.5,2.044-4.636,4.944-4.636
			c2.806,0,4.561,2.193,4.561,4.503C57.382,27.221,55.646,29.605,52.535,29.605z M54.92,28.061c0.458-0.611,0.573-1.376,0.573-2.121
			c0-1.678-0.802-4.884-3.167-4.884c-0.63,0-1.26,0.249-1.718,0.649c-0.744,0.666-0.877,1.507-0.877,2.329
			c0,1.889,0.934,4.997,3.244,4.997C53.718,29.031,54.481,28.669,54.92,28.061z"/>
		<path fill="#FFFFFF" d="M46.421,29.307l-2.745,0.633c-1.113,0.173-2.109,0.325-3.166,0.325c-5.294,0-7.309-3.895-7.309-6.945
			c0-3.721,2.858-7.175,7.751-7.175c1.037,0,2.034,0.154,2.936,0.403c1.439,0.402,2.109,0.901,2.533,1.189l-1.594,1.516
			l-0.671,0.152l0.479-0.767c-0.653-0.633-1.843-1.802-4.106-1.802c-3.03,0-5.313,2.302-5.313,5.659
			c0,3.606,2.609,7.003,6.792,7.003c1.228,0,1.86-0.25,2.437-0.48V25.93l-2.897,0.153l1.535-0.825h4.066l-0.499,0.479
			c-0.135,0.116-0.153,0.155-0.192,0.307c-0.02,0.174-0.037,0.729-0.037,0.922V29.307z"/>
		<path fill="#FFFFFF" d="M80.977,28.754c-0.634-0.059-0.767-0.172-0.767-0.921v-0.211V16.974c0.003-0.042,0.007-0.083,0.011-0.123
			c0.076-0.671,0.268-0.787,0.864-1.132H78.34l-1.438,0.691h1.466v0.007l-0.002-0.005v11.211v0.632c0,0.385-0.075,0.441-0.516,1.018
			h3.396l0.709-0.421C81.629,28.812,81.302,28.791,80.977,28.754z"/>
		<path fill="#FFFFFF" d="M88.783,28.931c-0.21,0.114-0.419,0.248-0.627,0.343c-0.63,0.285-1.278,0.362-1.851,0.362
			c-0.609,0-1.562-0.038-2.534-0.743c-1.353-0.953-1.943-2.593-1.943-4.021c0-2.954,2.401-4.401,4.365-4.401
			c0.685,0,1.391,0.17,1.963,0.534c0.949,0.627,1.198,1.445,1.331,1.884L85.011,24.7l-1.469,0.116
			c0.477,2.419,2.115,3.828,3.926,3.828c0.972,0,1.678-0.344,2.326-0.668L88.783,28.931z M86.993,23.25
			c0.36-0.133,0.551-0.247,0.551-0.513c0-0.762-0.856-1.639-1.887-1.639c-0.763,0-2.188,0.591-2.188,2.649
			c0,0.323,0.035,0.667,0.057,1.01L86.993,23.25z"/>
		<g>
			<path fill="#FFFFFF" d="M90.622,20.601v1.259H90.47v-1.259h-0.417v-0.129h0.985v0.129H90.622z"/>
			<path fill="#FFFFFF" d="M92.335,21.859v-1.271H92.33l-0.389,1.271h-0.119l-0.392-1.271h-0.004v1.271h-0.138v-1.388h0.237
				l0.353,1.121h0.006l0.348-1.121h0.24v1.388H92.335z"/>
		</g>
	</g>
	<g>
		<path fill="#FFFFFF" d="M99.613,29.657c-1.769,0-2.914-1.006-3.643-2.116v4.684h-0.85V20.602h0.85v1.978
			c0.764-1.162,1.891-2.186,3.643-2.186c2.135,0,4.304,1.717,4.304,4.597v0.036C103.917,27.905,101.748,29.657,99.613,29.657z
			 M102.997,25.026c0-2.326-1.613-3.818-3.47-3.818c-1.84,0-3.608,1.544-3.608,3.801v0.034c0,2.273,1.769,3.8,3.608,3.8
			c1.926,0,3.47-1.406,3.47-3.782V25.026z"/>
		<path fill="#FFFFFF" d="M105.994,29.449V16.785h0.85v12.665H105.994z"/>
		<path fill="#FFFFFF" d="M115.568,29.449v-1.475c-0.606,0.85-1.699,1.683-3.382,1.683c-1.648,0-3.419-0.937-3.419-2.775v-0.034
			c0-1.839,1.579-2.881,3.869-2.881c1.232,0,2.082,0.157,2.932,0.382v-0.382c0-1.787-1.092-2.706-2.914-2.706
			c-1.076,0-1.959,0.295-2.776,0.712l-0.312-0.747c0.972-0.451,1.926-0.763,3.14-0.763c2.273,0,3.695,1.18,3.695,3.47v5.517H115.568
			z M115.587,25.13c-0.746-0.19-1.736-0.399-3.002-0.399c-1.874,0-2.914,0.832-2.914,2.064v0.035c0,1.283,1.214,2.029,2.566,2.029
			c1.805,0,3.35-1.11,3.35-2.723V25.13z"/>
		<path fill="#FFFFFF" d="M122.436,29.761c-0.782,1.857-1.684,2.517-2.949,2.517c-0.678,0-1.163-0.122-1.753-0.381l0.296-0.746
			c0.468,0.225,0.849,0.328,1.508,0.328c0.92,0,1.527-0.537,2.186-2.082l-4.25-8.795h0.989l3.678,7.911l3.193-7.911h0.937
			L122.436,29.761z"/>
	</g>
</g>
<g>
	<path fill="#FFFFFF" d="M36.369,11.449c-1.751,0-2.902-1.248-2.902-2.887c0-1.575,1.199-2.902,2.887-2.902
		c0.975,0,1.575,0.272,2.15,0.76L37.88,7.163c-0.432-0.368-0.855-0.6-1.567-0.6c-1.032,0-1.815,0.896-1.815,1.983
		c0,1.16,0.76,2.007,1.903,2.007c0.527,0,1.007-0.168,1.351-0.424V9.082h-1.431V8.226h2.383v2.351
		C38.152,11.049,37.36,11.449,36.369,11.449z"/>
	<path fill="#FFFFFF" d="M44.136,6.635H40.97V8.09h2.806V8.97H40.97v1.503h3.206v0.879h-4.189V5.755h4.149V6.635z"/>
	<path fill="#FFFFFF" d="M47.713,11.353h-0.992V6.667h-1.775V5.755h4.542v0.912h-1.775V11.353z"/>
	<path fill="#FFFFFF" d="M53.969,5.755v5.597h-0.983V5.755H53.969z"/>
	<path fill="#FFFFFF" d="M57.833,11.353h-0.992V6.667h-1.775V5.755h4.542v0.912h-1.775V11.353z"/>
	<path fill="#FFFFFF" d="M65.721,11.449c-1.72,0-2.919-1.304-2.919-2.887s1.216-2.902,2.935-2.902s2.917,1.303,2.917,2.886
		C68.654,10.129,67.44,11.449,65.721,11.449z M65.721,6.563c-1.112,0-1.888,0.888-1.888,1.983c0,1.096,0.792,1.999,1.903,1.999
		s1.887-0.887,1.887-1.983C67.624,7.467,66.833,6.563,65.721,6.563z"/>
	<path fill="#FFFFFF" d="M73.76,5.755h0.967v5.597h-0.823l-3.086-3.982v3.982H69.85V5.755h0.911l2.999,3.87V5.755z"/>
</g>
</svg>
