<?xml version="1.0" encoding="utf-8"?>
<!-- Generator: Adobe Illustrator 22.1.0, SVG Export Plug-In . SVG Version: 6.00 Build 0)  -->
<svg version="1.1" id="Layer_1" xmlns="http://www.w3.org/2000/svg" xmlns:xlink="http://www.w3.org/1999/xlink" x="0px" y="0px"
	 viewBox="0 0 135 40" style="enable-background:new 0 0 135 40;" xml:space="preserve">
<style type="text/css">
	.st0{fill:#A6A6A6;}
	.st1{fill:#F8EF71;}
	.st2{fill:#FFFFFF;}
	.st3{display:none;}
	.st4{display:inline;}
</style>
<g>
	<g>
		<g>
			<g>
				<g>
					<g>
						<g>
							<g>
								<g>
									<path class="st0" d="M130.2,40H4.7C2.1,40,0,37.9,0,35.2V4.7C0,2.1,2.1,0,4.7,0h125.5c2.6,0,4.8,2.1,4.8,4.7v30.6
										C135,37.9,132.8,40,130.2,40L130.2,40z"/>
								</g>
							</g>
						</g>
					</g>
				</g>
			</g>
		</g>
	</g>
</g>
<g>
	<g>
		<g>
			<g>
				<g>
					<g>
						<g>
							<g>
								<g>
									<path d="M134.1,35.3c0,2.1-1.7,3.8-3.8,3.8H4.8c-2.1,0-3.8-1.7-3.8-3.8V4.8c0-2.1,1.7-3.8,3.8-3.8h125.5
										c2.1,0,3.8,1.7,3.8,3.8V35.3L134.1,35.3z"/>
								</g>
							</g>
						</g>
					</g>
				</g>
			</g>
		</g>
	</g>
</g>
<g id="EN_1_">
	<g id="SNIPE_1_">
		<path class="st1" d="M135,14.7v18.6c0,0,0,0.1,0,0.3v1.2L100.2,0h20.1L135,14.7z"/>
	</g>
	<g>
		<path d="M119.1,6.8l-1.6,1.8l-1.8,1.9L115,9.8l5-5l0.6,0.6l-2.6,5l0,0l1.9-2.2l1.8-1.8l0.7,0.7l-5,5l-0.6-0.6l2.7-5.1l0,0
			L119.1,6.8z"/>
		<path d="M125.4,10l-0.6,0.6l-1.1-1.1l-1.6,1.6l1,1l-0.6,0.6l-1-1l-1.7,1.7l1.1,1.1l-0.6,0.6l-1.8-1.8l5-5L125.4,10z"/>
		<path d="M126.5,11.1l-2.9,3.9l-0.3,0.4l0,0l1.9-1.5l2.4-1.8l0.5,0.5l-3.2,4.3l0,0l1.8-1.4l2.4-1.8l0.6,0.6l-5.9,4.2l-0.5-0.5
			l2-2.7l1.1-1.4l0.1-0.1l0,0l-1.5,1.2l-2.8,2l-0.5-0.5l4.2-5.9L126.5,11.1z"/>
		<path d="M125.8,19.9c0.2-0.2,0.6-0.2,0.8,0s0.2,0.6,0,0.8c-0.2,0.2-0.6,0.2-0.8,0S125.6,20.1,125.8,19.9z M131.3,15.9l-3.8,3.8
			l-0.7-0.7l3.8-3.8L131.3,15.9z"/>
	</g>
	<g>
		<path class="st2" d="M27.3,9.3v0.3c0,2-1.4,3.5-3.4,3.5c-2,0-3.6-1.7-3.6-3.7c0-2.1,1.6-3.7,3.7-3.7c1.1,0,2.2,0.5,2.9,1.4
			l-0.6,0.6c-0.5-0.7-1.4-1.2-2.2-1.2c-1.6,0-2.9,1.3-2.9,2.9c0,1.5,1.2,2.9,2.8,2.9c1.1,0,2.3-1,2.3-2.1h-1.8V9.3H27.3z"/>
		<path class="st2" d="M28.2,5.7h3.8v0.8h-2.9v2H32v0.8h-2.9v2.7h2.9v0.8h-3.8V5.7z"/>
		<path class="st2" d="M35.1,12.9h-0.9V6.6h-1.7V5.7h4.3v0.8h-1.7V12.9z"/>
		<path class="st2" d="M41.1,12.9h-0.9V5.7h0.9V12.9z"/>
		<path class="st2" d="M44.4,12.9h-0.9V6.6h-1.7V5.7h4.3v0.8h-1.7V12.9z"/>
		<path class="st2" d="M49.4,5.4l5.4,5.6V5.7h0.9v7.4l-5.4-5.6v5.3h-0.9V5.4z"/>
		<path class="st2" d="M63.9,9.3c0,2.1-1.7,3.7-3.7,3.7c-2.1,0-3.7-1.6-3.7-3.7c0-2,1.7-3.7,3.7-3.7S63.9,7.3,63.9,9.3z M63,9.3
			c0-1.6-1.2-2.9-2.9-2.9s-2.9,1.3-2.9,2.9c0,1.6,1.3,2.9,2.9,2.9S63,10.9,63,9.3z"/>
		<path class="st2" d="M67,10.9l2-5.3l2,5.3l2-5.1h1l-3,7.4l-2-5.2l-2,5.2l-3-7.4h1L67,10.9z"/>
		<path class="st2" d="M84.2,9.3c0,2.1-1.7,3.7-3.7,3.7s-3.7-1.6-3.7-3.7c0-2,1.7-3.7,3.7-3.7S84.2,7.3,84.2,9.3z M83.4,9.3
			c0-1.6-1.2-2.9-2.9-2.9c-1.7,0-2.9,1.3-2.9,2.9c0,1.6,1.3,2.9,2.9,2.9S83.4,10.9,83.4,9.3z"/>
		<path class="st2" d="M85,5.4l5.4,5.6V5.7h0.9v7.4l-5.4-5.6v5.3H85V5.4z"/>
	</g>
</g>
<g id="ES" class="st3">
	<g id="SNIPE_2_" class="st4">
		<path class="st1" d="M135,14.7v18.6c0,0,0,0.1,0,0.3v1.2L100.2,0h20.1L135,14.7z"/>
	</g>
	<g class="st4">
		<path d="M112.9,3.5l0.7,0.7L109.7,8L109,7.3L112.9,3.5z M114.5,3.4c-0.2,0.2-0.6,0.2-0.8,0c-0.2-0.2-0.2-0.6,0-0.8
			c0.2-0.2,0.6-0.2,0.8,0C114.7,2.8,114.7,3.1,114.5,3.4z"/>
		<path d="M116.4,4.9l-1.6,1.8L113,8.5l-0.7-0.7l5-5l0.6,0.6l-2.6,5l0,0l1.9-2.2l1.8-1.8l0.7,0.7l-5,5L114,9.6l2.7-5.1h0L116.4,4.9z
			"/>
		<path d="M121.5,7l-3.7,3.7c-0.6,0.6-0.6,1-0.3,1.3c0.5,0.5,0.8,0.2,1.2-0.2l3.8-3.8l0.7,0.7l-3.6,3.6c-0.7,0.7-1.5,1.5-2.7,0.4
			c-1.1-1.1-0.4-1.9,0.5-2.8l3.5-3.5L121.5,7z"/>
		<path d="M126.1,11.6l-0.6,0.6l-1.1-1.1l-1.6,1.6l1,1l-0.6,0.6l-1-1l-1.7,1.7l1.1,1.1l-0.6,0.6l-1.8-1.8l5-5L126.1,11.6z"/>
		<path d="M127.2,12.7l-3.2,4.4l0,0l0.3-0.3l2-1.4l2.1-1.5l0.6,0.6l-6,4.1l-0.5-0.5l4.1-6L127.2,12.7z"/>
		<path d="M129.8,20.3c-0.9,0.9-2.6,2.6-3.9,1.3c-1.3-1.3,0.4-3,1.3-3.9c0.9-0.9,2.6-2.6,3.9-1.3S130.7,19.4,129.8,20.3z
			 M127.9,18.4c-1.1,1.1-1.9,2-1.4,2.6c0.5,0.5,1.5-0.3,2.6-1.4s1.9-2,1.4-2.6C130,16.6,129,17.4,127.9,18.4z"/>
		<path d="M128.7,23.6c0.2-0.2,0.6-0.2,0.8,0s0.2,0.6,0,0.8c-0.2,0.2-0.6,0.2-0.8,0S128.5,23.8,128.7,23.6z M134.2,19.6l-3.8,3.8
			l-0.7-0.7l3.8-3.8L134.2,19.6z"/>
	</g>
	<g class="st4">
		<path class="st2" d="M17.9,7.1c-0.5-0.5-1.2-0.7-1.9-0.7c-1.6,0-2.8,1.3-2.8,2.9c0,1.6,1.2,2.9,2.8,2.9c0.7,0,1.4-0.3,1.9-0.7v1.1
			C17.3,12.9,16.6,13,16,13c-2,0-3.7-1.6-3.7-3.7c0-2.1,1.7-3.8,3.8-3.8c0.6,0,1.3,0.2,1.8,0.5V7.1z"/>
		<path class="st2" d="M25.9,9.3c0,2.1-1.7,3.7-3.7,3.7c-2.1,0-3.7-1.6-3.7-3.7c0-2,1.7-3.7,3.7-3.7S25.9,7.3,25.9,9.3z M25,9.3
			c0-1.6-1.2-2.9-2.9-2.9s-2.9,1.3-2.9,2.9c0,1.6,1.3,2.9,2.9,2.9S25,10.9,25,9.3z"/>
		<path class="st2" d="M26.7,5.4l5.4,5.6V5.7H33v7.4l-5.4-5.6v5.3h-0.9V5.4z"/>
		<path class="st2" d="M37.4,7.1c-0.3-0.4-0.6-0.7-1.1-0.7c-0.6,0-1.2,0.4-1.2,1c0,0.6,0.5,0.9,1,1l0.5,0.2c1,0.4,1.8,1,1.8,2.2
			c0,1.3-1,2.2-2.3,2.2c-1.2,0-2.1-0.9-2.2-2l0.9-0.2c0,0.8,0.6,1.4,1.4,1.4s1.3-0.6,1.3-1.4c0-0.8-0.6-1.1-1.2-1.4l-0.5-0.2
			c-0.8-0.4-1.6-0.8-1.6-1.8c0-1.2,1-1.8,2.1-1.8c0.8,0,1.4,0.4,1.8,1.1L37.4,7.1z"/>
		<path class="st2" d="M41,3.9l-1.6,1.4L39,5l1.2-1.6L41,3.9z M40.2,12.9h-0.9V5.7h0.9V12.9z"/>
		<path class="st2" d="M48,9.3v0.3c0,2-1.4,3.5-3.4,3.5c-2,0-3.6-1.7-3.6-3.7c0-2.1,1.6-3.7,3.7-3.7c1.1,0,2.2,0.5,2.9,1.4L47,7.6
			c-0.5-0.7-1.4-1.2-2.2-1.2c-1.6,0-2.9,1.3-2.9,2.9c0,1.5,1.2,2.9,2.8,2.9c1.1,0,2.3-1,2.3-2.1h-1.8V9.3H48z"/>
		<path class="st2" d="M49.7,5.7V10c0,1.2,0.4,2.2,1.7,2.2s1.7-1.1,1.7-2.2V5.7H54v4.5c0,1.6-1,2.8-2.6,2.8s-2.6-1.2-2.6-2.8V5.7
			H49.7z"/>
		<path class="st2" d="M55.3,5.7h3.8v0.8h-2.9v2H59v0.8h-2.9v2.7h2.9v0.8h-3.8V5.7z"/>
		<path class="st2" d="M61.1,12.1h2.2v0.8h-3.1V5.7h0.9V12.1z"/>
		<path class="st2" d="M70.8,9.3c0,2.1-1.7,3.7-3.7,3.7c-2.1,0-3.7-1.6-3.7-3.7c0-2,1.7-3.7,3.7-3.7C69.1,5.6,70.8,7.3,70.8,9.3z
			 M69.9,9.3c0-1.6-1.2-2.9-2.9-2.9s-2.9,1.3-2.9,2.9c0,1.6,1.3,2.9,2.9,2.9S69.9,10.9,69.9,9.3z"/>
		<path class="st2" d="M73.7,5.7h1l1.8,3.1l1.8-3.1h1l-2.3,4v3.1H76V9.8L73.7,5.7z"/>
		<path class="st2" d="M79.9,11.1l-0.8,1.8h-1l3.4-7.4l3.4,7.4h-1l-0.8-1.8H79.9z M81.6,7.4l-1.3,2.9h2.5L81.6,7.4z"/>
		<path class="st2" d="M88.3,5.7h3.8v0.8h-2.9v2h2.9v0.8h-2.9v2.7h2.9v0.8h-3.8V5.7z"/>
		<path class="st2" d="M93.2,5.4l5.4,5.6V5.7h0.9v7.4l-5.4-5.6v5.3h-0.9V5.4z"/>
	</g>
</g>
<g id="FR" class="st3">
	<g id="SNIPE_3_" class="st4">
		<path class="st1" d="M135,14.7v18.6c0,0,0,0.1,0,0.3v1.2L100.2,0h20.1L135,14.7z"/>
	</g>
	<g class="st4">
		<path d="M113.3,2.8l-1.4,1.5l-1.6,1.6l-0.6-0.6l4.3-4.4l0.6,0.6l-2.3,4.3h0L114,4l1.6-1.6l0.6,0.6l-4.3,4.4l-0.5-0.5l2.3-4.4h0
			L113.3,2.8z"/>
		<path d="M117.1,8.3c-0.8,0.8-2.2,2.2-3.4,1.1s0.3-2.6,1.1-3.4c0.8-0.8,2.2-2.2,3.4-1.1S117.9,7.5,117.1,8.3z M115.4,6.7
			c-0.9,0.9-1.6,1.8-1.2,2.2s1.3-0.2,2.2-1.2c0.9-0.9,1.6-1.8,1.2-2.2S116.4,5.7,115.4,6.7z"/>
		<path d="M120.7,7.6l-3.2,3.2c-0.6,0.6-0.5,0.8-0.3,1.1c0.4,0.4,0.7,0.2,1-0.2l3.3-3.3l0.6,0.6l-3.1,3.1c-0.6,0.6-1.3,1.3-2.3,0.3
			c-0.9-0.9-0.4-1.6,0.4-2.4l3-3L120.7,7.6z"/>
		<path d="M123.4,10.3l-2.8,3.8l0,0l0.3-0.2l1.7-1.2l1.8-1.3l0.5,0.5l-5.2,3.5l-0.5-0.5l3.5-5.2L123.4,10.3z"/>
		<path d="M127.2,14.1l-0.5,0.5l-1-1l-1.4,1.4l0.9,0.9l-0.5,0.5l-0.9-0.9l-1.5,1.5l1,1l-0.5,0.5l-1.6-1.6l4.3-4.4L127.2,14.1z"/>
		<path d="M129,15.9l-3.4,5.3l-0.6-0.6l0.7-1l-0.9-0.9l-1,0.7l-0.6-0.6l5.3-3.4L129,15.9z M126.6,18.3l1.4-1.8l0,0l-2.6,1.9l0.7,0.7
			L126.6,18.3z"/>
		<path d="M131.2,18.1l-3.2,3.2c-0.6,0.6-0.5,0.8-0.3,1.1c0.4,0.4,0.7,0.2,1-0.2l3.3-3.3l0.6,0.6l-3.1,3.1c-0.6,0.6-1.3,1.3-2.3,0.3
			c-0.9-0.9-0.4-1.6,0.4-2.4l3-3L131.2,18.1z"/>
		<path d="M129.6,24.5c0.2-0.2,0.5-0.2,0.7,0c0.2,0.2,0.2,0.5,0,0.7c-0.2,0.2-0.5,0.2-0.7,0C129.4,25,129.4,24.7,129.6,24.5z
			 M134.3,21.1l-3.3,3.3l-0.6-0.6l3.3-3.3L134.3,21.1z"/>
	</g>
	<g class="st4">
		<path class="st2" d="M22.2,5.7h1.5c2.2,0,4,1.2,4,3.5c0,2.4-1.8,3.6-4,3.6h-1.4V5.7z M23.1,12.1h0.3c1.8,0,3.4-0.7,3.4-2.8
			c0-2.1-1.6-2.8-3.4-2.8h-0.3V12.1z"/>
		<path class="st2" d="M29.5,12.9h-0.9V5.7h0.9V12.9z"/>
		<path class="st2" d="M34,7.1c-0.3-0.4-0.6-0.7-1.1-0.7c-0.6,0-1.2,0.4-1.2,1c0,0.6,0.5,0.9,1,1l0.5,0.2c1,0.4,1.8,1,1.8,2.2
			c0,1.3-1,2.2-2.3,2.2c-1.2,0-2.1-0.9-2.2-2l0.9-0.2c0,0.8,0.6,1.4,1.4,1.4s1.3-0.6,1.3-1.4c0-0.8-0.6-1.1-1.2-1.4l-0.5-0.2
			c-0.8-0.4-1.6-0.8-1.6-1.8c0-1.2,1-1.8,2.1-1.8c0.8,0,1.4,0.4,1.8,1.1L34,7.1z"/>
		<path class="st2" d="M36.8,12.9h-0.9V5.7h1c2.2,0,2.9,0.8,2.9,2.1c0,1.5-1.1,2.1-2.5,2.1h-0.5V12.9z M36.8,9.1h0.3
			C38,9.1,39,8.9,39,7.8c0-1.1-1.1-1.3-1.9-1.3h-0.2V9.1z"/>
		<path class="st2" d="M47.6,9.3c0,2.1-1.7,3.7-3.7,3.7c-2.1,0-3.7-1.6-3.7-3.7c0-2,1.7-3.7,3.7-3.7S47.6,7.3,47.6,9.3z M46.7,9.3
			c0-1.6-1.2-2.9-2.9-2.9S41,7.7,41,9.3c0,1.6,1.3,2.9,2.9,2.9S46.7,10.9,46.7,9.3z"/>
		<path class="st2" d="M48.4,5.4l5.4,5.6V5.7h0.9v7.4l-5.4-5.6v5.3h-0.9V5.4z"/>
		<path class="st2" d="M56.8,12.9h-0.9V5.7h0.9V12.9z"/>
		<path class="st2" d="M58,5.7h0.9c1.3,0,2.6,0.4,2.6,2c0,0.5-0.3,1.1-0.8,1.4v0c0.8,0.2,1.4,1,1.4,1.8c0,1.4-1.2,2-2.5,2H58V5.7z
			 M58.9,8.9h0.2c0.8,0,1.5-0.2,1.5-1.2c0-1-0.7-1.2-1.5-1.2h-0.2V8.9z M58.9,12.1h0.7c0.8,0,1.7-0.2,1.7-1.3c0-1-1-1.2-1.8-1.2
			h-0.5V12.1z"/>
		<path class="st2" d="M64.1,12.1h2.2v0.8h-3.1V5.7h0.9V12.1z"/>
		<path class="st2" d="M66.8,5.7h3.8v0.8h-2.9v2h2.9v0.8h-2.9v2.7h2.9v0.8h-3.8V5.7z"/>
		<path class="st2" d="M77.7,7.1c-0.3-0.4-0.6-0.7-1.1-0.7c-0.6,0-1.2,0.4-1.2,1c0,0.6,0.5,0.9,1,1l0.5,0.2c1,0.4,1.8,1,1.8,2.2
			c0,1.3-1,2.2-2.3,2.2c-1.2,0-2.1-0.9-2.2-2l0.9-0.2c0,0.8,0.6,1.4,1.4,1.4s1.3-0.6,1.3-1.4c0-0.8-0.6-1.1-1.2-1.4L76,9.2
			c-0.8-0.4-1.6-0.8-1.6-1.8c0-1.2,1-1.8,2.1-1.8c0.8,0,1.4,0.4,1.8,1.1L77.7,7.1z"/>
		<path class="st2" d="M80.4,5.7V10c0,1.2,0.4,2.2,1.7,2.2s1.7-1.1,1.7-2.2V5.7h0.9v4.5c0,1.6-1,2.8-2.6,2.8c-1.6,0-2.6-1.2-2.6-2.8
			V5.7H80.4z"/>
		<path class="st2" d="M90.4,12.9h-1.1l-2.1-3h-0.4v3h-0.9V5.7H87c0.6,0,1.3,0,1.9,0.3c0.6,0.4,0.9,1,0.9,1.7c0,1-0.7,1.9-1.7,2
			L90.4,12.9z M86.8,9.1h0.3C88,9.1,89,9,89,7.8c0-1.1-1.1-1.3-1.9-1.3h-0.2V9.1z"/>
	</g>
</g>
<g id="IT" class="st3">
	<g id="SNIPE_4_" class="st4">
		<path class="st1" d="M135,14.7v18.6c0,0,0,0.1,0,0.3v1.2L100.2,0h20.1L135,14.7z"/>
	</g>
	<g class="st4">
		<path d="M116,3.6l-1.6,1.8l-1.8,1.9l-0.7-0.7l5-5l0.6,0.6l-2.6,5l0,0l1.9-2.2l1.8-1.8l0.7,0.7l-5,5l-0.6-0.6l2.7-5.1l0,0L116,3.6z
			"/>
		<path d="M121.1,5.7l-3.7,3.7c-0.6,0.6-0.6,1-0.3,1.3c0.5,0.5,0.8,0.2,1.2-0.2l3.8-3.8l0.7,0.7l-3.6,3.6c-0.7,0.7-1.5,1.5-2.7,0.4
			c-1.1-1.1-0.4-1.9,0.5-2.8l3.5-3.5L121.1,5.7z"/>
		<path d="M123.8,13.5c-0.9,0.9-2.6,2.6-3.9,1.3c-1.3-1.3,0.4-3,1.3-3.9s2.6-2.6,3.9-1.3C126.4,10.9,124.7,12.6,123.8,13.5z
			 M121.9,11.6c-1.1,1.1-1.9,2-1.4,2.6c0.5,0.5,1.5-0.3,2.6-1.4s1.9-2,1.4-2.6C123.9,9.7,123,10.5,121.9,11.6z"/>
		<path d="M127.7,12.3l-3.2,4.4l0,0l0.3-0.3l2-1.4l2.1-1.5l0.6,0.6l-6,4.1l-0.5-0.5l4.1-6L127.7,12.3z"/>
		<path d="M130.3,19.9c-0.9,0.9-2.6,2.6-3.9,1.3s0.4-3,1.3-3.9c0.9-0.9,2.6-2.6,3.9-1.3S131.2,19,130.3,19.9z M128.3,18
			c-1.1,1.1-1.9,2-1.4,2.6c0.5,0.5,1.5-0.3,2.6-1.4s1.9-2,1.4-2.6C130.4,16.1,129.4,17,128.3,18z"/>
		<path d="M129.1,23.2c0.2-0.2,0.6-0.2,0.8,0c0.2,0.2,0.2,0.6,0,0.8c-0.2,0.2-0.6,0.2-0.8,0S128.9,23.4,129.1,23.2z M134.6,19.2
			l-3.8,3.8l-0.7-0.7l3.8-3.8L134.6,19.2z"/>
	</g>
	<g class="st4">
		<path class="st2" d="M15,7.1c-0.3-0.4-0.6-0.7-1.1-0.7c-0.6,0-1.2,0.4-1.2,1c0,0.6,0.5,0.9,1,1l0.5,0.2c1,0.4,1.8,1,1.8,2.2
			c0,1.3-1,2.2-2.3,2.2c-1.2,0-2.1-0.9-2.2-2l0.9-0.2c0,0.8,0.6,1.4,1.4,1.4s1.3-0.6,1.3-1.4c0-0.8-0.6-1.1-1.2-1.4l-0.5-0.2
			c-0.8-0.4-1.6-0.8-1.6-1.8c0-1.2,1-1.8,2.1-1.8c0.8,0,1.4,0.4,1.8,1.1L15,7.1z"/>
		<path class="st2" d="M22.1,7.1c-0.5-0.5-1.2-0.7-1.9-0.7c-1.6,0-2.8,1.3-2.8,2.9c0,1.6,1.2,2.9,2.8,2.9c0.7,0,1.4-0.3,1.9-0.7v1.1
			c-0.5,0.3-1.3,0.5-1.9,0.5c-2,0-3.7-1.6-3.7-3.7c0-2.1,1.7-3.8,3.8-3.8c0.6,0,1.3,0.2,1.8,0.5V7.1z"/>
		<path class="st2" d="M24.2,11.1l-0.8,1.8h-1l3.4-7.4l3.4,7.4h-1l-0.8-1.8H24.2z M25.8,7.4l-1.3,2.9h2.5L25.8,7.4z"/>
		<path class="st2" d="M34.3,12.9h-1.1l-2.1-3h-0.4v3h-0.9V5.7h1.1c0.6,0,1.3,0,1.9,0.3c0.6,0.4,0.9,1,0.9,1.7c0,1-0.7,1.9-1.7,2
			L34.3,12.9z M30.7,9.1H31c0.9,0,1.9-0.2,1.9-1.3c0-1.1-1.1-1.3-1.9-1.3h-0.2V9.1z"/>
		<path class="st2" d="M35.9,12.9H35V5.7h0.9V12.9z"/>
		<path class="st2" d="M42.4,7.1c-0.5-0.5-1.2-0.7-1.9-0.7c-1.6,0-2.8,1.3-2.8,2.9c0,1.6,1.2,2.9,2.8,2.9c0.7,0,1.4-0.3,1.9-0.7v1.1
			c-0.5,0.3-1.3,0.5-1.9,0.5c-2,0-3.7-1.6-3.7-3.7c0-2.1,1.7-3.8,3.8-3.8c0.6,0,1.3,0.2,1.8,0.5V7.1z"/>
		<path class="st2" d="M44.5,11.1l-0.8,1.8h-1l3.4-7.4l3.4,7.4h-1l-0.8-1.8H44.5z M46.1,7.4l-1.3,2.9h2.5L46.1,7.4z"/>
		<path class="st2" d="M51,12.1h2.2v0.8h-3.1V5.7H51V12.1z"/>
		<path class="st2" d="M60.8,9.3c0,2.1-1.7,3.7-3.7,3.7c-2.1,0-3.7-1.6-3.7-3.7c0-2,1.7-3.7,3.7-3.7S60.8,7.3,60.8,9.3z M59.9,9.3
			c0-1.6-1.2-2.9-2.9-2.9s-2.9,1.3-2.9,2.9c0,1.6,1.3,2.9,2.9,2.9S59.9,10.9,59.9,9.3z"/>
		<path class="st2" d="M71.4,9.3c0,2.1-1.7,3.7-3.7,3.7c-2.1,0-3.7-1.6-3.7-3.7c0-2,1.7-3.7,3.7-3.7C69.7,5.6,71.4,7.3,71.4,9.3z
			 M70.5,9.3c0-1.6-1.2-2.9-2.9-2.9s-2.9,1.3-2.9,2.9c0,1.6,1.3,2.9,2.9,2.9S70.5,10.9,70.5,9.3z"/>
		<path class="st2" d="M76.7,12.9h-1.1l-2.1-3h-0.4v3h-0.9V5.7h1.1c0.6,0,1.3,0,1.9,0.3c0.6,0.4,0.9,1,0.9,1.7c0,1-0.7,1.9-1.7,2
			L76.7,12.9z M73.1,9.1h0.3c0.9,0,1.9-0.2,1.9-1.3c0-1.1-1.1-1.3-1.9-1.3h-0.2V9.1z"/>
		<path class="st2" d="M78.4,11.1l-0.8,1.8h-1L80,5.4l3.4,7.4h-1l-0.8-1.8H78.4z M80,7.4l-1.3,2.9h2.5L80,7.4z"/>
		<path class="st2" d="M87.7,12.9h-0.9V5.7h1c2.2,0,2.9,0.8,2.9,2.1c0,1.5-1.1,2.1-2.5,2.1h-0.5V12.9z M87.7,9.1H88
			c0.9,0,1.9-0.2,1.9-1.3c0-1.1-1.1-1.3-1.9-1.3h-0.2V9.1z"/>
		<path class="st2" d="M91.5,5.7h3.8v0.8h-2.9v2h2.9v0.8h-2.9v2.7h2.9v0.8h-3.8V5.7z"/>
		<path class="st2" d="M100.9,12.9h-1.1l-2.1-3h-0.4v3h-0.9V5.7h1.1c0.6,0,1.3,0,1.9,0.3c0.6,0.4,0.9,1,0.9,1.7c0,1-0.7,1.9-1.7,2
			L100.9,12.9z M97.3,9.1h0.3c0.9,0,1.9-0.2,1.9-1.3c0-1.1-1.1-1.3-1.9-1.3h-0.2V9.1z"/>
	</g>
</g>
<g id="JP__x28__TURN_OFF_TOP_GROUP_LAYER_IN_LAYER_1__x29_" class="st3">
	<g id="SNIPE_5_" class="st4">
		<path class="st1" d="M135,14.7v18.6c0,0,0,0.1,0,0.3v1.2L100.2,0h20.1L135,14.7z"/>
	</g>
	<g class="st4">
		<path d="M119.2,6.8l-1.6,1.8l-1.8,1.9l-0.7-0.7l5-5l0.6,0.6l-2.6,5l0,0l1.9-2.2l1.8-1.8l0.7,0.7l-5,5l-0.6-0.6l2.7-5.1h0
			L119.2,6.8z"/>
		<path d="M125.4,10.1l-0.6,0.6l-1.1-1.1l-1.6,1.6l1,1l-0.6,0.6l-1-1l-1.7,1.7l1.1,1.1l-0.6,0.6l-1.8-1.8l5-5L125.4,10.1z"/>
		<path d="M126.5,11.2l-2.9,3.9l-0.3,0.4l0,0l1.9-1.5l2.4-1.8l0.5,0.5l-3.2,4.3l0,0l1.8-1.4l2.4-1.8l0.6,0.6l-5.9,4.2l-0.5-0.5
			l2-2.7l1.1-1.4l0.1-0.1l0,0L125,15l-2.8,2l-0.5-0.5l4.2-5.9L126.5,11.2z"/>
		<path d="M125.9,19.9c0.2-0.2,0.6-0.2,0.8,0c0.2,0.2,0.2,0.6,0,0.8c-0.2,0.2-0.6,0.2-0.8,0C125.7,20.5,125.7,20.2,125.9,19.9z
			 M131.3,16l-3.8,3.8l-0.7-0.7l3.8-3.8L131.3,16z"/>
	</g>
	<g class="st4">
		<path class="st2" d="M25,28.2c0.7,0,6.5-0.4,7.8-0.5l0,0.7c-0.1,0-0.2,0-0.4,0c-0.5,0-1,0.1-1.6,0.5c-1.4,0.9-2.8,2.4-2.8,3.6
			c0,1.3,0.9,2.1,3.3,2.4L31,35.6c-2.7-0.4-3.7-1.4-3.7-3.1c0-1.3,1.3-3,3.1-4c-1,0.1-3.8,0.3-5.1,0.4c0,0.1-0.1,0.1-0.2,0.2
			L25,28.2z M31.2,30c0.5,0.3,1,0.9,1.3,1.3l-0.4,0.3c-0.3-0.4-0.8-1-1.3-1.3L31.2,30z M32.2,29.2c0.5,0.3,1,0.9,1.3,1.3l-0.4,0.3
			c-0.3-0.4-0.8-1-1.3-1.3L32.2,29.2z"/>
		<path class="st2" d="M39,26.9c0,0.1-0.1,0.1-0.2,0.1c0.9,1.3,2.7,2.8,4.1,3.6c-0.2,0.2-0.3,0.4-0.4,0.5c-1.5-0.9-3.2-2.4-4.1-3.6
			c-0.8,1.2-2.4,2.7-4,3.7c-0.1-0.1-0.3-0.4-0.4-0.5c1.7-1,3.3-2.6,4.1-3.9L39,26.9z M41,31.8l0.1,0l0.5,0.2c0,0.1,0,0.1-0.1,0.1
			c-0.4,0.9-1.1,2.4-1.8,3.6l-0.7-0.2c0.5-1,1.1-2.2,1.5-3.1h-5.5v-0.6H41z M36.4,29.9h4.2v0.6h-4.2V29.9z"/>
		<path class="st2" d="M48.2,28.5c0-0.2,0-1.2-0.1-1.5l1,0c0,0.1-0.1,0.2-0.2,0.2c0,0.1,0,0.2,0,1.2c1.2,0,2.4-0.1,3.1-0.1V29
			c-0.8,0-2,0-3.1,0c0,0.7,0,1.4,0.1,1.9c0.1,0.3,0.1,0.6,0.1,1c0,0.3,0,0.7-0.1,0.9C48.8,34,48,35,46.3,35.7
			c-0.1-0.2-0.3-0.4-0.5-0.5c1.4-0.5,2.2-1.3,2.5-2.2h0c-0.2,0.3-0.5,0.5-1,0.5c-0.8,0-1.6-0.7-1.6-1.7c0-1,0.8-1.8,1.7-1.8
			c0.3,0,0.7,0.1,0.9,0.3c0-0.2,0-0.8,0-1.2c-1,0-4,0.1-4.4,0.1l0-0.6l2.2-0.1L48.2,28.5z M48.4,31.8c0-0.4,0-1.2-1-1.2
			c-0.7,0-1.1,0.5-1.1,1.2c0,0.7,0.5,1.1,1.1,1.1C48,32.9,48.4,32.3,48.4,31.8z"/>
		<path class="st2" d="M57.9,35.6c-1-1.1-2.4-2.5-3.7-3.5c-0.5-0.4-0.6-0.6-0.6-1c0-0.3,0.2-0.5,0.5-0.9c0.9-0.8,2.5-2.3,3.4-3.3
			l0.8,0.5c0,0-0.1,0.1-0.2,0.1c0,0-0.1,0-0.1,0c-0.9,0.9-2.4,2.2-3.2,2.9c-0.2,0.2-0.4,0.4-0.4,0.6c0,0.2,0.2,0.4,0.5,0.6
			c1.3,1,2.6,2.2,3.7,3.4L57.9,35.6z M57.9,29.4c0.5,0.3,1,0.9,1.3,1.3L58.9,31c-0.3-0.4-0.9-1-1.3-1.3L57.9,29.4z M58.9,28.5
			c0.5,0.3,1,0.9,1.3,1.3l-0.4,0.3c-0.3-0.4-0.8-0.9-1.3-1.3L58.9,28.5z"/>
		<path class="st2" d="M61.6,28.3h6l0.1,0l0.6,0.5c0,0-0.1,0.1-0.1,0.1c-0.8,3.6-2.4,5.4-5.3,6.5c-0.1-0.2-0.3-0.4-0.4-0.6
			c2.8-1,4.3-2.8,5-5.9h-5.8V28.3z M68.8,26.6c0.6,0,1,0.5,1,1c0,0.6-0.5,1-1,1c-0.6,0-1-0.5-1-1C67.8,27.1,68.2,26.6,68.8,26.6z
			 M69.5,27.6c0-0.4-0.3-0.7-0.7-0.7c-0.4,0-0.7,0.3-0.7,0.7c0,0.4,0.3,0.7,0.7,0.7C69.2,28.4,69.5,28,69.5,27.6z"/>
		<path class="st2" d="M72.1,34.3c2.4-0.7,4.3-1.8,5.5-3.9c0.1,0.2,0.4,0.4,0.5,0.5c-1.3,2.2-3.4,3.4-6.2,4.2c0,0.1-0.1,0.2-0.2,0.2
			l-0.4-0.7l0.1-0.2v-7l1,0c0,0.1-0.1,0.2-0.3,0.2V34.3z"/>
		<path class="st2" d="M86.9,27.8c0,0-0.1,0.1-0.2,0.1c0,0-0.1,0-0.1,0c-0.7,0.7-1.8,1.6-2.7,2.3c0.1,0,0.2,0.1,0.2,0.1
			c0,0.1-0.1,0.1-0.2,0.1v5.1h-0.7v-4.9c-1,0.7-2.3,1.5-3.6,2.1c-0.1-0.2-0.3-0.4-0.4-0.5c2.6-1.2,5.4-3.2,6.9-4.9L86.9,27.8z"/>
	</g>
	<g class="st4">
		<g>
			<g>
				<g>
					<g>
						<polygon class="st2" points="94.4,18.3 94,18.3 94,18.2 94.9,18.2 94.9,18.3 94.5,18.3 94.5,19.3 94.4,19.3 						"/>
					</g>
					<g>
						<polygon class="st2" points="95.5,19.3 95.2,18.4 95.2,19.3 95.1,19.3 95.1,18.2 95.3,18.2 95.6,19.1 96,18.2 96.2,18.2 
							96.2,19.3 96,19.3 96,18.4 95.7,19.3 						"/>
					</g>
				</g>
			</g>
			<g>
				<g>
					<g>
						<g>
							<path class="st2" d="M76.6,8.9l-6.8,0c-2,0-2.9,1.2-2.9,2.8v4.8c0,1-0.5,1.7-1.4,1.7H59c0,0-0.1,0-0.1,0.1v1
								c0,0,0,0.1,0.1,0.1h7.1c2,0,2.9-1.2,2.9-2.8v-4.8c0-1,0.5-1.7,1.4-1.7h6.1c0,0,0.1,0,0.1-0.1L76.6,8.9
								C76.7,8.9,76.7,8.9,76.6,8.9"/>
						</g>
						<g>
							<path class="st2" d="M56.5,8.9l-12.3,0c0,0-0.1,0-0.1,0.1v1c0,0,0,0.1,0.1,0.1h11.6c1,0,1.4,0.7,1.4,1.7c0,1-0.5,1.7-1.4,1.7
								h-9.2c-1.4,0-2.5,1.2-2.5,2.8l0,3.1c0,0,0,0.1,0.1,0.1h2.1c0,0,0.1,0,0.1-0.1v-3.1c0-1,0.6-1.7,1.4-1.7h8.8
								c2,0,2.9-1.2,2.9-2.8C59.5,10.1,58.5,8.9,56.5,8.9"/>
						</g>
						<g>
							<path class="st2" d="M92.8,17.1l-2.2,0h0.1c0,0-0.1,0-0.1-0.1v-7c0-1.1-0.7-1.4-1.8-0.8l-12.6,7.7c-0.5,0.3-0.7,0.6-0.5,0.9
								c0.1,0.2,0.4,0.4,0.9,0.4l11.7,0c0,0,0.1,0,0.1,0.1v1c0,0,0,0.1,0.1,0.1h2.1c0,0,0.1,0,0.1-0.1v-1c0,0,0-0.1,0.1-0.1h2.1
								c0,0,0.1,0,0.1-0.1L92.8,17.1C92.9,17.1,92.9,17.1,92.8,17.1 M88.4,17C88.4,17.1,88.4,17.1,88.4,17l-9.9,0.1
								c-0.1,0-0.1,0-0.1-0.1c0,0,0-0.1,0.1-0.1l9.7-6c0.1,0,0.2,0,0.2,0.1V17z"/>
						</g>
					</g>
				</g>
			</g>
		</g>
		<g>
			<g>
				<g>
					<g>
						<path class="st2" d="M23.1,4.9v15.8l3.6,1.1V8.6c0-0.6,0.3-1,0.7-0.9C28,7.8,28.1,8.4,28.1,9v5.3c2.2,1.1,4,0,4-2.8
							c0-2.9-1-4.2-4-5.2C26.8,5.8,24.6,5.2,23.1,4.9z"/>
					</g>
					<g>
						<path class="st2" d="M27.3,19.5l5.7-2c0.7-0.2,0.8-0.6,0.2-0.7c-0.5-0.2-1.5-0.1-2.1,0.1l-3.8,1.3V16l0.2-0.1
							c0,0,1.1-0.4,2.7-0.6c1.6-0.2,3.5,0,5,0.6c1.7,0.5,1.9,1.3,1.4,1.9c-0.4,0.5-1.5,0.9-1.5,0.9l-7.8,2.8V19.5z"/>
					</g>
					<g>
						<path class="st2" d="M16.5,19.3c-1.7-0.5-2-1.5-1.2-2.1c0.7-0.5,2-0.9,2-0.9l5.1-1.8v2.1l-3.7,1.3c-0.7,0.2-0.7,0.6-0.2,0.7
							c0.5,0.2,1.5,0.1,2.1-0.1l1.8-0.6v1.9c-0.1,0-0.2,0-0.4,0.1C20.3,20,18.4,19.9,16.5,19.3"/>
					</g>
					<g>
						<path class="st2" d="M34.8,20.9c0-0.2,0.1-0.4,0.2-0.5c0.1-0.1,0.3-0.2,0.5-0.2c0.2,0,0.4,0.1,0.5,0.2
							c0.1,0.1,0.2,0.3,0.2,0.5c0,0.4-0.3,0.7-0.7,0.7c-0.2,0-0.4-0.1-0.5-0.2C34.9,21.3,34.8,21.1,34.8,20.9z M35.5,21.8
							c0.2,0,0.4-0.1,0.6-0.2c0.2-0.2,0.2-0.4,0.2-0.6c0-0.2-0.1-0.4-0.2-0.6c-0.2-0.2-0.4-0.2-0.6-0.2c-0.5,0-0.8,0.4-0.8,0.8
							c0,0.2,0.1,0.4,0.2,0.6C35.1,21.7,35.3,21.8,35.5,21.8"/>
					</g>
					<g>
						<path class="st2" d="M35.7,20.7c0,0.1,0,0.1,0,0.1c0,0-0.1,0-0.1,0h-0.3v-0.3h0.3c0,0,0.1,0,0.1,0
							C35.7,20.6,35.7,20.7,35.7,20.7z M35.9,21.3C35.9,21.3,35.9,21.3,35.9,21.3c0-0.1,0-0.1,0-0.1l0-0.1c0-0.1,0-0.1,0-0.1
							c0,0,0,0-0.1,0c0,0,0.1,0,0.1-0.1c0,0,0-0.1,0-0.1c0-0.1,0-0.2-0.1-0.2c0,0-0.1,0-0.2,0h-0.4h0v0v0.9v0h0h0.1h0v0V21h0.3
							c0,0,0.1,0,0.1,0c0,0,0.1,0,0.1,0.1l0,0.1c0,0,0,0.1,0,0.1c0,0,0,0,0,0l0,0h0L35.9,21.3L35.9,21.3L35.9,21.3L35.9,21.3
							L35.9,21.3L35.9,21.3"/>
					</g>
				</g>
			</g>
		</g>
	</g>
</g>
<g id="PL" class="st3">
	<g id="SNIPE_6_" class="st4">
		<path class="st1" d="M135,14.7v18.6c0,0,0,0.1,0,0.3v1.2L100.2,0h20.1L135,14.7z"/>
	</g>
	<g class="st4">
		<path d="M112.7,7.6L112,6.9l1.7-3.3c0,0,0.2-0.3,0.6-0.9c-0.3,0.4-0.7,0.8-1.3,1.4L111.1,6l-0.7-0.7l4.5-4.5l0.7,0.7L114,4.7
			c-0.1,0.2-0.3,0.6-0.7,1.1c0.6-0.7,1.1-1.3,1.5-1.7l1.7-1.7l0.7,0.7L112.7,7.6z"/>
		<path d="M118,8.6c-0.7,0.7-1.3,1.1-2,1.3c-0.6,0.2-1.1,0.1-1.5-0.3c-0.4-0.4-0.5-0.9-0.3-1.5c0.2-0.6,0.6-1.3,1.4-2
			c0.7-0.7,1.4-1.2,2-1.4c0.6-0.2,1.1-0.1,1.5,0.3c0.4,0.4,0.5,0.9,0.3,1.5C119.2,7.1,118.8,7.8,118,8.6z M117.4,7.8
			c1-1,1.3-1.6,0.9-2c-0.4-0.4-1-0.1-2,0.9c-1,1-1.3,1.6-0.9,2C115.8,9.1,116.4,8.8,117.4,7.8z"/>
		<path d="M124.4,10.3l-5.2,3.8l-0.6-0.6l2.1-2.8c0.2-0.3,0.5-0.7,0.9-1.1c-0.5,0.4-0.9,0.7-1.1,0.9l-2.9,2.1l-0.6-0.6l3.8-5.2
			l0.7,0.7l-1.8,2.3c-0.3,0.4-0.8,0.9-1.3,1.5l3.8-2.9l0.6,0.6l-2.9,3.8c0.4-0.4,0.8-0.8,1.3-1.2l2.4-1.9L124.4,10.3z"/>
		<path d="M124.9,15.5c-0.7,0.7-1.3,1.1-2,1.3c-0.6,0.2-1.1,0.1-1.5-0.3c-0.4-0.4-0.5-0.9-0.3-1.5c0.2-0.6,0.6-1.3,1.4-2
			c0.7-0.7,1.4-1.2,2-1.4c0.6-0.2,1.1-0.1,1.5,0.3c0.4,0.4,0.5,0.9,0.3,1.5C126.2,14,125.7,14.7,124.9,15.5z M124.3,14.7
			c1-1,1.3-1.6,0.9-2c-0.4-0.4-1-0.1-2,0.9c-1,1-1.3,1.6-0.9,2C122.7,16,123.3,15.7,124.3,14.7z"/>
		<path d="M126.2,18.6c-0.4,0.4-0.8,0.6-1.2,0.7c-0.4,0.1-0.8-0.1-1.1-0.4c-0.2-0.2-0.4-0.5-0.4-0.8l0.9-0.9c0,0.4,0.1,0.6,0.2,0.8
			c0.3,0.3,0.5,0.2,0.8-0.1c0.1-0.1,0.2-0.3,0.2-0.5c0-0.2,0-0.4,0-0.6c0-0.4,0.1-0.8,0.2-1c0.1-0.3,0.3-0.6,0.6-0.9
			c0.4-0.4,0.8-0.6,1.2-0.7c0.4-0.1,0.8,0,1,0.3c0.2,0.2,0.3,0.5,0.4,0.8l-0.8,0.8c-0.1-0.4-0.2-0.6-0.3-0.7
			c-0.1-0.1-0.2-0.1-0.4-0.1c-0.1,0-0.3,0.1-0.4,0.2c-0.1,0.1-0.2,0.3-0.3,0.5c0,0.1-0.1,0.4-0.1,0.7c0,0.4-0.1,0.7-0.1,1
			C126.7,18,126.5,18.3,126.2,18.6z M130.8,13.7l-1.6,0.6l-0.4-0.4l1.4-0.8L130.8,13.7z"/>
		<path d="M127.5,22.2c-0.2-0.1-0.4-0.2-0.5-0.3c-0.4-0.4-0.6-1-0.5-1.7c0.1-0.7,0.5-1.4,1.2-2.1c0.7-0.7,1.4-1.1,2.1-1.3
			c0.7-0.1,1.3,0,1.7,0.4c0.2,0.2,0.3,0.3,0.3,0.5l-0.8,0.8c-0.1-0.2-0.2-0.4-0.3-0.5c-0.2-0.2-0.6-0.3-1-0.2
			c-0.4,0.1-0.8,0.4-1.3,0.8c-0.4,0.4-0.7,0.8-0.8,1.3c-0.1,0.4,0,0.7,0.2,1c0.1,0.1,0.3,0.2,0.5,0.3L127.5,22.2z M133.3,16.3
			l-1.6,0.6l-0.4-0.4l1.4-0.8L133.3,16.3z"/>
		<path d="M128.6,22.7c0.2-0.2,0.6-0.3,0.8-0.1c0.2,0.2,0.2,0.6-0.1,0.8c-0.2,0.2-0.6,0.3-0.8,0.1C128.3,23.3,128.3,22.9,128.6,22.7
			z M134.4,18.1l-4.2,4.3l-0.6-0.6l4.2-4.3L134.4,18.1z"/>
	</g>
	<g class="st4">
		<path class="st2" d="M21,12.1v0.8h-5.1l3.6-6.3h-3.1V5.7H21l-3.6,6.3H21z"/>
		<path class="st2" d="M22.7,11.1l-0.8,1.8h-1l3.4-7.4l3.4,7.4h-1L26,11.1H22.7z M24.4,7.4l-1.3,2.9h2.5L24.4,7.4z"/>
		<path class="st2" d="M34.9,9.3v0.3c0,2-1.4,3.5-3.4,3.5c-2,0-3.6-1.7-3.6-3.7c0-2.1,1.6-3.7,3.7-3.7c1.1,0,2.2,0.5,2.9,1.4
			l-0.6,0.6c-0.5-0.7-1.4-1.2-2.2-1.2c-1.6,0-2.9,1.3-2.9,2.9c0,1.5,1.2,2.9,2.8,2.9c1.1,0,2.3-1,2.3-2.1h-1.8V9.3H34.9z"/>
		<path class="st2" d="M40.2,12.9h-1.1l-2.1-3h-0.4v3h-0.9V5.7h1.1c0.6,0,1.3,0,1.9,0.3c0.6,0.4,0.9,1,0.9,1.7c0,1-0.7,1.9-1.7,2
			L40.2,12.9z M36.7,9.1h0.3c0.9,0,1.9-0.2,1.9-1.3c0-1.1-1.1-1.3-1.9-1.3h-0.2V9.1z"/>
		<path class="st2" d="M41.9,11.1l-0.8,1.8h-1l3.4-7.4l3.4,7.4h-1l-0.8-1.8H41.9z M43.6,7.4l-1.3,2.9h2.5L43.6,7.4z"/>
		<path class="st2" d="M49.8,5.7v4.5c0,1.4-0.3,2.8-1.9,2.8c-0.4,0-0.8-0.1-1.1-0.3l0.4-0.8c0.2,0.2,0.5,0.2,0.7,0.2
			c1,0,1-1.2,1-1.9V5.7H49.8z"/>
		<path class="st2" d="M55.7,12.9h-0.9V6.6h-1.7V5.7h4.3v0.8h-1.7V12.9z"/>
		<path class="st2" d="M58.1,5.7h3.8v0.8H59v2h2.9v0.8H59v2.7h2.9v0.8h-3.8V5.7z"/>
		<path class="st2" d="M67.5,12.9h-1.1l-2.1-3h-0.4v3H63V5.7h1.1c0.6,0,1.3,0,1.9,0.3c0.6,0.4,0.9,1,0.9,1.7c0,1-0.7,1.9-1.7,2
			L67.5,12.9z M63.9,9.1h0.3c0.9,0,1.9-0.2,1.9-1.3c0-1.1-1.1-1.3-1.9-1.3h-0.2V9.1z"/>
		<path class="st2" d="M69.2,11.1l-0.8,1.8h-1l3.4-7.4l3.4,7.4h-1l-0.8-1.8H69.2z M70.8,7.4l-1.3,2.9h2.5L70.8,7.4z"/>
		<path class="st2" d="M79.3,12.1v0.8h-5.1l3.6-6.3h-3.1V5.7h4.6l-3.6,6.3H79.3z"/>
		<path class="st2" d="M82.7,5.4l5.4,5.6V5.7H89v7.4l-5.4-5.6v5.3h-0.9V5.4z"/>
		<path class="st2" d="M91.3,11.1l-0.8,1.8h-1l3.4-7.4l3.4,7.4h-1l-0.8-1.8H91.3z M92.9,7.4l-1.3,2.9h2.5L92.9,7.4z"/>
	</g>
</g>
<g id="PTBR" class="st3">
	<g id="SNIPE_7_" class="st4">
		<path class="st1" d="M135,14.7v18.6c0,0,0,0.1,0,0.3v1.2L100.2,0h20.1L135,14.7z"/>
	</g>
	<g class="st4">
		<path d="M117.7,5.3l-1.6,1.8L114.3,9l-0.7-0.7l5-5l0.6,0.6l-2.6,5l0,0l1.9-2.2l1.8-1.8l0.7,0.7l-5,5l-0.6-0.6L118,5l0,0L117.7,5.3
			z"/>
		<path d="M122.1,11.8c-0.9,0.9-2.6,2.6-3.9,1.3s0.4-3,1.3-3.9c0.9-0.9,2.6-2.6,3.9-1.3S123,10.9,122.1,11.8z M120.2,9.9
			c-1.1,1.1-1.9,2-1.4,2.6c0.5,0.5,1.5-0.3,2.6-1.4s1.9-2,1.4-2.6C122.2,8,121.3,8.8,120.2,9.9z"/>
		<path d="M125.9,10.6l-3.2,4.4l0,0l0.3-0.3l2-1.4l2.1-1.5l0.6,0.6l-6,4.1l-0.5-0.5l4.1-6L125.9,10.6z"/>
		<path d="M128.5,18.2c-0.9,0.9-2.6,2.6-3.9,1.3c-1.3-1.3,0.4-3,1.3-3.9c0.9-0.9,2.6-2.6,3.9-1.3C131.1,15.6,129.4,17.3,128.5,18.2z
			 M126.6,16.3c-1.1,1.1-1.9,2-1.4,2.6c0.5,0.5,1.5-0.3,2.6-1.4s1.9-2,1.4-2.6C128.7,14.4,127.7,15.2,126.6,16.3z"/>
		<path d="M127.4,21.4c0.2-0.2,0.6-0.2,0.8,0c0.2,0.2,0.2,0.6,0,0.8c-0.2,0.2-0.6,0.2-0.8,0C127.2,22,127.2,21.7,127.4,21.4z
			 M132.8,17.5l-3.8,3.8l-0.7-0.7l3.8-3.8L132.8,17.5z"/>
	</g>
	<g class="st4">
		<path class="st2" d="M28,9.3c0,2.1-1.7,3.7-3.7,3.7c-2.1,0-3.7-1.6-3.7-3.7c0-2,1.7-3.7,3.7-3.7S28,7.3,28,9.3z M27.1,9.3
			c0-1.6-1.2-2.9-2.9-2.9s-2.9,1.3-2.9,2.9c0,1.6,1.3,2.9,2.9,2.9S27.1,10.9,27.1,9.3z"/>
		<path class="st2" d="M28.8,5.7h0.9c1.3,0,2.6,0.4,2.6,2c0,0.5-0.3,1.1-0.8,1.4v0c0.8,0.2,1.4,1,1.4,1.8c0,1.4-1.2,2-2.5,2h-1.7
			V5.7z M29.7,8.9h0.2c0.8,0,1.5-0.2,1.5-1.2c0-1-0.7-1.2-1.5-1.2h-0.2V8.9z M29.7,12.1h0.7c0.8,0,1.7-0.2,1.7-1.3
			c0-1-1-1.2-1.8-1.2h-0.5V12.1z"/>
		<path class="st2" d="M35.9,12.9H35V6.6h-1.7V5.7h4.3v0.8h-1.7V12.9z"/>
		<path class="st2" d="M38.3,5.7h3.8v0.8h-2.9v2h2.9v0.8h-2.9v2.7h2.9v0.8h-3.8V5.7z"/>
		<path class="st2" d="M43.2,5.4l5.4,5.6V5.7h0.9v7.4L44,7.6v5.3h-0.9V5.4z"/>
		<path class="st2" d="M54.9,8.6V5.7h0.9v7.1h-0.9V9.5h-3.4v3.4h-0.9V5.7h0.9v2.9H54.9z"/>
		<path class="st2" d="M58.1,11.1l-0.8,1.8h-1l3.4-7.4l3.4,7.4h-1l-0.8-1.8H58.1z M59.7,7.4l-1.3,2.9H61L59.7,7.4z"/>
		<path class="st2" d="M68.7,5.7v4.5c0,1.4-0.3,2.8-1.9,2.8c-0.4,0-0.8-0.1-1.1-0.3l0.4-0.8c0.2,0.2,0.5,0.2,0.7,0.2
			c1,0,1-1.2,1-1.9V5.7H68.7z"/>
		<path class="st2" d="M70.9,11.1l-0.8,1.8h-1l3.4-7.4l3.4,7.4h-1l-0.8-1.8H70.9z M72.6,7.4l-1.3,2.9h2.5L72.6,7.4z M73.9,3.9
			l-1.6,1.4L72,5l1.2-1.6L73.9,3.9z"/>
		<path class="st2" d="M79.3,5.7h3.8v0.8h-2.9v2h2.9v0.8h-2.9v2.7h2.9v0.8h-3.8V5.7z"/>
		<path class="st2" d="M85.5,8.2L85.5,8.2l-0.9,4.7h-0.9l1.5-7.4l2.5,5.6l2.5-5.6l1.5,7.4h-0.9l-0.8-4.7h0L87.6,13L85.5,8.2z"/>
	</g>
</g>
<g id="RU" class="st3">
	<g id="SNIPE_8_" class="st4">
		<path class="st1" d="M135,14.7v18.6c0,0,0,0.1,0,0.3v1.2L100.2,0h20.1L135,14.7z"/>
	</g>
	<g class="st4">
		<path d="M114.6,1.3l-1.8,1.8l0.7,0.7l1.8-1.8l0.7,0.7l-4.5,4.5l-0.7-0.7l1.9-1.9L112,3.9l-1.9,1.9l-0.7-0.7l4.5-4.5L114.6,1.3z"/>
		<path d="M116.7,7.7c-1.7,1.7-2.8,1.9-3.5,1.3c-0.8-0.8,0-2.2,1.2-3.4c1.2-1.2,2.7-1.9,3.4-1.2C118.7,5.2,117.7,6.7,116.7,7.7z
			 M115.1,6.3c-1,1-1.4,1.7-1.1,2c0.3,0.3,1.1-0.3,2-1.2c0.8-0.8,1.4-1.6,1.1-1.9C116.8,4.9,116.1,5.3,115.1,6.3z"/>
		<path d="M119.5,6.3c0.3,0.1,0.6,0.4,0.9,0.7c0.3,0.3,0.6,0.7,0.6,1.2c0,0.4-0.2,0.8-0.6,1.1c-0.4,0.4-0.9,0.6-1.5,0.5l0,0
			c0.3,0.5,0,1.2-0.5,1.7c-0.4,0.4-0.8,0.6-1.1,0.6c-0.5,0.1-1-0.1-1.6-0.7c-0.3-0.3-0.5-0.5-0.6-0.7L119.5,6.3z M116.4,10.7
			c0,0.1,0.1,0.1,0.1,0.2c0.3,0.3,0.7,0.3,1.2-0.2c0.4-0.4,0.4-0.9,0.2-1.2l-0.1-0.1L116.4,10.7z M118.4,8.7l0.1,0.1
			c0.2,0.2,0.7,0.2,1.1-0.2c0.3-0.3,0.5-0.7,0.2-1c-0.1-0.1-0.1-0.1-0.2-0.1L118.4,8.7z"/>
		<path d="M122.9,9.6l-1,1c-0.8,0.8-1.6,1.6-2.1,2l0,0c0.5-0.3,1.2-0.7,1.7-0.9l2.3-1.2l0.6,0.6l-4.5,4.5l-0.6-0.6l1-1
			c0.9-0.9,1.6-1.5,2.1-2l0,0c-0.5,0.3-1.2,0.7-1.7,1l-2.2,1.2l-0.6-0.6l4.5-4.5L122.9,9.6z"/>
		<path d="M125.9,12.5l-1.8,1.8l0.7,0.7l1.8-1.8l0.7,0.7l-4.5,4.5l-0.7-0.7l1.9-1.9l-0.7-0.7l-1.9,1.9l-0.7-0.7l4.5-4.5L125.9,12.5z
			"/>
		<path d="M128.1,14.8l0.7,0.7l-2,2l0,0c0.2-0.1,0.5-0.3,0.8-0.4l1.9-1l0.7,0.7l-2.7,1.2l-1.8,3.3l-0.7-0.7l1.4-2.4l-0.5,0.2
			l-1.5,1.5l-0.7-0.7L128.1,14.8z"/>
		<path d="M127.8,21.4l-1.2,0.9l-0.7-0.7l5.3-3.8l0.8,0.8l-3.8,5.2l-0.7-0.7l0.9-1.2L127.8,21.4z M129,21.3l0.8-1.1
			c0.2-0.3,0.6-0.8,0.9-1.1l0,0c-0.3,0.3-0.9,0.7-1.2,0.9l-1.1,0.8L129,21.3z"/>
		<path d="M129.2,23.9c0.3-0.3,0.7-0.4,0.9-0.2c0.2,0.2,0.2,0.6-0.2,0.9c-0.3,0.3-0.7,0.4-0.9,0.2C128.9,24.6,128.9,24.2,129.2,23.9
			z M130.3,23l3-3.1l0.7,0.7l-3.1,3L130.3,23z"/>
	</g>
	<g class="st4">
		<g>
			<path class="st2" d="M23,10.6c0,0.5-0.2,1-0.6,1.3c-0.4,0.3-0.9,0.5-1.5,0.5c-0.6,0-1.2-0.1-1.5-0.3v-0.7c0.4,0.3,1,0.5,1.5,0.5
				c0.4,0,0.7-0.1,1-0.3c0.2-0.2,0.4-0.5,0.4-0.8c0-0.7-0.5-1.1-1.5-1.1h-0.6V8.9h0.5c0.4,0,0.8-0.1,1-0.3s0.4-0.4,0.4-0.8
				c0-0.3-0.1-0.5-0.3-0.7C21.6,7,21.4,6.9,21,6.9c-0.5,0-0.9,0.2-1.4,0.5V6.7c0.4-0.2,0.9-0.4,1.5-0.4c0.5,0,1,0.1,1.3,0.4
				c0.3,0.3,0.5,0.6,0.5,1c0,0.7-0.4,1.2-1.1,1.4v0c0.4,0,0.7,0.2,0.9,0.4C22.9,9.9,23,10.2,23,10.6z"/>
		</g>
		<g>
			<path class="st2" d="M28.7,12.2H28l-0.6-1.6h-2.4l-0.6,1.6h-0.7l2.2-5.8h0.7L28.7,12.2z M27.1,10l-0.9-2.4c0-0.1-0.1-0.2-0.1-0.4
				h0c0,0.2-0.1,0.3-0.1,0.4L25.1,10H27.1z"/>
		</g>
		<g>
			<path class="st2" d="M32.5,7.1h-2.3v5.1h-0.7V6.4h3V7.1z"/>
		</g>
		<g>
			<path class="st2" d="M36.9,8.2c0,0.6-0.2,1-0.6,1.3c-0.4,0.3-0.9,0.5-1.5,0.5h-0.8v2.2h-0.7V6.4H35c0.6,0,1.1,0.2,1.4,0.5
				C36.7,7.2,36.9,7.6,36.9,8.2z M36.2,8.2c0-0.8-0.4-1.1-1.3-1.1h-0.8v2.4h0.7c0.5,0,0.8-0.1,1.1-0.3C36.1,8.9,36.2,8.6,36.2,8.2z"
				/>
		</g>
		<g>
			<path class="st2" d="M41.8,6.4l-1.8,4c-0.2,0.5-0.4,0.8-0.6,1.1c-0.2,0.2-0.4,0.4-0.6,0.6c-0.2,0.1-0.4,0.2-0.7,0.2
				c-0.3,0-0.5,0-0.7-0.1v-0.7c0.2,0.1,0.4,0.2,0.7,0.2c0.2,0,0.4-0.1,0.6-0.2c0.2-0.2,0.4-0.5,0.6-0.9l-1.9-4.1h0.8l1.4,3.1
				l0.1,0.4h0l1.4-3.4H41.8z"/>
		</g>
		<g>
			<path class="st2" d="M45.8,10.6c0,0.5-0.2,1-0.6,1.3c-0.4,0.3-0.9,0.5-1.5,0.5c-0.6,0-1.2-0.1-1.5-0.3v-0.7
				c0.4,0.3,1,0.5,1.5,0.5c0.4,0,0.7-0.1,1-0.3c0.2-0.2,0.4-0.5,0.4-0.8c0-0.7-0.5-1.1-1.5-1.1H43V8.9h0.5c0.4,0,0.8-0.1,1-0.3
				s0.4-0.4,0.4-0.8c0-0.3-0.1-0.5-0.3-0.7c-0.2-0.2-0.5-0.3-0.8-0.3c-0.5,0-0.9,0.2-1.4,0.5V6.7c0.4-0.2,0.9-0.4,1.5-0.4
				c0.5,0,1,0.1,1.3,0.4c0.3,0.3,0.5,0.6,0.5,1c0,0.7-0.4,1.2-1.1,1.4v0c0.4,0,0.7,0.2,0.9,0.4C45.7,9.9,45.8,10.2,45.8,10.6z"/>
		</g>
		<g>
			<path class="st2" d="M47,6.4h0.7v4.1c0,0.4,0,0.7,0,0.8h0l0.1-0.2l3-4.7h0.9v5.8h-0.7V8c0-0.4,0-0.7,0-0.8h0
				c-0.1,0.1-0.1,0.3-0.2,0.4l-3,4.6H47V6.4z"/>
		</g>
		<g>
			<path class="st2" d="M56.5,7.1h-1.7v5.1h-0.7V7.1h-1.7V6.4h4V7.1z"/>
		</g>
		<g>
			<path class="st2" d="M60.5,12.2h-3V6.4h2.9v0.6h-2.2V9h2.1v0.6h-2.1v2h2.4V12.2z"/>
		</g>
		<g>
			<path class="st2" d="M63.5,6.4h0.7v4.1c0,0.4,0,0.7,0,0.8h0l0.1-0.2l3-4.7h0.9v5.8h-0.7V8c0-0.4,0-0.7,0-0.8h0
				c-0.1,0.1-0.1,0.3-0.2,0.4l-3,4.6h-0.8V6.4z"/>
		</g>
		<g>
			<path class="st2" d="M72.7,7.1h-2.3v5.1h-0.7V6.4h3V7.1z"/>
		</g>
		<g>
			<path class="st2" d="M77,8.2c0,0.6-0.2,1-0.6,1.3C76,9.8,75.5,10,74.9,10h-0.8v2.2h-0.7V6.4h1.6c0.6,0,1.1,0.2,1.4,0.5
				C76.8,7.2,77,7.6,77,8.2z M76.3,8.2c0-0.8-0.4-1.1-1.3-1.1h-0.8v2.4h0.7c0.5,0,0.8-0.1,1.1-0.3C76.2,8.9,76.3,8.6,76.3,8.2z"/>
		</g>
		<g>
			<path class="st2" d="M81.9,6.4l-1.8,4c-0.2,0.5-0.4,0.8-0.6,1.1c-0.2,0.2-0.4,0.4-0.6,0.6c-0.2,0.1-0.4,0.2-0.7,0.2
				c-0.3,0-0.5,0-0.7-0.1v-0.7c0.2,0.1,0.4,0.2,0.7,0.2c0.2,0,0.4-0.1,0.6-0.2c0.2-0.2,0.4-0.5,0.6-0.9l-1.9-4.1h0.8l1.4,3.1
				l0.1,0.4h0l1.4-3.4H81.9z"/>
		</g>
		<g>
			<path class="st2" d="M88.9,12.2h-0.7V9.6h-3v2.6h-0.7V6.4h0.7V9h3V6.4h0.7V12.2z"/>
		</g>
		<g>
			<path class="st2" d="M94.9,12.2h-0.7l-0.6-1.6h-2.4l-0.6,1.6h-0.7l2.2-5.8h0.7L94.9,12.2z M93.3,10l-0.9-2.4
				c0-0.1-0.1-0.2-0.1-0.4h0c0,0.2-0.1,0.3-0.1,0.4L91.3,10H93.3z"/>
		</g>
	</g>
</g>
<g id="DE" class="st3">
	<g id="SNIPE" class="st4">
		<path class="st1" d="M135,14.7v18.6c0,0,0,0.1,0,0.3v1.2L100.2,0h20.1L135,14.7z"/>
	</g>
	<g class="st4">
		<path d="M119.6,7.3L118,9.1l-1.8,1.9l-0.7-0.7l5-5l0.6,0.6l-2.6,5l0,0l1.9-2.2l1.8-1.8l0.7,0.7l-5,5l-0.6-0.6l2.7-5.1l0,0
			L119.6,7.3z"/>
		<path d="M125.8,10.5l-0.6,0.6l-1.1-1.1l-1.6,1.6l1,1l-0.6,0.6l-1-1l-1.7,1.7l1.1,1.1l-0.6,0.6l-1.8-1.8l5-5L125.8,10.5z"/>
		<path d="M127.4,12l-3.7,3.7c-0.6,0.6-0.6,1-0.3,1.2c0.5,0.5,0.8,0.2,1.2-0.2l3.8-3.8l0.7,0.7l-3.6,3.6c-0.7,0.7-1.5,1.5-2.7,0.4
			c-1.1-1.1-0.4-1.9,0.5-2.8l3.5-3.5L127.4,12z"/>
		<path d="M125.5,19.5c0.2-0.2,0.6-0.2,0.8,0c0.2,0.2,0.2,0.6,0,0.8c-0.2,0.2-0.6,0.2-0.8,0C125.3,20.1,125.3,19.7,125.5,19.5z
			 M130.9,15.6l-3.8,3.8l-0.7-0.7l3.8-3.8L130.9,15.6z"/>
	</g>
	<g class="st4">
		<path class="st2" d="M37.6,5.7v4.5c0,1.4-0.3,2.8-1.9,2.8c-0.4,0-0.8-0.1-1.1-0.3L35,12c0.2,0.2,0.5,0.2,0.7,0.2c1,0,1-1.2,1-1.9
			V5.7H37.6z"/>
		<path class="st2" d="M38.9,5.7h3.8v0.8h-2.9v2h2.9v0.8h-2.9v2.7h2.9v0.8h-3.8V5.7z"/>
		<path class="st2" d="M45.7,12.9h-0.9V6.6h-1.7V5.7h4.3v0.8h-1.7V12.9z"/>
		<path class="st2" d="M52.6,12.1v0.8h-5.1l3.6-6.3h-3.1V5.7h4.6L49,12.1H52.6z"/>
		<path class="st2" d="M55.3,12.9h-0.9V6.6h-1.7V5.7H57v0.8h-1.7V12.9z"/>
		<path class="st2" d="M61.5,11.1l-0.8,1.8h-1l3.4-7.4l3.4,7.4h-1l-0.8-1.8H61.5z M63.1,7.4l-1.3,2.9h2.5L63.1,7.4z"/>
		<path class="st2" d="M67.9,5.7V10c0,1.2,0.4,2.2,1.7,2.2c1.4,0,1.7-1.1,1.7-2.2V5.7h0.9v4.5c0,1.6-1,2.8-2.6,2.8
			C68,13,67,11.8,67,10.3V5.7H67.9z"/>
		<path class="st2" d="M74.3,6.6v2h2.5v0.8h-2.5v3.5h-0.9V5.7h3.5v0.8H74.3z"/>
	</g>
</g>
<g class="st3">
	<path class="st4" d="M118,5.4l-1.7,1.9l-2,2l-0.7-0.7l5.4-5.4l0.7,0.7l-2.9,5.4l0,0l2-2.4l1.9-1.9l0.7,0.7l-5.4,5.4l-0.7-0.7
		l2.9-5.5l0,0L118,5.4z"/>
	<path class="st4" d="M124.7,8.9l-0.6,0.6l-1.2-1.2l-1.7,1.7l1.1,1.1l-0.6,0.6l-1.1-1.1l-1.8,1.8l1.2,1.2l-0.6,0.6l-1.9-1.9l5.4-5.4
		L124.7,8.9z"/>
	<path class="st4" d="M125.9,10.1l-3.2,4.2l-0.4,0.4l0,0l2-1.6l2.6-1.9l0.6,0.6l-3.5,4.6l0,0l1.9-1.6l2.6-2l0.7,0.7l-6.4,4.5
		l-0.6-0.6l2.1-2.9l1.2-1.5l0.1-0.1l0,0l-1.6,1.3l-3,2.1l-0.6-0.6l4.5-6.4L125.9,10.1z"/>
	<path class="st4" d="M125.2,19.5c0.2-0.2,0.6-0.2,0.9,0c0.2,0.2,0.2,0.6,0,0.9c-0.2,0.2-0.6,0.2-0.9,0
		C125,20.1,125,19.8,125.2,19.5z M131.1,15.3l-4.1,4.1l-0.7-0.7l4.1-4.1L131.1,15.3z"/>
</g>
<g>
	<g>
		<g>
			<g>
				<g>
					<g>
						<g>
							<g>
								<g>
									<g>
										<g>
											<g>
												<polygon class="st2" points="94.5,30.6 94.1,30.6 94.1,30.5 95,30.5 95,30.6 94.7,30.6 94.7,31.7 94.5,31.7 
																									"/>
											</g>
										</g>
									</g>
								</g>
							</g>
						</g>
					</g>
				</g>
				<g>
					<g>
						<g>
							<g>
								<g>
									<g>
										<g>
											<g>
												<polygon class="st2" points="95.6,31.7 95.3,30.7 95.3,31.7 95.2,31.7 95.2,30.5 95.4,30.5 95.7,31.5 96,30.5 
													96.3,30.5 96.3,31.7 96.1,31.7 96.1,30.7 95.8,31.7 												"/>
											</g>
										</g>
									</g>
								</g>
							</g>
						</g>
					</g>
				</g>
			</g>
		</g>
		<g>
			<g>
				<g>
					<g>
						<g>
							<g>
								<g>
									<g>
										<g>
											<g>
												<g>
													<path class="st2" d="M77.3,21.5l-6.6,0c-1.9,0-2.9,1.2-2.9,2.7v4.7c0,1-0.5,1.6-1.4,1.6h-6.2c0,0-0.1,0-0.1,0.1v0.9
														c0,0,0,0.1,0.1,0.1h6.9c1.9,0,2.9-1.2,2.9-2.7v-4.7c0-1,0.5-1.6,1.4-1.6h5.9c0,0,0.1,0,0.1-0.1L77.3,21.5
														C77.4,21.6,77.3,21.5,77.3,21.5"/>
												</g>
											</g>
										</g>
									</g>
								</g>
							</g>
						</g>
					</g>
					<g>
						<g>
							<g>
								<g>
									<g>
										<g>
											<g>
												<g>
													<path class="st2" d="M57.7,21.5l-12,0c0,0-0.1,0-0.1,0.1v0.9c0,0,0,0.1,0.1,0.1H57c1,0,1.4,0.7,1.4,1.6
														c0,1-0.5,1.6-1.4,1.6h-8.9c-1.4,0-2.4,1.2-2.4,2.7l0,3c0,0,0,0.1,0.1,0.1h2c0,0,0.1,0,0.1-0.1v-3c0-1,0.6-1.6,1.3-1.6
														h8.5c1.9,0,2.9-1.2,2.9-2.7C60.6,22.7,59.7,21.5,57.7,21.5"/>
												</g>
											</g>
										</g>
									</g>
								</g>
							</g>
						</g>
					</g>
					<g>
						<g>
							<g>
								<g>
									<g>
										<g>
											<g>
												<g>
													<path class="st2" d="M93,29.5l-2.1,0H91c0,0-0.1,0-0.1-0.1v-6.8c0-1-0.7-1.4-1.7-0.8L77,29.3c-0.5,0.3-0.6,0.6-0.5,0.9
														c0.1,0.2,0.4,0.4,0.9,0.4l11.3,0c0,0,0.1,0,0.1,0.1v1c0,0,0,0.1,0.1,0.1h2c0,0,0.1,0,0.1-0.1v-0.9c0,0,0-0.1,0.1-0.1h2
														c0,0,0.1,0,0.1-0.1L93,29.5C93.1,29.5,93,29.5,93,29.5 M88.7,29.4C88.7,29.5,88.7,29.5,88.7,29.4l-9.6,0.1
														c-0.1,0-0.1,0-0.1,0c0,0,0-0.1,0.1-0.1l9.5-5.8c0.1,0,0.2,0,0.2,0.1V29.4z"/>
												</g>
											</g>
										</g>
									</g>
								</g>
							</g>
						</g>
					</g>
				</g>
			</g>
		</g>
	</g>
	<g>
		<g>
			<g>
				<g>
					<g>
						<g>
							<g>
								<g>
									<g>
										<g>
											<g>
												<path class="st2" d="M25.3,17.6V33l3.5,1.1V21.2c0-0.6,0.3-1,0.7-0.9c0.6,0.2,0.7,0.7,0.7,1.3v5.1c2.2,1,3.9,0,3.9-2.8
													c0-2.8-1-4.1-3.9-5.1C28.9,18.6,26.8,17.9,25.3,17.6z"/>
											</g>
										</g>
									</g>
								</g>
							</g>
						</g>
					</g>
				</g>
				<g>
					<g>
						<g>
							<g>
								<g>
									<g>
										<g>
											<g>
												<path class="st2" d="M29.4,31.8l5.6-2c0.6-0.2,0.7-0.5,0.2-0.7c-0.5-0.2-1.4-0.1-2.1,0.1l-3.7,1.3v-2.1l0.2-0.1
													c0,0,1.1-0.4,2.6-0.5c1.5-0.2,3.4,0,4.8,0.6c1.6,0.5,1.8,1.3,1.4,1.8C38,30.7,37,31.1,37,31.1l-7.6,2.7V31.8z"/>
											</g>
										</g>
									</g>
								</g>
							</g>
						</g>
					</g>
				</g>
				<g>
					<g>
						<g>
							<g>
								<g>
									<g>
										<g>
											<g>
												<path class="st2" d="M18.9,31.6c-1.7-0.5-2-1.5-1.2-2c0.7-0.5,1.9-0.9,1.9-0.9l5-1.8v2L21,30.2
													c-0.6,0.2-0.7,0.5-0.2,0.7c0.5,0.2,1.4,0.1,2.1-0.1l1.7-0.6V32c-0.1,0-0.2,0-0.3,0.1C22.6,32.3,20.7,32.2,18.9,31.6"/>
											</g>
										</g>
									</g>
								</g>
							</g>
						</g>
					</g>
				</g>
				<g>
					<g>
						<g>
							<g>
								<g>
									<g>
										<g>
											<g>
												<path class="st2" d="M36.6,33.2c0-0.2,0.1-0.3,0.2-0.5c0.1-0.1,0.3-0.2,0.5-0.2c0.2,0,0.3,0.1,0.5,0.2
													c0.1,0.1,0.2,0.3,0.2,0.5c0,0.4-0.3,0.7-0.7,0.7c-0.2,0-0.4-0.1-0.5-0.2C36.7,33.6,36.6,33.4,36.6,33.2z M37.3,34
													c0.2,0,0.4-0.1,0.6-0.2c0.2-0.2,0.2-0.4,0.2-0.6c0-0.2-0.1-0.4-0.2-0.6c-0.2-0.2-0.4-0.2-0.6-0.2
													c-0.4,0-0.8,0.4-0.8,0.8c0,0.2,0.1,0.4,0.2,0.6C36.9,34,37.1,34,37.3,34"/>
											</g>
										</g>
									</g>
								</g>
							</g>
						</g>
					</g>
				</g>
				<g>
					<g>
						<g>
							<g>
								<g>
									<g>
										<g>
											<g>
												<path class="st2" d="M37.5,33c0,0.1,0,0.1,0,0.1c0,0-0.1,0-0.1,0h-0.3v-0.3h0.3c0,0,0.1,0,0.1,0
													C37.5,32.9,37.5,33,37.5,33z M37.7,33.6C37.7,33.6,37.7,33.6,37.7,33.6c0-0.1,0-0.1,0-0.1l0-0.1c0-0.1,0-0.1,0-0.1
													c0,0,0,0-0.1,0c0,0,0.1,0,0.1-0.1c0,0,0-0.1,0-0.1c0-0.1,0-0.2-0.1-0.2c0,0-0.1,0-0.2,0H37h0v0v0.9v0h0h0.1h0v0v-0.4
													h0.2c0,0,0.1,0,0.1,0c0,0,0,0,0,0.1l0,0.1c0,0,0,0.1,0,0.1c0,0,0,0,0,0l0,0h0L37.7,33.6L37.7,33.6L37.7,33.6L37.7,33.6
													L37.7,33.6L37.7,33.6"/>
											</g>
										</g>
									</g>
								</g>
							</g>
						</g>
					</g>
				</g>
			</g>
		</g>
	</g>
</g>
</svg>
