<?xml version="1.0" encoding="utf-8"?>
<!-- Generator: Adobe Illustrator 16.0.4, SVG Export Plug-In . SVG Version: 6.00 Build 0)  -->
<!DOCTYPE svg PUBLIC "-//W3C//DTD SVG 1.1//EN" "http://www.w3.org/Graphics/SVG/1.1/DTD/svg11.dtd">
<svg version="1.1" id="Layer_1" xmlns:sketch="http://www.bohemiancoding.com/sketch/ns"
	 xmlns="http://www.w3.org/2000/svg" xmlns:xlink="http://www.w3.org/1999/xlink" x="0px" y="0px" width="136.125px"
	 height="40.501px" viewBox="1.875 0 136.125 40.501" enable-background="new 1.875 0 136.125 40.501" xml:space="preserve">
<title>button_appstore_windows</title>
<desc>Created with Sketch.</desc>
<path fill="#A6A6A6" d="M132.072,40H6.604c-2.607,0-4.729-2.128-4.729-4.732V4.726C1.875,2.12,3.997,0,6.604,0h125.468
	c2.606,0,4.803,2.12,4.803,4.726v30.542C136.875,37.872,134.678,40,132.072,40L132.072,40z"/>
<path d="M135.907,35.268c0,2.116-1.714,3.83-3.834,3.83H6.604c-2.119,0-3.839-1.714-3.839-3.83V4.725
	c0-2.115,1.72-3.835,3.839-3.835h125.468c2.121,0,3.834,1.72,3.834,3.835L135.907,35.268L135.907,35.268z"/>
<g>
	<polygon fill="#FFFFFF" points="10.923,20.699 10.923,27.867 19.584,29.08 19.584,20.735 	"/>
	<polygon fill="#FFFFFF" points="19.584,11.423 10.923,12.704 10.923,19.79 19.584,19.753 	"/>
	<polygon fill="#FFFFFF" points="32.103,19.702 32.103,9.573 20.598,11.273 20.598,19.75 	"/>
	<polygon fill="#FFFFFF" points="20.598,29.223 32.103,30.834 32.103,20.787 20.598,20.74 	"/>
</g>
<g>
	<g transform="translate(-1 -1190)" sketch:type="MSLayerGroup">
		<g sketch:type="MSShapeGroup">
			<path fill="#FFFFFF" fill-opacity="0.5" d="M103.059,1206.179h-0.752v-2.705c0-0.528-0.08-0.906-0.24-1.134
				c-0.161-0.229-0.43-0.343-0.809-0.343c-0.321,0-0.593,0.146-0.817,0.442c-0.224,0.294-0.336,0.645-0.336,1.053v2.688h-0.751
				v-2.796c0-0.924-0.355-1.385-1.067-1.385c-0.33,0-0.601,0.139-0.815,0.416c-0.214,0.278-0.321,0.637-0.321,1.078v2.688H96.4
				v-4.71h0.751v0.745h0.019c0.333-0.573,0.816-0.859,1.452-0.859c0.305,0,0.58,0.085,0.824,0.258
				c0.245,0.171,0.414,0.412,0.509,0.722c0.348-0.653,0.867-0.979,1.557-0.979c1.032,0,1.548,0.641,1.548,1.923L103.059,1206.179
				L103.059,1206.179L103.059,1206.179z M94.468,1203.833c0-0.592-0.131-1.046-0.392-1.362c-0.261-0.316-0.633-0.474-1.119-0.474
				c-0.482,0-0.865,0.162-1.146,0.485c-0.281,0.324-0.421,0.78-0.421,1.368c0,0.565,0.141,1.005,0.424,1.323
				c0.282,0.318,0.663,0.476,1.143,0.476c0.488,0,0.862-0.157,1.122-0.468C94.337,1204.868,94.468,1204.419,94.468,1203.833
				L94.468,1203.833z M95.237,1203.805c0,0.749-0.212,1.35-0.634,1.806c-0.423,0.455-0.99,0.684-1.702,0.684
				c-0.693,0-1.247-0.222-1.66-0.666c-0.413-0.443-0.62-1.027-0.62-1.751c0-0.778,0.212-1.394,0.636-1.846
				c0.425-0.453,1.01-0.679,1.754-0.679c0.696,0,1.241,0.218,1.635,0.655C95.04,1202.446,95.237,1203.044,95.237,1203.805
				L95.237,1203.805z M90.28,1202.232c-0.135-0.101-0.326-0.152-0.574-0.152c-0.333,0-0.603,0.157-0.81,0.472
				c-0.208,0.314-0.312,0.723-0.312,1.226v2.402h-0.751v-4.711h0.751v0.971h0.018c0.104-0.325,0.264-0.582,0.48-0.771
				c0.217-0.188,0.465-0.283,0.747-0.283c0.196,0,0.345,0.021,0.449,0.063v0.782H90.28z M87.216,1199.868
				c-0.146-0.083-0.312-0.124-0.5-0.124c-0.524,0-0.787,0.333-0.787,0.998v0.727h1.099v0.639h-1.099v4.072h-0.751v-4.072h-0.796
				v-0.639h0.796v-0.764c0-0.478,0.14-0.865,0.422-1.159c0.281-0.294,0.638-0.442,1.071-0.442c0.229,0,0.411,0.027,0.545,0.083
				V1199.868L87.216,1199.868z M80.443,1204.049v-0.695c0-0.389-0.129-0.712-0.388-0.97c-0.257-0.257-0.571-0.386-0.941-0.386
				c-0.452,0-0.81,0.167-1.076,0.503c-0.265,0.335-0.398,0.801-0.398,1.396c0,0.539,0.125,0.967,0.376,1.281
				c0.25,0.314,0.587,0.471,1.012,0.471c0.413,0,0.751-0.15,1.017-0.451C80.31,1204.898,80.443,1204.516,80.443,1204.049
				L80.443,1204.049L80.443,1204.049z M81.194,1206.179h-0.75v-0.8h-0.019c-0.348,0.61-0.886,0.916-1.612,0.916
				c-0.591,0-1.063-0.215-1.415-0.643c-0.352-0.428-0.527-0.999-0.527-1.713c0-0.78,0.196-1.404,0.584-1.877
				c0.39-0.473,0.911-0.708,1.564-0.708c0.641,0,1.11,0.254,1.406,0.763h0.019v-2.912h0.75V1206.179L81.194,1206.179z
				 M75.062,1203.797l-1.136,0.161c-0.388,0.055-0.659,0.148-0.815,0.278c-0.156,0.131-0.234,0.341-0.234,0.633
				c0,0.235,0.083,0.425,0.252,0.567c0.167,0.142,0.383,0.214,0.646,0.214c0.373,0,0.68-0.132,0.923-0.396
				c0.242-0.264,0.364-0.593,0.364-0.989V1203.797L75.062,1203.797z M75.813,1206.179h-0.75v-0.736h-0.018
				c-0.327,0.567-0.808,0.852-1.443,0.852c-0.451,0-0.813-0.124-1.085-0.372c-0.271-0.247-0.407-0.579-0.407-0.996
				c0-0.877,0.516-1.389,1.547-1.537l1.407-0.197c0-0.797-0.322-1.195-0.966-1.195c-0.565,0-1.075,0.191-1.529,0.575v-0.773
				c0.137-0.105,0.372-0.205,0.705-0.301c0.333-0.097,0.629-0.145,0.889-0.145c1.102,0,1.653,0.586,1.653,1.762v3.063H75.813z
				 M70.56,1203.833c0-0.592-0.13-1.046-0.392-1.362c-0.261-0.316-0.633-0.473-1.119-0.473c-0.482,0-0.865,0.161-1.145,0.485
				c-0.281,0.324-0.422,0.78-0.422,1.368c0,0.564,0.142,1.005,0.423,1.323c0.283,0.318,0.664,0.476,1.144,0.476
				c0.488,0,0.862-0.157,1.122-0.468C70.431,1204.869,70.561,1204.419,70.56,1203.833L70.56,1203.833z M71.33,1203.805
				c0,0.749-0.212,1.35-0.634,1.806c-0.423,0.455-0.99,0.684-1.702,0.684c-0.692,0-1.246-0.222-1.659-0.666
				c-0.414-0.443-0.621-1.027-0.621-1.751c0-0.778,0.212-1.394,0.637-1.846c0.424-0.453,1.009-0.679,1.753-0.679
				c0.697,0,1.241,0.218,1.635,0.655C71.133,1202.446,71.33,1203.045,71.33,1203.805L71.33,1203.805z M65.551,1206.179H64.8v-6.974
				h0.751V1206.179z M63.384,1206.179h-0.75v-2.688c0-0.997-0.364-1.494-1.09-1.494c-0.369,0-0.679,0.141-0.927,0.42
				c-0.249,0.28-0.374,0.639-0.374,1.074v2.688h-0.751v-4.711h0.751v0.781h0.019c0.352-0.597,0.864-0.896,1.539-0.896
				c0.516,0,0.91,0.168,1.18,0.506c0.27,0.337,0.405,0.815,0.405,1.435v2.885H63.384z M58.617,1201.468l-1.406,4.711h-0.779
				l-0.966-3.373c-0.033-0.115-0.058-0.259-0.073-0.431h-0.018c-0.009,0.107-0.042,0.249-0.096,0.423l-1.049,3.381h-0.751
				l-1.415-4.711h0.788l0.966,3.542c0.03,0.123,0.052,0.264,0.064,0.423h0.037c0.006-0.116,0.035-0.261,0.086-0.432l1.076-3.534
				h0.688l0.975,3.551c0.031,0.121,0.052,0.261,0.064,0.424h0.036c0.007-0.147,0.032-0.288,0.074-0.424l0.958-3.551h0.741V1201.468
				L58.617,1201.468z M50.778,1203.833c0-0.592-0.131-1.046-0.392-1.362c-0.261-0.316-0.634-0.473-1.119-0.473
				c-0.483,0-0.865,0.161-1.146,0.485c-0.281,0.324-0.421,0.78-0.421,1.368c0,0.564,0.142,1.005,0.424,1.323
				c0.283,0.318,0.664,0.476,1.144,0.476c0.488,0,0.862-0.157,1.121-0.468C50.647,1204.869,50.778,1204.419,50.778,1203.833
				L50.778,1203.833z M51.546,1203.805c0,0.749-0.211,1.35-0.634,1.806c-0.423,0.455-0.99,0.684-1.701,0.684
				c-0.693,0-1.247-0.222-1.66-0.666c-0.414-0.443-0.62-1.027-0.62-1.751c0-0.778,0.212-1.394,0.636-1.846
				c0.424-0.453,1.01-0.679,1.754-0.679c0.696,0,1.241,0.218,1.635,0.655C51.35,1202.446,51.546,1203.045,51.546,1203.805
				L51.546,1203.805z M45.287,1202.816c0-1.69-0.894-2.536-2.679-2.536h-1.026v5.199h0.975c0.867,0,1.539-0.232,2.016-0.697
				C45.049,1204.318,45.287,1203.663,45.287,1202.816z M46.092,1202.798c0,0.671-0.146,1.264-0.439,1.777
				c-0.292,0.513-0.71,0.91-1.25,1.188c-0.54,0.277-1.158,0.416-1.855,0.416h-1.735v-6.597h1.813
				C44.937,1199.582,46.092,1200.654,46.092,1202.798L46.092,1202.798z"/>
			<path fill="#FFFFFF" fill-opacity="0.5" d="M93.993,1218.362c0,0.607-0.232,1.101-0.699,1.48
				c-0.465,0.378-1.085,0.569-1.856,0.569c-0.661,0-1.238-0.142-1.733-0.425v-1.207c0.549,0.449,1.154,0.672,1.814,0.672
				c0.886,0,1.331-0.326,1.331-0.979c0-0.265-0.086-0.481-0.259-0.648c-0.173-0.167-0.567-0.391-1.18-0.675
				c-0.618-0.265-1.056-0.549-1.31-0.853c-0.255-0.304-0.382-0.708-0.382-1.21c0-0.579,0.232-1.063,0.696-1.453
				c0.463-0.387,1.053-0.581,1.767-0.581c0.55,0,1.047,0.109,1.494,0.33v1.129c-0.456-0.333-0.982-0.501-1.583-0.501
				c-0.37,0-0.665,0.092-0.89,0.275c-0.226,0.182-0.338,0.417-0.338,0.706c0,0.311,0.087,0.548,0.259,0.716
				c0.173,0.166,0.531,0.363,1.071,0.591c0.664,0.285,1.13,0.581,1.397,0.892C93.859,1217.501,93.993,1217.892,93.993,1218.362
				L93.993,1218.362L93.993,1218.362z M89.227,1213.223l-2.094,7.017h-1.16l-1.438-5.021c-0.05-0.174-0.087-0.389-0.109-0.645
				h-0.028c-0.014,0.161-0.061,0.37-0.143,0.63l-1.562,5.036h-1.118l-2.108-7.017h1.173l1.438,5.276
				c0.046,0.183,0.078,0.394,0.096,0.63h0.055c0.008-0.173,0.051-0.388,0.129-0.645l1.604-5.262h1.023l1.452,5.29
				c0.044,0.178,0.078,0.388,0.095,0.63h0.054c0.011-0.219,0.047-0.429,0.11-0.63l1.426-5.29L89.227,1213.223L89.227,1213.223z
				 M77.899,1216.746c0-0.882-0.194-1.557-0.583-2.029c-0.389-0.47-0.944-0.706-1.668-0.706c-0.718,0-1.287,0.242-1.704,0.724
				c-0.418,0.482-0.628,1.161-0.628,2.038c0,0.841,0.21,1.497,0.631,1.969c0.42,0.473,0.987,0.71,1.701,0.71
				c0.727,0,1.286-0.233,1.671-0.698C77.707,1218.287,77.899,1217.617,77.899,1216.746L77.899,1216.746z M79.046,1216.704
				c0,1.115-0.314,2.011-0.946,2.689c-0.629,0.679-1.474,1.018-2.533,1.018c-1.031,0-1.856-0.331-2.473-0.99
				c-0.616-0.661-0.924-1.529-0.924-2.607c0-1.161,0.317-2.077,0.949-2.751c0.631-0.675,1.502-1.01,2.612-1.01
				c1.036,0,1.847,0.325,2.435,0.976C78.752,1214.68,79.046,1215.571,79.046,1216.704L79.046,1216.704z M69.668,1217.067v-1.034
				c0-0.58-0.192-1.061-0.577-1.446c-0.384-0.384-0.851-0.576-1.4-0.576c-0.673,0-1.207,0.25-1.603,0.751
				c-0.395,0.5-0.594,1.193-0.594,2.08c0,0.804,0.187,1.439,0.56,1.908c0.373,0.469,0.875,0.703,1.507,0.703
				c0.613,0,1.119-0.224,1.514-0.672C69.471,1218.333,69.668,1217.762,69.668,1217.067L69.668,1217.067z M70.787,1220.24h-1.119
				v-1.192h-0.026c-0.52,0.91-1.319,1.364-2.401,1.364c-0.883,0-1.585-0.318-2.108-0.956c-0.523-0.637-0.784-1.488-0.784-2.551
				c0-1.16,0.289-2.093,0.87-2.796c0.579-0.703,1.355-1.055,2.329-1.055c0.955,0,1.653,0.379,2.094,1.137h0.026v-4.337h1.118
				L70.787,1220.24L70.787,1220.24z M63.025,1220.24h-1.119v-4.001c0-1.484-0.541-2.228-1.622-2.228
				c-0.551,0-1.011,0.209-1.381,0.627c-0.372,0.417-0.557,0.951-0.557,1.6v4.001h-1.118v-7.017h1.118v1.166h0.027
				c0.524-0.891,1.287-1.336,2.292-1.336c0.769,0,1.354,0.251,1.756,0.753c0.402,0.502,0.604,1.215,0.604,2.138V1220.24
				L63.025,1220.24z M55.534,1220.24h-1.119v-7.017h1.119V1220.24z M55.725,1210.916c0,0.21-0.073,0.385-0.218,0.523
				c-0.146,0.14-0.317,0.209-0.519,0.209c-0.205,0-0.377-0.067-0.518-0.202c-0.142-0.136-0.212-0.312-0.212-0.531
				c0-0.196,0.07-0.367,0.209-0.512c0.138-0.143,0.312-0.215,0.521-0.215s0.384,0.071,0.526,0.213
				C55.654,1210.543,55.725,1210.715,55.725,1210.916L55.725,1210.916z M53.506,1210.415l-2.764,9.825H49.4l-2.014-7.187
				c-0.077-0.271-0.125-0.601-0.149-0.993H47.21c-0.036,0.337-0.098,0.665-0.183,0.98l-2.027,7.2h-1.33l-2.858-9.825h1.254
				l2.081,7.537c0.087,0.333,0.142,0.663,0.17,0.986h0.027c0.022-0.279,0.091-0.606,0.205-0.986l2.169-7.537h1.104l2.067,7.591
				c0.078,0.284,0.132,0.587,0.163,0.911h0.027c0.022-0.237,0.084-0.549,0.185-0.938l1.999-7.564H53.506L53.506,1210.415z
				 M126.689,1216.061c-0.009-0.648-0.165-1.152-0.467-1.51c-0.302-0.359-0.729-0.538-1.279-0.538c-0.519,0-0.962,0.188-1.331,0.562
				c-0.369,0.374-0.6,0.871-0.696,1.486H126.689z M127.835,1217.014h-4.931c0.018,0.79,0.226,1.393,0.624,1.812
				c0.398,0.417,0.949,0.626,1.654,0.626c0.791,0,1.512-0.255,2.162-0.767v1.048c-0.609,0.453-1.418,0.678-2.428,0.678
				c-0.996,0-1.773-0.323-2.333-0.969s-0.838-1.541-0.838-2.682c0-0.694,0.14-1.329,0.419-1.901c0.28-0.574,0.665-1.018,1.156-1.333
				c0.491-0.316,1.037-0.473,1.637-0.473c0.905,0,1.611,0.295,2.118,0.887c0.507,0.591,0.76,1.419,0.76,2.484V1217.014
				L127.835,1217.014z M121.097,1214.361c-0.201-0.151-0.484-0.226-0.853-0.226c-0.496,0-0.898,0.234-1.207,0.702
				c-0.31,0.469-0.464,1.078-0.464,1.827v3.576h-1.119v-7.016h1.119v1.445h0.027c0.154-0.484,0.393-0.867,0.716-1.148
				c0.323-0.28,0.694-0.421,1.112-0.421c0.292,0,0.514,0.032,0.669,0.097V1214.361L121.097,1214.361z M115.135,1216.746
				c0-0.881-0.195-1.558-0.583-2.028c-0.389-0.471-0.944-0.706-1.667-0.706c-0.719,0-1.287,0.241-1.706,0.723
				c-0.419,0.482-0.627,1.162-0.627,2.038c0,0.841,0.209,1.498,0.631,1.971c0.421,0.472,0.988,0.708,1.702,0.708
				c0.727,0,1.285-0.232,1.671-0.699C114.942,1218.288,115.135,1217.618,115.135,1216.746L115.135,1216.746z M116.281,1216.705
				c0,1.115-0.315,2.011-0.945,2.69c-0.629,0.677-1.475,1.017-2.534,1.017c-1.032,0-1.856-0.33-2.473-0.99
				c-0.617-0.66-0.925-1.528-0.925-2.607c0-1.16,0.316-2.077,0.949-2.75c0.632-0.675,1.502-1.011,2.612-1.011
				c1.037,0,1.848,0.325,2.436,0.976C115.988,1214.68,116.281,1215.572,116.281,1216.705L116.281,1216.705z M108.569,1220.172
				c-0.269,0.15-0.619,0.227-1.05,0.227c-1.219,0-1.828-0.69-1.828-2.07v-4.152h-1.201v-0.952h1.201v-1.713l1.118-0.363v2.076h1.76
				v0.952h-1.76v3.96c0,0.471,0.08,0.806,0.239,1.004c0.159,0.198,0.425,0.298,0.798,0.298c0.276,0,0.519-0.075,0.723-0.227
				V1220.172L108.569,1220.172z M103.947,1217.76c0,0.827-0.291,1.475-0.873,1.946c-0.582,0.47-1.374,0.706-2.373,0.706
				c-0.363,0-0.774-0.061-1.231-0.182c-0.458-0.121-0.781-0.248-0.973-0.38v-1.364c0.278,0.252,0.642,0.462,1.095,0.631
				c0.453,0.169,0.874,0.253,1.265,0.253c1.255,0,1.882-0.49,1.882-1.473c0-0.411-0.133-0.764-0.402-1.059
				c-0.268-0.294-0.818-0.682-1.65-1.162c-0.805-0.457-1.369-0.89-1.692-1.301c-0.323-0.412-0.484-0.912-0.484-1.5
				c0-0.777,0.289-1.409,0.867-1.895c0.578-0.486,1.323-0.729,2.237-0.729c0.878,0,1.52,0.116,1.924,0.35v1.287
				c-0.509-0.401-1.171-0.602-1.985-0.602c-0.541,0-0.983,0.136-1.326,0.407c-0.344,0.272-0.516,0.632-0.516,1.08
				c0,0.324,0.052,0.585,0.153,0.78c0.103,0.197,0.275,0.391,0.519,0.583c0.244,0.191,0.654,0.45,1.231,0.774
				c0.864,0.484,1.468,0.941,1.814,1.37C103.773,1216.709,103.947,1217.203,103.947,1217.76L103.947,1217.76z"/>
		</g>
	</g>
	<g transform="translate(-1 -1190)" sketch:type="MSLayerGroup">
		<g sketch:type="MSShapeGroup">
			<path fill="#FFFFFF" fill-opacity="0.5" d="M103.059,1206.179h-0.752v-2.705c0-0.528-0.08-0.906-0.24-1.134
				c-0.161-0.229-0.43-0.343-0.809-0.343c-0.321,0-0.593,0.146-0.817,0.442c-0.224,0.294-0.336,0.645-0.336,1.053v2.688h-0.751
				v-2.796c0-0.924-0.355-1.385-1.067-1.385c-0.33,0-0.601,0.139-0.815,0.416c-0.214,0.278-0.321,0.637-0.321,1.078v2.688H96.4
				v-4.71h0.751v0.745h0.019c0.333-0.573,0.816-0.859,1.452-0.859c0.305,0,0.58,0.085,0.824,0.258
				c0.245,0.171,0.414,0.412,0.509,0.722c0.348-0.653,0.867-0.979,1.557-0.979c1.032,0,1.548,0.641,1.548,1.923L103.059,1206.179
				L103.059,1206.179L103.059,1206.179z M94.468,1203.833c0-0.592-0.131-1.046-0.392-1.362c-0.261-0.316-0.633-0.474-1.119-0.474
				c-0.482,0-0.865,0.162-1.146,0.485c-0.281,0.324-0.421,0.78-0.421,1.368c0,0.565,0.141,1.005,0.424,1.323
				c0.282,0.318,0.663,0.476,1.143,0.476c0.488,0,0.862-0.157,1.122-0.468C94.337,1204.868,94.468,1204.419,94.468,1203.833
				L94.468,1203.833z M95.237,1203.805c0,0.749-0.212,1.35-0.634,1.806c-0.423,0.455-0.99,0.684-1.702,0.684
				c-0.693,0-1.247-0.222-1.66-0.666c-0.413-0.443-0.62-1.027-0.62-1.751c0-0.778,0.212-1.394,0.636-1.846
				c0.425-0.453,1.01-0.679,1.754-0.679c0.696,0,1.241,0.218,1.635,0.655C95.04,1202.446,95.237,1203.044,95.237,1203.805
				L95.237,1203.805z M90.28,1202.232c-0.135-0.101-0.326-0.152-0.574-0.152c-0.333,0-0.603,0.157-0.81,0.472
				c-0.208,0.314-0.312,0.723-0.312,1.226v2.402h-0.751v-4.711h0.751v0.971h0.018c0.104-0.325,0.264-0.582,0.48-0.771
				c0.217-0.188,0.465-0.283,0.747-0.283c0.196,0,0.345,0.021,0.449,0.063v0.782H90.28z M87.216,1199.868
				c-0.146-0.083-0.312-0.124-0.5-0.124c-0.524,0-0.787,0.333-0.787,0.998v0.727h1.099v0.639h-1.099v4.072h-0.751v-4.072h-0.796
				v-0.639h0.796v-0.764c0-0.478,0.14-0.865,0.422-1.159c0.281-0.294,0.638-0.442,1.071-0.442c0.229,0,0.411,0.027,0.545,0.083
				V1199.868L87.216,1199.868z M80.443,1204.049v-0.695c0-0.389-0.129-0.712-0.388-0.97c-0.257-0.257-0.571-0.386-0.941-0.386
				c-0.452,0-0.81,0.167-1.076,0.503c-0.265,0.335-0.398,0.801-0.398,1.396c0,0.539,0.125,0.967,0.376,1.281
				c0.25,0.314,0.587,0.471,1.012,0.471c0.413,0,0.751-0.15,1.017-0.451C80.31,1204.898,80.443,1204.516,80.443,1204.049
				L80.443,1204.049L80.443,1204.049z M81.194,1206.179h-0.75v-0.8h-0.019c-0.348,0.61-0.886,0.916-1.612,0.916
				c-0.591,0-1.063-0.215-1.415-0.643c-0.352-0.428-0.527-0.999-0.527-1.713c0-0.78,0.196-1.404,0.584-1.877
				c0.39-0.473,0.911-0.708,1.564-0.708c0.641,0,1.11,0.254,1.406,0.763h0.019v-2.912h0.75V1206.179L81.194,1206.179z
				 M75.062,1203.797l-1.136,0.161c-0.388,0.055-0.659,0.148-0.815,0.278c-0.156,0.131-0.234,0.341-0.234,0.633
				c0,0.235,0.083,0.425,0.252,0.567c0.167,0.142,0.383,0.214,0.646,0.214c0.373,0,0.68-0.132,0.923-0.396
				c0.242-0.264,0.364-0.593,0.364-0.989V1203.797L75.062,1203.797z M75.813,1206.179h-0.75v-0.736h-0.018
				c-0.327,0.567-0.808,0.852-1.443,0.852c-0.451,0-0.813-0.124-1.085-0.372c-0.271-0.247-0.407-0.579-0.407-0.996
				c0-0.877,0.516-1.389,1.547-1.537l1.407-0.197c0-0.797-0.322-1.195-0.966-1.195c-0.565,0-1.075,0.191-1.529,0.575v-0.773
				c0.137-0.105,0.372-0.205,0.705-0.301c0.333-0.097,0.629-0.145,0.889-0.145c1.102,0,1.653,0.586,1.653,1.762v3.063H75.813z
				 M70.56,1203.833c0-0.592-0.13-1.046-0.392-1.362c-0.261-0.316-0.633-0.473-1.119-0.473c-0.482,0-0.865,0.161-1.145,0.485
				c-0.281,0.324-0.422,0.78-0.422,1.368c0,0.564,0.142,1.005,0.423,1.323c0.283,0.318,0.664,0.476,1.144,0.476
				c0.488,0,0.862-0.157,1.122-0.468C70.431,1204.869,70.561,1204.419,70.56,1203.833L70.56,1203.833z M71.33,1203.805
				c0,0.749-0.212,1.35-0.634,1.806c-0.423,0.455-0.99,0.684-1.702,0.684c-0.692,0-1.246-0.222-1.659-0.666
				c-0.414-0.443-0.621-1.027-0.621-1.751c0-0.778,0.212-1.394,0.637-1.846c0.424-0.453,1.009-0.679,1.753-0.679
				c0.697,0,1.241,0.218,1.635,0.655C71.133,1202.446,71.33,1203.045,71.33,1203.805L71.33,1203.805z M65.551,1206.179H64.8v-6.974
				h0.751V1206.179z M63.384,1206.179h-0.75v-2.688c0-0.997-0.364-1.494-1.09-1.494c-0.369,0-0.679,0.141-0.927,0.42
				c-0.249,0.28-0.374,0.639-0.374,1.074v2.688h-0.751v-4.711h0.751v0.781h0.019c0.352-0.597,0.864-0.896,1.539-0.896
				c0.516,0,0.91,0.168,1.18,0.506c0.27,0.337,0.405,0.815,0.405,1.435v2.885H63.384z M58.617,1201.468l-1.406,4.711h-0.779
				l-0.966-3.373c-0.033-0.115-0.058-0.259-0.073-0.431h-0.018c-0.009,0.107-0.042,0.249-0.096,0.423l-1.049,3.381h-0.751
				l-1.415-4.711h0.788l0.966,3.542c0.03,0.123,0.052,0.264,0.064,0.423h0.037c0.006-0.116,0.035-0.261,0.086-0.432l1.076-3.534
				h0.688l0.975,3.551c0.031,0.121,0.052,0.261,0.064,0.424h0.036c0.007-0.147,0.032-0.288,0.074-0.424l0.958-3.551h0.741V1201.468
				L58.617,1201.468z M50.778,1203.833c0-0.592-0.131-1.046-0.392-1.362c-0.261-0.316-0.634-0.473-1.119-0.473
				c-0.483,0-0.865,0.161-1.146,0.485c-0.281,0.324-0.421,0.78-0.421,1.368c0,0.564,0.142,1.005,0.424,1.323
				c0.283,0.318,0.664,0.476,1.144,0.476c0.488,0,0.862-0.157,1.121-0.468C50.647,1204.869,50.778,1204.419,50.778,1203.833
				L50.778,1203.833z M51.546,1203.805c0,0.749-0.211,1.35-0.634,1.806c-0.423,0.455-0.99,0.684-1.701,0.684
				c-0.693,0-1.247-0.222-1.66-0.666c-0.414-0.443-0.62-1.027-0.62-1.751c0-0.778,0.212-1.394,0.636-1.846
				c0.424-0.453,1.01-0.679,1.754-0.679c0.696,0,1.241,0.218,1.635,0.655C51.35,1202.446,51.546,1203.045,51.546,1203.805
				L51.546,1203.805z M45.287,1202.816c0-1.69-0.894-2.536-2.679-2.536h-1.026v5.199h0.975c0.867,0,1.539-0.232,2.016-0.697
				C45.049,1204.318,45.287,1203.663,45.287,1202.816z M46.092,1202.798c0,0.671-0.146,1.264-0.439,1.777
				c-0.292,0.513-0.71,0.91-1.25,1.188c-0.54,0.277-1.158,0.416-1.855,0.416h-1.735v-6.597h1.813
				C44.937,1199.582,46.092,1200.654,46.092,1202.798L46.092,1202.798z"/>
			<path fill="#FFFFFF" fill-opacity="0.5" d="M93.993,1218.362c0,0.607-0.232,1.101-0.699,1.48
				c-0.465,0.378-1.085,0.569-1.856,0.569c-0.661,0-1.238-0.142-1.733-0.425v-1.207c0.549,0.449,1.154,0.672,1.814,0.672
				c0.886,0,1.331-0.326,1.331-0.979c0-0.265-0.086-0.481-0.259-0.648c-0.173-0.167-0.567-0.391-1.18-0.675
				c-0.618-0.265-1.056-0.549-1.31-0.853c-0.255-0.304-0.382-0.708-0.382-1.21c0-0.579,0.232-1.063,0.696-1.453
				c0.463-0.387,1.053-0.581,1.767-0.581c0.55,0,1.047,0.109,1.494,0.33v1.129c-0.456-0.333-0.982-0.501-1.583-0.501
				c-0.37,0-0.665,0.092-0.89,0.275c-0.226,0.182-0.338,0.417-0.338,0.706c0,0.311,0.087,0.548,0.259,0.716
				c0.173,0.166,0.531,0.363,1.071,0.591c0.664,0.285,1.13,0.581,1.397,0.892C93.859,1217.501,93.993,1217.892,93.993,1218.362
				L93.993,1218.362L93.993,1218.362z M89.227,1213.223l-2.094,7.017h-1.16l-1.438-5.021c-0.05-0.174-0.087-0.389-0.109-0.645
				h-0.028c-0.014,0.161-0.061,0.37-0.143,0.63l-1.562,5.036h-1.118l-2.108-7.017h1.173l1.438,5.276
				c0.046,0.183,0.078,0.394,0.096,0.63h0.055c0.008-0.173,0.051-0.388,0.129-0.645l1.604-5.262h1.023l1.452,5.29
				c0.044,0.178,0.078,0.388,0.095,0.63h0.054c0.011-0.219,0.047-0.429,0.11-0.63l1.426-5.29L89.227,1213.223L89.227,1213.223z
				 M77.899,1216.746c0-0.882-0.194-1.557-0.583-2.029c-0.389-0.47-0.944-0.706-1.668-0.706c-0.718,0-1.287,0.242-1.704,0.724
				c-0.418,0.482-0.628,1.161-0.628,2.038c0,0.841,0.21,1.497,0.631,1.969c0.42,0.473,0.987,0.71,1.701,0.71
				c0.727,0,1.286-0.233,1.671-0.698C77.707,1218.287,77.899,1217.617,77.899,1216.746L77.899,1216.746z M79.046,1216.704
				c0,1.115-0.314,2.011-0.946,2.689c-0.629,0.679-1.474,1.018-2.533,1.018c-1.031,0-1.856-0.331-2.473-0.99
				c-0.616-0.661-0.924-1.529-0.924-2.607c0-1.161,0.317-2.077,0.949-2.751c0.631-0.675,1.502-1.01,2.612-1.01
				c1.036,0,1.847,0.325,2.435,0.976C78.752,1214.68,79.046,1215.571,79.046,1216.704L79.046,1216.704z M69.668,1217.067v-1.034
				c0-0.58-0.192-1.061-0.577-1.446c-0.384-0.384-0.851-0.576-1.4-0.576c-0.673,0-1.207,0.25-1.603,0.751
				c-0.395,0.5-0.594,1.193-0.594,2.08c0,0.804,0.187,1.439,0.56,1.908c0.373,0.469,0.875,0.703,1.507,0.703
				c0.613,0,1.119-0.224,1.514-0.672C69.471,1218.333,69.668,1217.762,69.668,1217.067L69.668,1217.067z M70.787,1220.24h-1.119
				v-1.192h-0.026c-0.52,0.91-1.319,1.364-2.401,1.364c-0.883,0-1.585-0.318-2.108-0.956c-0.523-0.637-0.784-1.488-0.784-2.551
				c0-1.16,0.289-2.093,0.87-2.796c0.579-0.703,1.355-1.055,2.329-1.055c0.955,0,1.653,0.379,2.094,1.137h0.026v-4.337h1.118
				L70.787,1220.24L70.787,1220.24z M63.025,1220.24h-1.119v-4.001c0-1.484-0.541-2.228-1.622-2.228
				c-0.551,0-1.011,0.209-1.381,0.627c-0.372,0.417-0.557,0.951-0.557,1.6v4.001h-1.118v-7.017h1.118v1.166h0.027
				c0.524-0.891,1.287-1.336,2.292-1.336c0.769,0,1.354,0.251,1.756,0.753c0.402,0.502,0.604,1.215,0.604,2.138V1220.24
				L63.025,1220.24z M55.534,1220.24h-1.119v-7.017h1.119V1220.24z M55.725,1210.916c0,0.21-0.073,0.385-0.218,0.523
				c-0.146,0.14-0.317,0.209-0.519,0.209c-0.205,0-0.377-0.067-0.518-0.202c-0.142-0.136-0.212-0.312-0.212-0.531
				c0-0.196,0.07-0.367,0.209-0.512c0.138-0.143,0.312-0.215,0.521-0.215s0.384,0.071,0.526,0.213
				C55.654,1210.543,55.725,1210.715,55.725,1210.916L55.725,1210.916z M53.506,1210.415l-2.764,9.825H49.4l-2.014-7.187
				c-0.077-0.271-0.125-0.601-0.149-0.993H47.21c-0.036,0.337-0.098,0.665-0.183,0.98l-2.027,7.2h-1.33l-2.858-9.825h1.254
				l2.081,7.537c0.087,0.333,0.142,0.663,0.17,0.986h0.027c0.022-0.279,0.091-0.606,0.205-0.986l2.169-7.537h1.104l2.067,7.591
				c0.078,0.284,0.132,0.587,0.163,0.911h0.027c0.022-0.237,0.084-0.549,0.185-0.938l1.999-7.564H53.506L53.506,1210.415z
				 M126.689,1216.061c-0.009-0.648-0.165-1.152-0.467-1.51c-0.302-0.359-0.729-0.538-1.279-0.538c-0.519,0-0.962,0.188-1.331,0.562
				c-0.369,0.374-0.6,0.871-0.696,1.486H126.689z M127.835,1217.014h-4.931c0.018,0.79,0.226,1.393,0.624,1.812
				c0.398,0.417,0.949,0.626,1.654,0.626c0.791,0,1.512-0.255,2.162-0.767v1.048c-0.609,0.453-1.418,0.678-2.428,0.678
				c-0.996,0-1.773-0.323-2.333-0.969s-0.838-1.541-0.838-2.682c0-0.694,0.14-1.329,0.419-1.901c0.28-0.574,0.665-1.018,1.156-1.333
				c0.491-0.316,1.037-0.473,1.637-0.473c0.905,0,1.611,0.295,2.118,0.887c0.507,0.591,0.76,1.419,0.76,2.484V1217.014
				L127.835,1217.014z M121.097,1214.361c-0.201-0.151-0.484-0.226-0.853-0.226c-0.496,0-0.898,0.234-1.207,0.702
				c-0.31,0.469-0.464,1.078-0.464,1.827v3.576h-1.119v-7.016h1.119v1.445h0.027c0.154-0.484,0.393-0.867,0.716-1.148
				c0.323-0.28,0.694-0.421,1.112-0.421c0.292,0,0.514,0.032,0.669,0.097V1214.361L121.097,1214.361z M115.135,1216.746
				c0-0.881-0.195-1.558-0.583-2.028c-0.389-0.471-0.944-0.706-1.667-0.706c-0.719,0-1.287,0.241-1.706,0.723
				c-0.419,0.482-0.627,1.162-0.627,2.038c0,0.841,0.209,1.498,0.631,1.971c0.421,0.472,0.988,0.708,1.702,0.708
				c0.727,0,1.285-0.232,1.671-0.699C114.942,1218.288,115.135,1217.618,115.135,1216.746L115.135,1216.746z M116.281,1216.705
				c0,1.115-0.315,2.011-0.945,2.69c-0.629,0.677-1.475,1.017-2.534,1.017c-1.032,0-1.856-0.33-2.473-0.99
				c-0.617-0.66-0.925-1.528-0.925-2.607c0-1.16,0.316-2.077,0.949-2.75c0.632-0.675,1.502-1.011,2.612-1.011
				c1.037,0,1.848,0.325,2.436,0.976C115.988,1214.68,116.281,1215.572,116.281,1216.705L116.281,1216.705z M108.569,1220.172
				c-0.269,0.15-0.619,0.227-1.05,0.227c-1.219,0-1.828-0.69-1.828-2.07v-4.152h-1.201v-0.952h1.201v-1.713l1.118-0.363v2.076h1.76
				v0.952h-1.76v3.96c0,0.471,0.08,0.806,0.239,1.004c0.159,0.198,0.425,0.298,0.798,0.298c0.276,0,0.519-0.075,0.723-0.227
				V1220.172L108.569,1220.172z M103.947,1217.76c0,0.827-0.291,1.475-0.873,1.946c-0.582,0.47-1.374,0.706-2.373,0.706
				c-0.363,0-0.774-0.061-1.231-0.182c-0.458-0.121-0.781-0.248-0.973-0.38v-1.364c0.278,0.252,0.642,0.462,1.095,0.631
				c0.453,0.169,0.874,0.253,1.265,0.253c1.255,0,1.882-0.49,1.882-1.473c0-0.411-0.133-0.764-0.402-1.059
				c-0.268-0.294-0.818-0.682-1.65-1.162c-0.805-0.457-1.369-0.89-1.692-1.301c-0.323-0.412-0.484-0.912-0.484-1.5
				c0-0.777,0.289-1.409,0.867-1.895c0.578-0.486,1.323-0.729,2.237-0.729c0.878,0,1.52,0.116,1.924,0.35v1.287
				c-0.509-0.401-1.171-0.602-1.985-0.602c-0.541,0-0.983,0.136-1.326,0.407c-0.344,0.272-0.516,0.632-0.516,1.08
				c0,0.324,0.052,0.585,0.153,0.78c0.103,0.197,0.275,0.391,0.519,0.583c0.244,0.191,0.654,0.45,1.231,0.774
				c0.864,0.484,1.468,0.941,1.814,1.37C103.773,1216.709,103.947,1217.203,103.947,1217.76L103.947,1217.76z"/>
		</g>
	</g>
	<g transform="translate(-1 -1190)" sketch:type="MSLayerGroup">
		<g sketch:type="MSShapeGroup">
			<path fill="#FFFFFF" fill-opacity="0.5" d="M103.059,1206.179h-0.752v-2.705c0-0.528-0.08-0.906-0.24-1.134
				c-0.161-0.229-0.43-0.343-0.809-0.343c-0.321,0-0.593,0.146-0.817,0.442c-0.224,0.294-0.336,0.645-0.336,1.053v2.688h-0.751
				v-2.796c0-0.924-0.355-1.385-1.067-1.385c-0.33,0-0.601,0.139-0.815,0.416c-0.214,0.278-0.321,0.637-0.321,1.078v2.688H96.4
				v-4.71h0.751v0.745h0.019c0.333-0.573,0.816-0.859,1.452-0.859c0.305,0,0.58,0.085,0.824,0.258
				c0.245,0.171,0.414,0.412,0.509,0.722c0.348-0.653,0.867-0.979,1.557-0.979c1.032,0,1.548,0.641,1.548,1.923L103.059,1206.179
				L103.059,1206.179L103.059,1206.179z M94.468,1203.833c0-0.592-0.131-1.046-0.392-1.362c-0.261-0.316-0.633-0.474-1.119-0.474
				c-0.482,0-0.865,0.162-1.146,0.485c-0.281,0.324-0.421,0.78-0.421,1.368c0,0.565,0.141,1.005,0.424,1.323
				c0.282,0.318,0.663,0.476,1.143,0.476c0.488,0,0.862-0.157,1.122-0.468C94.337,1204.868,94.468,1204.419,94.468,1203.833
				L94.468,1203.833z M95.237,1203.805c0,0.749-0.212,1.35-0.634,1.806c-0.423,0.455-0.99,0.684-1.702,0.684
				c-0.693,0-1.247-0.222-1.66-0.666c-0.413-0.443-0.62-1.027-0.62-1.751c0-0.778,0.212-1.394,0.636-1.846
				c0.425-0.453,1.01-0.679,1.754-0.679c0.696,0,1.241,0.218,1.635,0.655C95.04,1202.446,95.237,1203.044,95.237,1203.805
				L95.237,1203.805z M90.28,1202.232c-0.135-0.101-0.326-0.152-0.574-0.152c-0.333,0-0.603,0.157-0.81,0.472
				c-0.208,0.314-0.312,0.723-0.312,1.226v2.402h-0.751v-4.711h0.751v0.971h0.018c0.104-0.325,0.264-0.582,0.48-0.771
				c0.217-0.188,0.465-0.283,0.747-0.283c0.196,0,0.345,0.021,0.449,0.063v0.782H90.28z M87.216,1199.868
				c-0.146-0.083-0.312-0.124-0.5-0.124c-0.524,0-0.787,0.333-0.787,0.998v0.727h1.099v0.639h-1.099v4.072h-0.751v-4.072h-0.796
				v-0.639h0.796v-0.764c0-0.478,0.14-0.865,0.422-1.159c0.281-0.294,0.638-0.442,1.071-0.442c0.229,0,0.411,0.027,0.545,0.083
				V1199.868L87.216,1199.868z M80.443,1204.049v-0.695c0-0.389-0.129-0.712-0.388-0.97c-0.257-0.257-0.571-0.386-0.941-0.386
				c-0.452,0-0.81,0.167-1.076,0.503c-0.265,0.335-0.398,0.801-0.398,1.396c0,0.539,0.125,0.967,0.376,1.281
				c0.25,0.314,0.587,0.471,1.012,0.471c0.413,0,0.751-0.15,1.017-0.451C80.31,1204.898,80.443,1204.516,80.443,1204.049
				L80.443,1204.049L80.443,1204.049z M81.194,1206.179h-0.75v-0.8h-0.019c-0.348,0.61-0.886,0.916-1.612,0.916
				c-0.591,0-1.063-0.215-1.415-0.643c-0.352-0.428-0.527-0.999-0.527-1.713c0-0.78,0.196-1.404,0.584-1.877
				c0.39-0.473,0.911-0.708,1.564-0.708c0.641,0,1.11,0.254,1.406,0.763h0.019v-2.912h0.75V1206.179L81.194,1206.179z
				 M75.062,1203.797l-1.136,0.161c-0.388,0.055-0.659,0.148-0.815,0.278c-0.156,0.131-0.234,0.341-0.234,0.633
				c0,0.235,0.083,0.425,0.252,0.567c0.167,0.142,0.383,0.214,0.646,0.214c0.373,0,0.68-0.132,0.923-0.396
				c0.242-0.264,0.364-0.593,0.364-0.989V1203.797L75.062,1203.797z M75.813,1206.179h-0.75v-0.736h-0.018
				c-0.327,0.567-0.808,0.852-1.443,0.852c-0.451,0-0.813-0.124-1.085-0.372c-0.271-0.247-0.407-0.579-0.407-0.996
				c0-0.877,0.516-1.389,1.547-1.537l1.407-0.197c0-0.797-0.322-1.195-0.966-1.195c-0.565,0-1.075,0.191-1.529,0.575v-0.773
				c0.137-0.105,0.372-0.205,0.705-0.301c0.333-0.097,0.629-0.145,0.889-0.145c1.102,0,1.653,0.586,1.653,1.762v3.063H75.813z
				 M70.56,1203.833c0-0.592-0.13-1.046-0.392-1.362c-0.261-0.316-0.633-0.473-1.119-0.473c-0.482,0-0.865,0.161-1.145,0.485
				c-0.281,0.324-0.422,0.78-0.422,1.368c0,0.564,0.142,1.005,0.423,1.323c0.283,0.318,0.664,0.476,1.144,0.476
				c0.488,0,0.862-0.157,1.122-0.468C70.431,1204.869,70.561,1204.419,70.56,1203.833L70.56,1203.833z M71.33,1203.805
				c0,0.749-0.212,1.35-0.634,1.806c-0.423,0.455-0.99,0.684-1.702,0.684c-0.692,0-1.246-0.222-1.659-0.666
				c-0.414-0.443-0.621-1.027-0.621-1.751c0-0.778,0.212-1.394,0.637-1.846c0.424-0.453,1.009-0.679,1.753-0.679
				c0.697,0,1.241,0.218,1.635,0.655C71.133,1202.446,71.33,1203.045,71.33,1203.805L71.33,1203.805z M65.551,1206.179H64.8v-6.974
				h0.751V1206.179z M63.384,1206.179h-0.75v-2.688c0-0.997-0.364-1.494-1.09-1.494c-0.369,0-0.679,0.141-0.927,0.42
				c-0.249,0.28-0.374,0.639-0.374,1.074v2.688h-0.751v-4.711h0.751v0.781h0.019c0.352-0.597,0.864-0.896,1.539-0.896
				c0.516,0,0.91,0.168,1.18,0.506c0.27,0.337,0.405,0.815,0.405,1.435v2.885H63.384z M58.617,1201.468l-1.406,4.711h-0.779
				l-0.966-3.373c-0.033-0.115-0.058-0.259-0.073-0.431h-0.018c-0.009,0.107-0.042,0.249-0.096,0.423l-1.049,3.381h-0.751
				l-1.415-4.711h0.788l0.966,3.542c0.03,0.123,0.052,0.264,0.064,0.423h0.037c0.006-0.116,0.035-0.261,0.086-0.432l1.076-3.534
				h0.688l0.975,3.551c0.031,0.121,0.052,0.261,0.064,0.424h0.036c0.007-0.147,0.032-0.288,0.074-0.424l0.958-3.551h0.741V1201.468
				L58.617,1201.468z M50.778,1203.833c0-0.592-0.131-1.046-0.392-1.362c-0.261-0.316-0.634-0.473-1.119-0.473
				c-0.483,0-0.865,0.161-1.146,0.485c-0.281,0.324-0.421,0.78-0.421,1.368c0,0.564,0.142,1.005,0.424,1.323
				c0.283,0.318,0.664,0.476,1.144,0.476c0.488,0,0.862-0.157,1.121-0.468C50.647,1204.869,50.778,1204.419,50.778,1203.833
				L50.778,1203.833z M51.546,1203.805c0,0.749-0.211,1.35-0.634,1.806c-0.423,0.455-0.99,0.684-1.701,0.684
				c-0.693,0-1.247-0.222-1.66-0.666c-0.414-0.443-0.62-1.027-0.62-1.751c0-0.778,0.212-1.394,0.636-1.846
				c0.424-0.453,1.01-0.679,1.754-0.679c0.696,0,1.241,0.218,1.635,0.655C51.35,1202.446,51.546,1203.045,51.546,1203.805
				L51.546,1203.805z M45.287,1202.816c0-1.69-0.894-2.536-2.679-2.536h-1.026v5.199h0.975c0.867,0,1.539-0.232,2.016-0.697
				C45.049,1204.318,45.287,1203.663,45.287,1202.816z M46.092,1202.798c0,0.671-0.146,1.264-0.439,1.777
				c-0.292,0.513-0.71,0.91-1.25,1.188c-0.54,0.277-1.158,0.416-1.855,0.416h-1.735v-6.597h1.813
				C44.937,1199.582,46.092,1200.654,46.092,1202.798L46.092,1202.798z"/>
			<path fill="#FFFFFF" fill-opacity="0.5" d="M93.993,1218.362c0,0.607-0.232,1.101-0.699,1.48
				c-0.465,0.378-1.085,0.569-1.856,0.569c-0.661,0-1.238-0.142-1.733-0.425v-1.207c0.549,0.449,1.154,0.672,1.814,0.672
				c0.886,0,1.331-0.326,1.331-0.979c0-0.265-0.086-0.481-0.259-0.648c-0.173-0.167-0.567-0.391-1.18-0.675
				c-0.618-0.265-1.056-0.549-1.31-0.853c-0.255-0.304-0.382-0.708-0.382-1.21c0-0.579,0.232-1.063,0.696-1.453
				c0.463-0.387,1.053-0.581,1.767-0.581c0.55,0,1.047,0.109,1.494,0.33v1.129c-0.456-0.333-0.982-0.501-1.583-0.501
				c-0.37,0-0.665,0.092-0.89,0.275c-0.226,0.182-0.338,0.417-0.338,0.706c0,0.311,0.087,0.548,0.259,0.716
				c0.173,0.166,0.531,0.363,1.071,0.591c0.664,0.285,1.13,0.581,1.397,0.892C93.859,1217.501,93.993,1217.892,93.993,1218.362
				L93.993,1218.362L93.993,1218.362z M89.227,1213.223l-2.094,7.017h-1.16l-1.438-5.021c-0.05-0.174-0.087-0.389-0.109-0.645
				h-0.028c-0.014,0.161-0.061,0.37-0.143,0.63l-1.562,5.036h-1.118l-2.108-7.017h1.173l1.438,5.276
				c0.046,0.183,0.078,0.394,0.096,0.63h0.055c0.008-0.173,0.051-0.388,0.129-0.645l1.604-5.262h1.023l1.452,5.29
				c0.044,0.178,0.078,0.388,0.095,0.63h0.054c0.011-0.219,0.047-0.429,0.11-0.63l1.426-5.29L89.227,1213.223L89.227,1213.223z
				 M77.899,1216.746c0-0.882-0.194-1.557-0.583-2.029c-0.389-0.47-0.944-0.706-1.668-0.706c-0.718,0-1.287,0.242-1.704,0.724
				c-0.418,0.482-0.628,1.161-0.628,2.038c0,0.841,0.21,1.497,0.631,1.969c0.42,0.473,0.987,0.71,1.701,0.71
				c0.727,0,1.286-0.233,1.671-0.698C77.707,1218.287,77.899,1217.617,77.899,1216.746L77.899,1216.746z M79.046,1216.704
				c0,1.115-0.314,2.011-0.946,2.689c-0.629,0.679-1.474,1.018-2.533,1.018c-1.031,0-1.856-0.331-2.473-0.99
				c-0.616-0.661-0.924-1.529-0.924-2.607c0-1.161,0.317-2.077,0.949-2.751c0.631-0.675,1.502-1.01,2.612-1.01
				c1.036,0,1.847,0.325,2.435,0.976C78.752,1214.68,79.046,1215.571,79.046,1216.704L79.046,1216.704z M69.668,1217.067v-1.034
				c0-0.58-0.192-1.061-0.577-1.446c-0.384-0.384-0.851-0.576-1.4-0.576c-0.673,0-1.207,0.25-1.603,0.751
				c-0.395,0.5-0.594,1.193-0.594,2.08c0,0.804,0.187,1.439,0.56,1.908c0.373,0.469,0.875,0.703,1.507,0.703
				c0.613,0,1.119-0.224,1.514-0.672C69.471,1218.333,69.668,1217.762,69.668,1217.067L69.668,1217.067z M70.787,1220.24h-1.119
				v-1.192h-0.026c-0.52,0.91-1.319,1.364-2.401,1.364c-0.883,0-1.585-0.318-2.108-0.956c-0.523-0.637-0.784-1.488-0.784-2.551
				c0-1.16,0.289-2.093,0.87-2.796c0.579-0.703,1.355-1.055,2.329-1.055c0.955,0,1.653,0.379,2.094,1.137h0.026v-4.337h1.118
				L70.787,1220.24L70.787,1220.24z M63.025,1220.24h-1.119v-4.001c0-1.484-0.541-2.228-1.622-2.228
				c-0.551,0-1.011,0.209-1.381,0.627c-0.372,0.417-0.557,0.951-0.557,1.6v4.001h-1.118v-7.017h1.118v1.166h0.027
				c0.524-0.891,1.287-1.336,2.292-1.336c0.769,0,1.354,0.251,1.756,0.753c0.402,0.502,0.604,1.215,0.604,2.138V1220.24
				L63.025,1220.24z M55.534,1220.24h-1.119v-7.017h1.119V1220.24z M55.725,1210.916c0,0.21-0.073,0.385-0.218,0.523
				c-0.146,0.14-0.317,0.209-0.519,0.209c-0.205,0-0.377-0.067-0.518-0.202c-0.142-0.136-0.212-0.312-0.212-0.531
				c0-0.196,0.07-0.367,0.209-0.512c0.138-0.143,0.312-0.215,0.521-0.215s0.384,0.071,0.526,0.213
				C55.654,1210.543,55.725,1210.715,55.725,1210.916L55.725,1210.916z M53.506,1210.415l-2.764,9.825H49.4l-2.014-7.187
				c-0.077-0.271-0.125-0.601-0.149-0.993H47.21c-0.036,0.337-0.098,0.665-0.183,0.98l-2.027,7.2h-1.33l-2.858-9.825h1.254
				l2.081,7.537c0.087,0.333,0.142,0.663,0.17,0.986h0.027c0.022-0.279,0.091-0.606,0.205-0.986l2.169-7.537h1.104l2.067,7.591
				c0.078,0.284,0.132,0.587,0.163,0.911h0.027c0.022-0.237,0.084-0.549,0.185-0.938l1.999-7.564H53.506L53.506,1210.415z
				 M126.689,1216.061c-0.009-0.648-0.165-1.152-0.467-1.51c-0.302-0.359-0.729-0.538-1.279-0.538c-0.519,0-0.962,0.188-1.331,0.562
				c-0.369,0.374-0.6,0.871-0.696,1.486H126.689z M127.835,1217.014h-4.931c0.018,0.79,0.226,1.393,0.624,1.812
				c0.398,0.417,0.949,0.626,1.654,0.626c0.791,0,1.512-0.255,2.162-0.767v1.048c-0.609,0.453-1.418,0.678-2.428,0.678
				c-0.996,0-1.773-0.323-2.333-0.969s-0.838-1.541-0.838-2.682c0-0.694,0.14-1.329,0.419-1.901c0.28-0.574,0.665-1.018,1.156-1.333
				c0.491-0.316,1.037-0.473,1.637-0.473c0.905,0,1.611,0.295,2.118,0.887c0.507,0.591,0.76,1.419,0.76,2.484V1217.014
				L127.835,1217.014z M121.097,1214.361c-0.201-0.151-0.484-0.226-0.853-0.226c-0.496,0-0.898,0.234-1.207,0.702
				c-0.31,0.469-0.464,1.078-0.464,1.827v3.576h-1.119v-7.016h1.119v1.445h0.027c0.154-0.484,0.393-0.867,0.716-1.148
				c0.323-0.28,0.694-0.421,1.112-0.421c0.292,0,0.514,0.032,0.669,0.097V1214.361L121.097,1214.361z M115.135,1216.746
				c0-0.881-0.195-1.558-0.583-2.028c-0.389-0.471-0.944-0.706-1.667-0.706c-0.719,0-1.287,0.241-1.706,0.723
				c-0.419,0.482-0.627,1.162-0.627,2.038c0,0.841,0.209,1.498,0.631,1.971c0.421,0.472,0.988,0.708,1.702,0.708
				c0.727,0,1.285-0.232,1.671-0.699C114.942,1218.288,115.135,1217.618,115.135,1216.746L115.135,1216.746z M116.281,1216.705
				c0,1.115-0.315,2.011-0.945,2.69c-0.629,0.677-1.475,1.017-2.534,1.017c-1.032,0-1.856-0.33-2.473-0.99
				c-0.617-0.66-0.925-1.528-0.925-2.607c0-1.16,0.316-2.077,0.949-2.75c0.632-0.675,1.502-1.011,2.612-1.011
				c1.037,0,1.848,0.325,2.436,0.976C115.988,1214.68,116.281,1215.572,116.281,1216.705L116.281,1216.705z M108.569,1220.172
				c-0.269,0.15-0.619,0.227-1.05,0.227c-1.219,0-1.828-0.69-1.828-2.07v-4.152h-1.201v-0.952h1.201v-1.713l1.118-0.363v2.076h1.76
				v0.952h-1.76v3.96c0,0.471,0.08,0.806,0.239,1.004c0.159,0.198,0.425,0.298,0.798,0.298c0.276,0,0.519-0.075,0.723-0.227
				V1220.172L108.569,1220.172z M103.947,1217.76c0,0.827-0.291,1.475-0.873,1.946c-0.582,0.47-1.374,0.706-2.373,0.706
				c-0.363,0-0.774-0.061-1.231-0.182c-0.458-0.121-0.781-0.248-0.973-0.38v-1.364c0.278,0.252,0.642,0.462,1.095,0.631
				c0.453,0.169,0.874,0.253,1.265,0.253c1.255,0,1.882-0.49,1.882-1.473c0-0.411-0.133-0.764-0.402-1.059
				c-0.268-0.294-0.818-0.682-1.65-1.162c-0.805-0.457-1.369-0.89-1.692-1.301c-0.323-0.412-0.484-0.912-0.484-1.5
				c0-0.777,0.289-1.409,0.867-1.895c0.578-0.486,1.323-0.729,2.237-0.729c0.878,0,1.52,0.116,1.924,0.35v1.287
				c-0.509-0.401-1.171-0.602-1.985-0.602c-0.541,0-0.983,0.136-1.326,0.407c-0.344,0.272-0.516,0.632-0.516,1.08
				c0,0.324,0.052,0.585,0.153,0.78c0.103,0.197,0.275,0.391,0.519,0.583c0.244,0.191,0.654,0.45,1.231,0.774
				c0.864,0.484,1.468,0.941,1.814,1.37C103.773,1216.709,103.947,1217.203,103.947,1217.76L103.947,1217.76z"/>
		</g>
	</g>
	<g transform="translate(-1 -1190)" sketch:type="MSLayerGroup">
		<g sketch:type="MSShapeGroup">
			<path fill="#FFFFFF" fill-opacity="0.5" d="M103.059,1206.179h-0.752v-2.705c0-0.528-0.08-0.906-0.24-1.134
				c-0.161-0.229-0.43-0.343-0.809-0.343c-0.321,0-0.593,0.146-0.817,0.442c-0.224,0.294-0.336,0.645-0.336,1.053v2.688h-0.751
				v-2.796c0-0.924-0.355-1.385-1.067-1.385c-0.33,0-0.601,0.139-0.815,0.416c-0.214,0.278-0.321,0.637-0.321,1.078v2.688H96.4
				v-4.71h0.751v0.745h0.019c0.333-0.573,0.816-0.859,1.452-0.859c0.305,0,0.58,0.085,0.824,0.258
				c0.245,0.171,0.414,0.412,0.509,0.722c0.348-0.653,0.867-0.979,1.557-0.979c1.032,0,1.548,0.641,1.548,1.923L103.059,1206.179
				L103.059,1206.179L103.059,1206.179z M94.468,1203.833c0-0.592-0.131-1.046-0.392-1.362c-0.261-0.316-0.633-0.474-1.119-0.474
				c-0.482,0-0.865,0.162-1.146,0.485c-0.281,0.324-0.421,0.78-0.421,1.368c0,0.565,0.141,1.005,0.424,1.323
				c0.282,0.318,0.663,0.476,1.143,0.476c0.488,0,0.862-0.157,1.122-0.468C94.337,1204.868,94.468,1204.419,94.468,1203.833
				L94.468,1203.833z M95.237,1203.805c0,0.749-0.212,1.35-0.634,1.806c-0.423,0.455-0.99,0.684-1.702,0.684
				c-0.693,0-1.247-0.222-1.66-0.666c-0.413-0.443-0.62-1.027-0.62-1.751c0-0.778,0.212-1.394,0.636-1.846
				c0.425-0.453,1.01-0.679,1.754-0.679c0.696,0,1.241,0.218,1.635,0.655C95.04,1202.446,95.237,1203.044,95.237,1203.805
				L95.237,1203.805z M90.28,1202.232c-0.135-0.101-0.326-0.152-0.574-0.152c-0.333,0-0.603,0.157-0.81,0.472
				c-0.208,0.314-0.312,0.723-0.312,1.226v2.402h-0.751v-4.711h0.751v0.971h0.018c0.104-0.325,0.264-0.582,0.48-0.771
				c0.217-0.188,0.465-0.283,0.747-0.283c0.196,0,0.345,0.021,0.449,0.063v0.782H90.28z M87.216,1199.868
				c-0.146-0.083-0.312-0.124-0.5-0.124c-0.524,0-0.787,0.333-0.787,0.998v0.727h1.099v0.639h-1.099v4.072h-0.751v-4.072h-0.796
				v-0.639h0.796v-0.764c0-0.478,0.14-0.865,0.422-1.159c0.281-0.294,0.638-0.442,1.071-0.442c0.229,0,0.411,0.027,0.545,0.083
				V1199.868L87.216,1199.868z M80.443,1204.049v-0.695c0-0.389-0.129-0.712-0.388-0.97c-0.257-0.257-0.571-0.386-0.941-0.386
				c-0.452,0-0.81,0.167-1.076,0.503c-0.265,0.335-0.398,0.801-0.398,1.396c0,0.539,0.125,0.967,0.376,1.281
				c0.25,0.314,0.587,0.471,1.012,0.471c0.413,0,0.751-0.15,1.017-0.451C80.31,1204.898,80.443,1204.516,80.443,1204.049
				L80.443,1204.049L80.443,1204.049z M81.194,1206.179h-0.75v-0.8h-0.019c-0.348,0.61-0.886,0.916-1.612,0.916
				c-0.591,0-1.063-0.215-1.415-0.643c-0.352-0.428-0.527-0.999-0.527-1.713c0-0.78,0.196-1.404,0.584-1.877
				c0.39-0.473,0.911-0.708,1.564-0.708c0.641,0,1.11,0.254,1.406,0.763h0.019v-2.912h0.75V1206.179L81.194,1206.179z
				 M75.062,1203.797l-1.136,0.161c-0.388,0.055-0.659,0.148-0.815,0.278c-0.156,0.131-0.234,0.341-0.234,0.633
				c0,0.235,0.083,0.425,0.252,0.567c0.167,0.142,0.383,0.214,0.646,0.214c0.373,0,0.68-0.132,0.923-0.396
				c0.242-0.264,0.364-0.593,0.364-0.989V1203.797L75.062,1203.797z M75.813,1206.179h-0.75v-0.736h-0.018
				c-0.327,0.567-0.808,0.852-1.443,0.852c-0.451,0-0.813-0.124-1.085-0.372c-0.271-0.247-0.407-0.579-0.407-0.996
				c0-0.877,0.516-1.389,1.547-1.537l1.407-0.197c0-0.797-0.322-1.195-0.966-1.195c-0.565,0-1.075,0.191-1.529,0.575v-0.773
				c0.137-0.105,0.372-0.205,0.705-0.301c0.333-0.097,0.629-0.145,0.889-0.145c1.102,0,1.653,0.586,1.653,1.762v3.063H75.813z
				 M70.56,1203.833c0-0.592-0.13-1.046-0.392-1.362c-0.261-0.316-0.633-0.473-1.119-0.473c-0.482,0-0.865,0.161-1.145,0.485
				c-0.281,0.324-0.422,0.78-0.422,1.368c0,0.564,0.142,1.005,0.423,1.323c0.283,0.318,0.664,0.476,1.144,0.476
				c0.488,0,0.862-0.157,1.122-0.468C70.431,1204.869,70.561,1204.419,70.56,1203.833L70.56,1203.833z M71.33,1203.805
				c0,0.749-0.212,1.35-0.634,1.806c-0.423,0.455-0.99,0.684-1.702,0.684c-0.692,0-1.246-0.222-1.659-0.666
				c-0.414-0.443-0.621-1.027-0.621-1.751c0-0.778,0.212-1.394,0.637-1.846c0.424-0.453,1.009-0.679,1.753-0.679
				c0.697,0,1.241,0.218,1.635,0.655C71.133,1202.446,71.33,1203.045,71.33,1203.805L71.33,1203.805z M65.551,1206.179H64.8v-6.974
				h0.751V1206.179z M63.384,1206.179h-0.75v-2.688c0-0.997-0.364-1.494-1.09-1.494c-0.369,0-0.679,0.141-0.927,0.42
				c-0.249,0.28-0.374,0.639-0.374,1.074v2.688h-0.751v-4.711h0.751v0.781h0.019c0.352-0.597,0.864-0.896,1.539-0.896
				c0.516,0,0.91,0.168,1.18,0.506c0.27,0.337,0.405,0.815,0.405,1.435v2.885H63.384z M58.617,1201.468l-1.406,4.711h-0.779
				l-0.966-3.373c-0.033-0.115-0.058-0.259-0.073-0.431h-0.018c-0.009,0.107-0.042,0.249-0.096,0.423l-1.049,3.381h-0.751
				l-1.415-4.711h0.788l0.966,3.542c0.03,0.123,0.052,0.264,0.064,0.423h0.037c0.006-0.116,0.035-0.261,0.086-0.432l1.076-3.534
				h0.688l0.975,3.551c0.031,0.121,0.052,0.261,0.064,0.424h0.036c0.007-0.147,0.032-0.288,0.074-0.424l0.958-3.551h0.741V1201.468
				L58.617,1201.468z M50.778,1203.833c0-0.592-0.131-1.046-0.392-1.362c-0.261-0.316-0.634-0.473-1.119-0.473
				c-0.483,0-0.865,0.161-1.146,0.485c-0.281,0.324-0.421,0.78-0.421,1.368c0,0.564,0.142,1.005,0.424,1.323
				c0.283,0.318,0.664,0.476,1.144,0.476c0.488,0,0.862-0.157,1.121-0.468C50.647,1204.869,50.778,1204.419,50.778,1203.833
				L50.778,1203.833z M51.546,1203.805c0,0.749-0.211,1.35-0.634,1.806c-0.423,0.455-0.99,0.684-1.701,0.684
				c-0.693,0-1.247-0.222-1.66-0.666c-0.414-0.443-0.62-1.027-0.62-1.751c0-0.778,0.212-1.394,0.636-1.846
				c0.424-0.453,1.01-0.679,1.754-0.679c0.696,0,1.241,0.218,1.635,0.655C51.35,1202.446,51.546,1203.045,51.546,1203.805
				L51.546,1203.805z M45.287,1202.816c0-1.69-0.894-2.536-2.679-2.536h-1.026v5.199h0.975c0.867,0,1.539-0.232,2.016-0.697
				C45.049,1204.318,45.287,1203.663,45.287,1202.816z M46.092,1202.798c0,0.671-0.146,1.264-0.439,1.777
				c-0.292,0.513-0.71,0.91-1.25,1.188c-0.54,0.277-1.158,0.416-1.855,0.416h-1.735v-6.597h1.813
				C44.937,1199.582,46.092,1200.654,46.092,1202.798L46.092,1202.798z"/>
			<path fill="#FFFFFF" fill-opacity="0.5" d="M93.993,1218.362c0,0.607-0.232,1.101-0.699,1.48
				c-0.465,0.378-1.085,0.569-1.856,0.569c-0.661,0-1.238-0.142-1.733-0.425v-1.207c0.549,0.449,1.154,0.672,1.814,0.672
				c0.886,0,1.331-0.326,1.331-0.979c0-0.265-0.086-0.481-0.259-0.648c-0.173-0.167-0.567-0.391-1.18-0.675
				c-0.618-0.265-1.056-0.549-1.31-0.853c-0.255-0.304-0.382-0.708-0.382-1.21c0-0.579,0.232-1.063,0.696-1.453
				c0.463-0.387,1.053-0.581,1.767-0.581c0.55,0,1.047,0.109,1.494,0.33v1.129c-0.456-0.333-0.982-0.501-1.583-0.501
				c-0.37,0-0.665,0.092-0.89,0.275c-0.226,0.182-0.338,0.417-0.338,0.706c0,0.311,0.087,0.548,0.259,0.716
				c0.173,0.166,0.531,0.363,1.071,0.591c0.664,0.285,1.13,0.581,1.397,0.892C93.859,1217.501,93.993,1217.892,93.993,1218.362
				L93.993,1218.362L93.993,1218.362z M89.227,1213.223l-2.094,7.017h-1.16l-1.438-5.021c-0.05-0.174-0.087-0.389-0.109-0.645
				h-0.028c-0.014,0.161-0.061,0.37-0.143,0.63l-1.562,5.036h-1.118l-2.108-7.017h1.173l1.438,5.276
				c0.046,0.183,0.078,0.394,0.096,0.63h0.055c0.008-0.173,0.051-0.388,0.129-0.645l1.604-5.262h1.023l1.452,5.29
				c0.044,0.178,0.078,0.388,0.095,0.63h0.054c0.011-0.219,0.047-0.429,0.11-0.63l1.426-5.29L89.227,1213.223L89.227,1213.223z
				 M77.899,1216.746c0-0.882-0.194-1.557-0.583-2.029c-0.389-0.47-0.944-0.706-1.668-0.706c-0.718,0-1.287,0.242-1.704,0.724
				c-0.418,0.482-0.628,1.161-0.628,2.038c0,0.841,0.21,1.497,0.631,1.969c0.42,0.473,0.987,0.71,1.701,0.71
				c0.727,0,1.286-0.233,1.671-0.698C77.707,1218.287,77.899,1217.617,77.899,1216.746L77.899,1216.746z M79.046,1216.704
				c0,1.115-0.314,2.011-0.946,2.689c-0.629,0.679-1.474,1.018-2.533,1.018c-1.031,0-1.856-0.331-2.473-0.99
				c-0.616-0.661-0.924-1.529-0.924-2.607c0-1.161,0.317-2.077,0.949-2.751c0.631-0.675,1.502-1.01,2.612-1.01
				c1.036,0,1.847,0.325,2.435,0.976C78.752,1214.68,79.046,1215.571,79.046,1216.704L79.046,1216.704z M69.668,1217.067v-1.034
				c0-0.58-0.192-1.061-0.577-1.446c-0.384-0.384-0.851-0.576-1.4-0.576c-0.673,0-1.207,0.25-1.603,0.751
				c-0.395,0.5-0.594,1.193-0.594,2.08c0,0.804,0.187,1.439,0.56,1.908c0.373,0.469,0.875,0.703,1.507,0.703
				c0.613,0,1.119-0.224,1.514-0.672C69.471,1218.333,69.668,1217.762,69.668,1217.067L69.668,1217.067z M70.787,1220.24h-1.119
				v-1.192h-0.026c-0.52,0.91-1.319,1.364-2.401,1.364c-0.883,0-1.585-0.318-2.108-0.956c-0.523-0.637-0.784-1.488-0.784-2.551
				c0-1.16,0.289-2.093,0.87-2.796c0.579-0.703,1.355-1.055,2.329-1.055c0.955,0,1.653,0.379,2.094,1.137h0.026v-4.337h1.118
				L70.787,1220.24L70.787,1220.24z M63.025,1220.24h-1.119v-4.001c0-1.484-0.541-2.228-1.622-2.228
				c-0.551,0-1.011,0.209-1.381,0.627c-0.372,0.417-0.557,0.951-0.557,1.6v4.001h-1.118v-7.017h1.118v1.166h0.027
				c0.524-0.891,1.287-1.336,2.292-1.336c0.769,0,1.354,0.251,1.756,0.753c0.402,0.502,0.604,1.215,0.604,2.138V1220.24
				L63.025,1220.24z M55.534,1220.24h-1.119v-7.017h1.119V1220.24z M55.725,1210.916c0,0.21-0.073,0.385-0.218,0.523
				c-0.146,0.14-0.317,0.209-0.519,0.209c-0.205,0-0.377-0.067-0.518-0.202c-0.142-0.136-0.212-0.312-0.212-0.531
				c0-0.196,0.07-0.367,0.209-0.512c0.138-0.143,0.312-0.215,0.521-0.215s0.384,0.071,0.526,0.213
				C55.654,1210.543,55.725,1210.715,55.725,1210.916L55.725,1210.916z M53.506,1210.415l-2.764,9.825H49.4l-2.014-7.187
				c-0.077-0.271-0.125-0.601-0.149-0.993H47.21c-0.036,0.337-0.098,0.665-0.183,0.98l-2.027,7.2h-1.33l-2.858-9.825h1.254
				l2.081,7.537c0.087,0.333,0.142,0.663,0.17,0.986h0.027c0.022-0.279,0.091-0.606,0.205-0.986l2.169-7.537h1.104l2.067,7.591
				c0.078,0.284,0.132,0.587,0.163,0.911h0.027c0.022-0.237,0.084-0.549,0.185-0.938l1.999-7.564H53.506L53.506,1210.415z
				 M126.689,1216.061c-0.009-0.648-0.165-1.152-0.467-1.51c-0.302-0.359-0.729-0.538-1.279-0.538c-0.519,0-0.962,0.188-1.331,0.562
				c-0.369,0.374-0.6,0.871-0.696,1.486H126.689z M127.835,1217.014h-4.931c0.018,0.79,0.226,1.393,0.624,1.812
				c0.398,0.417,0.949,0.626,1.654,0.626c0.791,0,1.512-0.255,2.162-0.767v1.048c-0.609,0.453-1.418,0.678-2.428,0.678
				c-0.996,0-1.773-0.323-2.333-0.969s-0.838-1.541-0.838-2.682c0-0.694,0.14-1.329,0.419-1.901c0.28-0.574,0.665-1.018,1.156-1.333
				c0.491-0.316,1.037-0.473,1.637-0.473c0.905,0,1.611,0.295,2.118,0.887c0.507,0.591,0.76,1.419,0.76,2.484V1217.014
				L127.835,1217.014z M121.097,1214.361c-0.201-0.151-0.484-0.226-0.853-0.226c-0.496,0-0.898,0.234-1.207,0.702
				c-0.31,0.469-0.464,1.078-0.464,1.827v3.576h-1.119v-7.016h1.119v1.445h0.027c0.154-0.484,0.393-0.867,0.716-1.148
				c0.323-0.28,0.694-0.421,1.112-0.421c0.292,0,0.514,0.032,0.669,0.097V1214.361L121.097,1214.361z M115.135,1216.746
				c0-0.881-0.195-1.558-0.583-2.028c-0.389-0.471-0.944-0.706-1.667-0.706c-0.719,0-1.287,0.241-1.706,0.723
				c-0.419,0.482-0.627,1.162-0.627,2.038c0,0.841,0.209,1.498,0.631,1.971c0.421,0.472,0.988,0.708,1.702,0.708
				c0.727,0,1.285-0.232,1.671-0.699C114.942,1218.288,115.135,1217.618,115.135,1216.746L115.135,1216.746z M116.281,1216.705
				c0,1.115-0.315,2.011-0.945,2.69c-0.629,0.677-1.475,1.017-2.534,1.017c-1.032,0-1.856-0.33-2.473-0.99
				c-0.617-0.66-0.925-1.528-0.925-2.607c0-1.16,0.316-2.077,0.949-2.75c0.632-0.675,1.502-1.011,2.612-1.011
				c1.037,0,1.848,0.325,2.436,0.976C115.988,1214.68,116.281,1215.572,116.281,1216.705L116.281,1216.705z M108.569,1220.172
				c-0.269,0.15-0.619,0.227-1.05,0.227c-1.219,0-1.828-0.69-1.828-2.07v-4.152h-1.201v-0.952h1.201v-1.713l1.118-0.363v2.076h1.76
				v0.952h-1.76v3.96c0,0.471,0.08,0.806,0.239,1.004c0.159,0.198,0.425,0.298,0.798,0.298c0.276,0,0.519-0.075,0.723-0.227
				V1220.172L108.569,1220.172z M103.947,1217.76c0,0.827-0.291,1.475-0.873,1.946c-0.582,0.47-1.374,0.706-2.373,0.706
				c-0.363,0-0.774-0.061-1.231-0.182c-0.458-0.121-0.781-0.248-0.973-0.38v-1.364c0.278,0.252,0.642,0.462,1.095,0.631
				c0.453,0.169,0.874,0.253,1.265,0.253c1.255,0,1.882-0.49,1.882-1.473c0-0.411-0.133-0.764-0.402-1.059
				c-0.268-0.294-0.818-0.682-1.65-1.162c-0.805-0.457-1.369-0.89-1.692-1.301c-0.323-0.412-0.484-0.912-0.484-1.5
				c0-0.777,0.289-1.409,0.867-1.895c0.578-0.486,1.323-0.729,2.237-0.729c0.878,0,1.52,0.116,1.924,0.35v1.287
				c-0.509-0.401-1.171-0.602-1.985-0.602c-0.541,0-0.983,0.136-1.326,0.407c-0.344,0.272-0.516,0.632-0.516,1.08
				c0,0.324,0.052,0.585,0.153,0.78c0.103,0.197,0.275,0.391,0.519,0.583c0.244,0.191,0.654,0.45,1.231,0.774
				c0.864,0.484,1.468,0.941,1.814,1.37C103.773,1216.709,103.947,1217.203,103.947,1217.76L103.947,1217.76z"/>
		</g>
	</g>
	<g transform="translate(-1 -1190)" sketch:type="MSLayerGroup">
		<g sketch:type="MSShapeGroup">
			<path fill="#FFFFFF" fill-opacity="0.5" d="M103.059,1206.179h-0.752v-2.705c0-0.528-0.08-0.906-0.24-1.134
				c-0.161-0.229-0.43-0.343-0.809-0.343c-0.321,0-0.593,0.146-0.817,0.442c-0.224,0.294-0.336,0.645-0.336,1.053v2.688h-0.751
				v-2.796c0-0.924-0.355-1.385-1.067-1.385c-0.33,0-0.601,0.139-0.815,0.416c-0.214,0.278-0.321,0.637-0.321,1.078v2.688H96.4
				v-4.71h0.751v0.745h0.019c0.333-0.573,0.816-0.859,1.452-0.859c0.305,0,0.58,0.085,0.824,0.258
				c0.245,0.171,0.414,0.412,0.509,0.722c0.348-0.653,0.867-0.979,1.557-0.979c1.032,0,1.548,0.641,1.548,1.923L103.059,1206.179
				L103.059,1206.179L103.059,1206.179z M94.468,1203.833c0-0.592-0.131-1.046-0.392-1.362c-0.261-0.316-0.633-0.474-1.119-0.474
				c-0.482,0-0.865,0.162-1.146,0.485c-0.281,0.324-0.421,0.78-0.421,1.368c0,0.565,0.141,1.005,0.424,1.323
				c0.282,0.318,0.663,0.476,1.143,0.476c0.488,0,0.862-0.157,1.122-0.468C94.337,1204.868,94.468,1204.419,94.468,1203.833
				L94.468,1203.833z M95.237,1203.805c0,0.749-0.212,1.35-0.634,1.806c-0.423,0.455-0.99,0.684-1.702,0.684
				c-0.693,0-1.247-0.222-1.66-0.666c-0.413-0.443-0.62-1.027-0.62-1.751c0-0.778,0.212-1.394,0.636-1.846
				c0.425-0.453,1.01-0.679,1.754-0.679c0.696,0,1.241,0.218,1.635,0.655C95.04,1202.446,95.237,1203.044,95.237,1203.805
				L95.237,1203.805z M90.28,1202.232c-0.135-0.101-0.326-0.152-0.574-0.152c-0.333,0-0.603,0.157-0.81,0.472
				c-0.208,0.314-0.312,0.723-0.312,1.226v2.402h-0.751v-4.711h0.751v0.971h0.018c0.104-0.325,0.264-0.582,0.48-0.771
				c0.217-0.188,0.465-0.283,0.747-0.283c0.196,0,0.345,0.021,0.449,0.063v0.782H90.28z M87.216,1199.868
				c-0.146-0.083-0.312-0.124-0.5-0.124c-0.524,0-0.787,0.333-0.787,0.998v0.727h1.099v0.639h-1.099v4.072h-0.751v-4.072h-0.796
				v-0.639h0.796v-0.764c0-0.478,0.14-0.865,0.422-1.159c0.281-0.294,0.638-0.442,1.071-0.442c0.229,0,0.411,0.027,0.545,0.083
				V1199.868L87.216,1199.868z M80.443,1204.049v-0.695c0-0.389-0.129-0.712-0.388-0.97c-0.257-0.257-0.571-0.386-0.941-0.386
				c-0.452,0-0.81,0.167-1.076,0.503c-0.265,0.335-0.398,0.801-0.398,1.396c0,0.539,0.125,0.967,0.376,1.281
				c0.25,0.314,0.587,0.471,1.012,0.471c0.413,0,0.751-0.15,1.017-0.451C80.31,1204.898,80.443,1204.516,80.443,1204.049
				L80.443,1204.049L80.443,1204.049z M81.194,1206.179h-0.75v-0.8h-0.019c-0.348,0.61-0.886,0.916-1.612,0.916
				c-0.591,0-1.063-0.215-1.415-0.643c-0.352-0.428-0.527-0.999-0.527-1.713c0-0.78,0.196-1.404,0.584-1.877
				c0.39-0.473,0.911-0.708,1.564-0.708c0.641,0,1.11,0.254,1.406,0.763h0.019v-2.912h0.75V1206.179L81.194,1206.179z
				 M75.062,1203.797l-1.136,0.161c-0.388,0.055-0.659,0.148-0.815,0.278c-0.156,0.131-0.234,0.341-0.234,0.633
				c0,0.235,0.083,0.425,0.252,0.567c0.167,0.142,0.383,0.214,0.646,0.214c0.373,0,0.68-0.132,0.923-0.396
				c0.242-0.264,0.364-0.593,0.364-0.989V1203.797L75.062,1203.797z M75.813,1206.179h-0.75v-0.736h-0.018
				c-0.327,0.567-0.808,0.852-1.443,0.852c-0.451,0-0.813-0.124-1.085-0.372c-0.271-0.247-0.407-0.579-0.407-0.996
				c0-0.877,0.516-1.389,1.547-1.537l1.407-0.197c0-0.797-0.322-1.195-0.966-1.195c-0.565,0-1.075,0.191-1.529,0.575v-0.773
				c0.137-0.105,0.372-0.205,0.705-0.301c0.333-0.097,0.629-0.145,0.889-0.145c1.102,0,1.653,0.586,1.653,1.762v3.063H75.813z
				 M70.56,1203.833c0-0.592-0.13-1.046-0.392-1.362c-0.261-0.316-0.633-0.473-1.119-0.473c-0.482,0-0.865,0.161-1.145,0.485
				c-0.281,0.324-0.422,0.78-0.422,1.368c0,0.564,0.142,1.005,0.423,1.323c0.283,0.318,0.664,0.476,1.144,0.476
				c0.488,0,0.862-0.157,1.122-0.468C70.431,1204.869,70.561,1204.419,70.56,1203.833L70.56,1203.833z M71.33,1203.805
				c0,0.749-0.212,1.35-0.634,1.806c-0.423,0.455-0.99,0.684-1.702,0.684c-0.692,0-1.246-0.222-1.659-0.666
				c-0.414-0.443-0.621-1.027-0.621-1.751c0-0.778,0.212-1.394,0.637-1.846c0.424-0.453,1.009-0.679,1.753-0.679
				c0.697,0,1.241,0.218,1.635,0.655C71.133,1202.446,71.33,1203.045,71.33,1203.805L71.33,1203.805z M65.551,1206.179H64.8v-6.974
				h0.751V1206.179z M63.384,1206.179h-0.75v-2.688c0-0.997-0.364-1.494-1.09-1.494c-0.369,0-0.679,0.141-0.927,0.42
				c-0.249,0.28-0.374,0.639-0.374,1.074v2.688h-0.751v-4.711h0.751v0.781h0.019c0.352-0.597,0.864-0.896,1.539-0.896
				c0.516,0,0.91,0.168,1.18,0.506c0.27,0.337,0.405,0.815,0.405,1.435v2.885H63.384z M58.617,1201.468l-1.406,4.711h-0.779
				l-0.966-3.373c-0.033-0.115-0.058-0.259-0.073-0.431h-0.018c-0.009,0.107-0.042,0.249-0.096,0.423l-1.049,3.381h-0.751
				l-1.415-4.711h0.788l0.966,3.542c0.03,0.123,0.052,0.264,0.064,0.423h0.037c0.006-0.116,0.035-0.261,0.086-0.432l1.076-3.534
				h0.688l0.975,3.551c0.031,0.121,0.052,0.261,0.064,0.424h0.036c0.007-0.147,0.032-0.288,0.074-0.424l0.958-3.551h0.741V1201.468
				L58.617,1201.468z M50.778,1203.833c0-0.592-0.131-1.046-0.392-1.362c-0.261-0.316-0.634-0.473-1.119-0.473
				c-0.483,0-0.865,0.161-1.146,0.485c-0.281,0.324-0.421,0.78-0.421,1.368c0,0.564,0.142,1.005,0.424,1.323
				c0.283,0.318,0.664,0.476,1.144,0.476c0.488,0,0.862-0.157,1.121-0.468C50.647,1204.869,50.778,1204.419,50.778,1203.833
				L50.778,1203.833z M51.546,1203.805c0,0.749-0.211,1.35-0.634,1.806c-0.423,0.455-0.99,0.684-1.701,0.684
				c-0.693,0-1.247-0.222-1.66-0.666c-0.414-0.443-0.62-1.027-0.62-1.751c0-0.778,0.212-1.394,0.636-1.846
				c0.424-0.453,1.01-0.679,1.754-0.679c0.696,0,1.241,0.218,1.635,0.655C51.35,1202.446,51.546,1203.045,51.546,1203.805
				L51.546,1203.805z M45.287,1202.816c0-1.69-0.894-2.536-2.679-2.536h-1.026v5.199h0.975c0.867,0,1.539-0.232,2.016-0.697
				C45.049,1204.318,45.287,1203.663,45.287,1202.816z M46.092,1202.798c0,0.671-0.146,1.264-0.439,1.777
				c-0.292,0.513-0.71,0.91-1.25,1.188c-0.54,0.277-1.158,0.416-1.855,0.416h-1.735v-6.597h1.813
				C44.937,1199.582,46.092,1200.654,46.092,1202.798L46.092,1202.798z"/>
			<path fill="#FFFFFF" fill-opacity="0.5" d="M93.993,1218.362c0,0.607-0.232,1.101-0.699,1.48
				c-0.465,0.378-1.085,0.569-1.856,0.569c-0.661,0-1.238-0.142-1.733-0.425v-1.207c0.549,0.449,1.154,0.672,1.814,0.672
				c0.886,0,1.331-0.326,1.331-0.979c0-0.265-0.086-0.481-0.259-0.648c-0.173-0.167-0.567-0.391-1.18-0.675
				c-0.618-0.265-1.056-0.549-1.31-0.853c-0.255-0.304-0.382-0.708-0.382-1.21c0-0.579,0.232-1.063,0.696-1.453
				c0.463-0.387,1.053-0.581,1.767-0.581c0.55,0,1.047,0.109,1.494,0.33v1.129c-0.456-0.333-0.982-0.501-1.583-0.501
				c-0.37,0-0.665,0.092-0.89,0.275c-0.226,0.182-0.338,0.417-0.338,0.706c0,0.311,0.087,0.548,0.259,0.716
				c0.173,0.166,0.531,0.363,1.071,0.591c0.664,0.285,1.13,0.581,1.397,0.892C93.859,1217.501,93.993,1217.892,93.993,1218.362
				L93.993,1218.362L93.993,1218.362z M89.227,1213.223l-2.094,7.017h-1.16l-1.438-5.021c-0.05-0.174-0.087-0.389-0.109-0.645
				h-0.028c-0.014,0.161-0.061,0.37-0.143,0.63l-1.562,5.036h-1.118l-2.108-7.017h1.173l1.438,5.276
				c0.046,0.183,0.078,0.394,0.096,0.63h0.055c0.008-0.173,0.051-0.388,0.129-0.645l1.604-5.262h1.023l1.452,5.29
				c0.044,0.178,0.078,0.388,0.095,0.63h0.054c0.011-0.219,0.047-0.429,0.11-0.63l1.426-5.29L89.227,1213.223L89.227,1213.223z
				 M77.899,1216.746c0-0.882-0.194-1.557-0.583-2.029c-0.389-0.47-0.944-0.706-1.668-0.706c-0.718,0-1.287,0.242-1.704,0.724
				c-0.418,0.482-0.628,1.161-0.628,2.038c0,0.841,0.21,1.497,0.631,1.969c0.42,0.473,0.987,0.71,1.701,0.71
				c0.727,0,1.286-0.233,1.671-0.698C77.707,1218.287,77.899,1217.617,77.899,1216.746L77.899,1216.746z M79.046,1216.704
				c0,1.115-0.314,2.011-0.946,2.689c-0.629,0.679-1.474,1.018-2.533,1.018c-1.031,0-1.856-0.331-2.473-0.99
				c-0.616-0.661-0.924-1.529-0.924-2.607c0-1.161,0.317-2.077,0.949-2.751c0.631-0.675,1.502-1.01,2.612-1.01
				c1.036,0,1.847,0.325,2.435,0.976C78.752,1214.68,79.046,1215.571,79.046,1216.704L79.046,1216.704z M69.668,1217.067v-1.034
				c0-0.58-0.192-1.061-0.577-1.446c-0.384-0.384-0.851-0.576-1.4-0.576c-0.673,0-1.207,0.25-1.603,0.751
				c-0.395,0.5-0.594,1.193-0.594,2.08c0,0.804,0.187,1.439,0.56,1.908c0.373,0.469,0.875,0.703,1.507,0.703
				c0.613,0,1.119-0.224,1.514-0.672C69.471,1218.333,69.668,1217.762,69.668,1217.067L69.668,1217.067z M70.787,1220.24h-1.119
				v-1.192h-0.026c-0.52,0.91-1.319,1.364-2.401,1.364c-0.883,0-1.585-0.318-2.108-0.956c-0.523-0.637-0.784-1.488-0.784-2.551
				c0-1.16,0.289-2.093,0.87-2.796c0.579-0.703,1.355-1.055,2.329-1.055c0.955,0,1.653,0.379,2.094,1.137h0.026v-4.337h1.118
				L70.787,1220.24L70.787,1220.24z M63.025,1220.24h-1.119v-4.001c0-1.484-0.541-2.228-1.622-2.228
				c-0.551,0-1.011,0.209-1.381,0.627c-0.372,0.417-0.557,0.951-0.557,1.6v4.001h-1.118v-7.017h1.118v1.166h0.027
				c0.524-0.891,1.287-1.336,2.292-1.336c0.769,0,1.354,0.251,1.756,0.753c0.402,0.502,0.604,1.215,0.604,2.138V1220.24
				L63.025,1220.24z M55.534,1220.24h-1.119v-7.017h1.119V1220.24z M55.725,1210.916c0,0.21-0.073,0.385-0.218,0.523
				c-0.146,0.14-0.317,0.209-0.519,0.209c-0.205,0-0.377-0.067-0.518-0.202c-0.142-0.136-0.212-0.312-0.212-0.531
				c0-0.196,0.07-0.367,0.209-0.512c0.138-0.143,0.312-0.215,0.521-0.215s0.384,0.071,0.526,0.213
				C55.654,1210.543,55.725,1210.715,55.725,1210.916L55.725,1210.916z M53.506,1210.415l-2.764,9.825H49.4l-2.014-7.187
				c-0.077-0.271-0.125-0.601-0.149-0.993H47.21c-0.036,0.337-0.098,0.665-0.183,0.98l-2.027,7.2h-1.33l-2.858-9.825h1.254
				l2.081,7.537c0.087,0.333,0.142,0.663,0.17,0.986h0.027c0.022-0.279,0.091-0.606,0.205-0.986l2.169-7.537h1.104l2.067,7.591
				c0.078,0.284,0.132,0.587,0.163,0.911h0.027c0.022-0.237,0.084-0.549,0.185-0.938l1.999-7.564H53.506L53.506,1210.415z
				 M126.689,1216.061c-0.009-0.648-0.165-1.152-0.467-1.51c-0.302-0.359-0.729-0.538-1.279-0.538c-0.519,0-0.962,0.188-1.331,0.562
				c-0.369,0.374-0.6,0.871-0.696,1.486H126.689z M127.835,1217.014h-4.931c0.018,0.79,0.226,1.393,0.624,1.812
				c0.398,0.417,0.949,0.626,1.654,0.626c0.791,0,1.512-0.255,2.162-0.767v1.048c-0.609,0.453-1.418,0.678-2.428,0.678
				c-0.996,0-1.773-0.323-2.333-0.969s-0.838-1.541-0.838-2.682c0-0.694,0.14-1.329,0.419-1.901c0.28-0.574,0.665-1.018,1.156-1.333
				c0.491-0.316,1.037-0.473,1.637-0.473c0.905,0,1.611,0.295,2.118,0.887c0.507,0.591,0.76,1.419,0.76,2.484V1217.014
				L127.835,1217.014z M121.097,1214.361c-0.201-0.151-0.484-0.226-0.853-0.226c-0.496,0-0.898,0.234-1.207,0.702
				c-0.31,0.469-0.464,1.078-0.464,1.827v3.576h-1.119v-7.016h1.119v1.445h0.027c0.154-0.484,0.393-0.867,0.716-1.148
				c0.323-0.28,0.694-0.421,1.112-0.421c0.292,0,0.514,0.032,0.669,0.097V1214.361L121.097,1214.361z M115.135,1216.746
				c0-0.881-0.195-1.558-0.583-2.028c-0.389-0.471-0.944-0.706-1.667-0.706c-0.719,0-1.287,0.241-1.706,0.723
				c-0.419,0.482-0.627,1.162-0.627,2.038c0,0.841,0.209,1.498,0.631,1.971c0.421,0.472,0.988,0.708,1.702,0.708
				c0.727,0,1.285-0.232,1.671-0.699C114.942,1218.288,115.135,1217.618,115.135,1216.746L115.135,1216.746z M116.281,1216.705
				c0,1.115-0.315,2.011-0.945,2.69c-0.629,0.677-1.475,1.017-2.534,1.017c-1.032,0-1.856-0.33-2.473-0.99
				c-0.617-0.66-0.925-1.528-0.925-2.607c0-1.16,0.316-2.077,0.949-2.75c0.632-0.675,1.502-1.011,2.612-1.011
				c1.037,0,1.848,0.325,2.436,0.976C115.988,1214.68,116.281,1215.572,116.281,1216.705L116.281,1216.705z M108.569,1220.172
				c-0.269,0.15-0.619,0.227-1.05,0.227c-1.219,0-1.828-0.69-1.828-2.07v-4.152h-1.201v-0.952h1.201v-1.713l1.118-0.363v2.076h1.76
				v0.952h-1.76v3.96c0,0.471,0.08,0.806,0.239,1.004c0.159,0.198,0.425,0.298,0.798,0.298c0.276,0,0.519-0.075,0.723-0.227
				V1220.172L108.569,1220.172z M103.947,1217.76c0,0.827-0.291,1.475-0.873,1.946c-0.582,0.47-1.374,0.706-2.373,0.706
				c-0.363,0-0.774-0.061-1.231-0.182c-0.458-0.121-0.781-0.248-0.973-0.38v-1.364c0.278,0.252,0.642,0.462,1.095,0.631
				c0.453,0.169,0.874,0.253,1.265,0.253c1.255,0,1.882-0.49,1.882-1.473c0-0.411-0.133-0.764-0.402-1.059
				c-0.268-0.294-0.818-0.682-1.65-1.162c-0.805-0.457-1.369-0.89-1.692-1.301c-0.323-0.412-0.484-0.912-0.484-1.5
				c0-0.777,0.289-1.409,0.867-1.895c0.578-0.486,1.323-0.729,2.237-0.729c0.878,0,1.52,0.116,1.924,0.35v1.287
				c-0.509-0.401-1.171-0.602-1.985-0.602c-0.541,0-0.983,0.136-1.326,0.407c-0.344,0.272-0.516,0.632-0.516,1.08
				c0,0.324,0.052,0.585,0.153,0.78c0.103,0.197,0.275,0.391,0.519,0.583c0.244,0.191,0.654,0.45,1.231,0.774
				c0.864,0.484,1.468,0.941,1.814,1.37C103.773,1216.709,103.947,1217.203,103.947,1217.76L103.947,1217.76z"/>
		</g>
	</g>
	<g transform="translate(-1 -1190)" sketch:type="MSLayerGroup">
		<g sketch:type="MSShapeGroup">
			<path fill="#FFFFFF" fill-opacity="0.5" d="M103.059,1206.179h-0.752v-2.705c0-0.528-0.08-0.906-0.24-1.134
				c-0.161-0.229-0.43-0.343-0.809-0.343c-0.321,0-0.593,0.146-0.817,0.442c-0.224,0.294-0.336,0.645-0.336,1.053v2.688h-0.751
				v-2.796c0-0.924-0.355-1.385-1.067-1.385c-0.33,0-0.601,0.139-0.815,0.416c-0.214,0.278-0.321,0.637-0.321,1.078v2.688H96.4
				v-4.71h0.751v0.745h0.019c0.333-0.573,0.816-0.859,1.452-0.859c0.305,0,0.58,0.085,0.824,0.258
				c0.245,0.171,0.414,0.412,0.509,0.722c0.348-0.653,0.867-0.979,1.557-0.979c1.032,0,1.548,0.641,1.548,1.923L103.059,1206.179
				L103.059,1206.179L103.059,1206.179z M94.468,1203.833c0-0.592-0.131-1.046-0.392-1.362c-0.261-0.316-0.633-0.474-1.119-0.474
				c-0.482,0-0.865,0.162-1.146,0.485c-0.281,0.324-0.421,0.78-0.421,1.368c0,0.565,0.141,1.005,0.424,1.323
				c0.282,0.318,0.663,0.476,1.143,0.476c0.488,0,0.862-0.157,1.122-0.468C94.337,1204.868,94.468,1204.419,94.468,1203.833
				L94.468,1203.833z M95.237,1203.805c0,0.749-0.212,1.35-0.634,1.806c-0.423,0.455-0.99,0.684-1.702,0.684
				c-0.693,0-1.247-0.222-1.66-0.666c-0.413-0.443-0.62-1.027-0.62-1.751c0-0.778,0.212-1.394,0.636-1.846
				c0.425-0.453,1.01-0.679,1.754-0.679c0.696,0,1.241,0.218,1.635,0.655C95.04,1202.446,95.237,1203.044,95.237,1203.805
				L95.237,1203.805z M90.28,1202.232c-0.135-0.101-0.326-0.152-0.574-0.152c-0.333,0-0.603,0.157-0.81,0.472
				c-0.208,0.314-0.312,0.723-0.312,1.226v2.402h-0.751v-4.711h0.751v0.971h0.018c0.104-0.325,0.264-0.582,0.48-0.771
				c0.217-0.188,0.465-0.283,0.747-0.283c0.196,0,0.345,0.021,0.449,0.063v0.782H90.28z M87.216,1199.868
				c-0.146-0.083-0.312-0.124-0.5-0.124c-0.524,0-0.787,0.333-0.787,0.998v0.727h1.099v0.639h-1.099v4.072h-0.751v-4.072h-0.796
				v-0.639h0.796v-0.764c0-0.478,0.14-0.865,0.422-1.159c0.281-0.294,0.638-0.442,1.071-0.442c0.229,0,0.411,0.027,0.545,0.083
				V1199.868L87.216,1199.868z M80.443,1204.049v-0.695c0-0.389-0.129-0.712-0.388-0.97c-0.257-0.257-0.571-0.386-0.941-0.386
				c-0.452,0-0.81,0.167-1.076,0.503c-0.265,0.335-0.398,0.801-0.398,1.396c0,0.539,0.125,0.967,0.376,1.281
				c0.25,0.314,0.587,0.471,1.012,0.471c0.413,0,0.751-0.15,1.017-0.451C80.31,1204.898,80.443,1204.516,80.443,1204.049
				L80.443,1204.049L80.443,1204.049z M81.194,1206.179h-0.75v-0.8h-0.019c-0.348,0.61-0.886,0.916-1.612,0.916
				c-0.591,0-1.063-0.215-1.415-0.643c-0.352-0.428-0.527-0.999-0.527-1.713c0-0.78,0.196-1.404,0.584-1.877
				c0.39-0.473,0.911-0.708,1.564-0.708c0.641,0,1.11,0.254,1.406,0.763h0.019v-2.912h0.75V1206.179L81.194,1206.179z
				 M75.062,1203.797l-1.136,0.161c-0.388,0.055-0.659,0.148-0.815,0.278c-0.156,0.131-0.234,0.341-0.234,0.633
				c0,0.235,0.083,0.425,0.252,0.567c0.167,0.142,0.383,0.214,0.646,0.214c0.373,0,0.68-0.132,0.923-0.396
				c0.242-0.264,0.364-0.593,0.364-0.989V1203.797L75.062,1203.797z M75.813,1206.179h-0.75v-0.736h-0.018
				c-0.327,0.567-0.808,0.852-1.443,0.852c-0.451,0-0.813-0.124-1.085-0.372c-0.271-0.247-0.407-0.579-0.407-0.996
				c0-0.877,0.516-1.389,1.547-1.537l1.407-0.197c0-0.797-0.322-1.195-0.966-1.195c-0.565,0-1.075,0.191-1.529,0.575v-0.773
				c0.137-0.105,0.372-0.205,0.705-0.301c0.333-0.097,0.629-0.145,0.889-0.145c1.102,0,1.653,0.586,1.653,1.762v3.063H75.813z
				 M70.56,1203.833c0-0.592-0.13-1.046-0.392-1.362c-0.261-0.316-0.633-0.473-1.119-0.473c-0.482,0-0.865,0.161-1.145,0.485
				c-0.281,0.324-0.422,0.78-0.422,1.368c0,0.564,0.142,1.005,0.423,1.323c0.283,0.318,0.664,0.476,1.144,0.476
				c0.488,0,0.862-0.157,1.122-0.468C70.431,1204.869,70.561,1204.419,70.56,1203.833L70.56,1203.833z M71.33,1203.805
				c0,0.749-0.212,1.35-0.634,1.806c-0.423,0.455-0.99,0.684-1.702,0.684c-0.692,0-1.246-0.222-1.659-0.666
				c-0.414-0.443-0.621-1.027-0.621-1.751c0-0.778,0.212-1.394,0.637-1.846c0.424-0.453,1.009-0.679,1.753-0.679
				c0.697,0,1.241,0.218,1.635,0.655C71.133,1202.446,71.33,1203.045,71.33,1203.805L71.33,1203.805z M65.551,1206.179H64.8v-6.974
				h0.751V1206.179z M63.384,1206.179h-0.75v-2.688c0-0.997-0.364-1.494-1.09-1.494c-0.369,0-0.679,0.141-0.927,0.42
				c-0.249,0.28-0.374,0.639-0.374,1.074v2.688h-0.751v-4.711h0.751v0.781h0.019c0.352-0.597,0.864-0.896,1.539-0.896
				c0.516,0,0.91,0.168,1.18,0.506c0.27,0.337,0.405,0.815,0.405,1.435v2.885H63.384z M58.617,1201.468l-1.406,4.711h-0.779
				l-0.966-3.373c-0.033-0.115-0.058-0.259-0.073-0.431h-0.018c-0.009,0.107-0.042,0.249-0.096,0.423l-1.049,3.381h-0.751
				l-1.415-4.711h0.788l0.966,3.542c0.03,0.123,0.052,0.264,0.064,0.423h0.037c0.006-0.116,0.035-0.261,0.086-0.432l1.076-3.534
				h0.688l0.975,3.551c0.031,0.121,0.052,0.261,0.064,0.424h0.036c0.007-0.147,0.032-0.288,0.074-0.424l0.958-3.551h0.741V1201.468
				L58.617,1201.468z M50.778,1203.833c0-0.592-0.131-1.046-0.392-1.362c-0.261-0.316-0.634-0.473-1.119-0.473
				c-0.483,0-0.865,0.161-1.146,0.485c-0.281,0.324-0.421,0.78-0.421,1.368c0,0.564,0.142,1.005,0.424,1.323
				c0.283,0.318,0.664,0.476,1.144,0.476c0.488,0,0.862-0.157,1.121-0.468C50.647,1204.869,50.778,1204.419,50.778,1203.833
				L50.778,1203.833z M51.546,1203.805c0,0.749-0.211,1.35-0.634,1.806c-0.423,0.455-0.99,0.684-1.701,0.684
				c-0.693,0-1.247-0.222-1.66-0.666c-0.414-0.443-0.62-1.027-0.62-1.751c0-0.778,0.212-1.394,0.636-1.846
				c0.424-0.453,1.01-0.679,1.754-0.679c0.696,0,1.241,0.218,1.635,0.655C51.35,1202.446,51.546,1203.045,51.546,1203.805
				L51.546,1203.805z M45.287,1202.816c0-1.69-0.894-2.536-2.679-2.536h-1.026v5.199h0.975c0.867,0,1.539-0.232,2.016-0.697
				C45.049,1204.318,45.287,1203.663,45.287,1202.816z M46.092,1202.798c0,0.671-0.146,1.264-0.439,1.777
				c-0.292,0.513-0.71,0.91-1.25,1.188c-0.54,0.277-1.158,0.416-1.855,0.416h-1.735v-6.597h1.813
				C44.937,1199.582,46.092,1200.654,46.092,1202.798L46.092,1202.798z"/>
			<path fill="#FFFFFF" fill-opacity="0.5" d="M93.993,1218.362c0,0.607-0.232,1.101-0.699,1.48
				c-0.465,0.378-1.085,0.569-1.856,0.569c-0.661,0-1.238-0.142-1.733-0.425v-1.207c0.549,0.449,1.154,0.672,1.814,0.672
				c0.886,0,1.331-0.326,1.331-0.979c0-0.265-0.086-0.481-0.259-0.648c-0.173-0.167-0.567-0.391-1.18-0.675
				c-0.618-0.265-1.056-0.549-1.31-0.853c-0.255-0.304-0.382-0.708-0.382-1.21c0-0.579,0.232-1.063,0.696-1.453
				c0.463-0.387,1.053-0.581,1.767-0.581c0.55,0,1.047,0.109,1.494,0.33v1.129c-0.456-0.333-0.982-0.501-1.583-0.501
				c-0.37,0-0.665,0.092-0.89,0.275c-0.226,0.182-0.338,0.417-0.338,0.706c0,0.311,0.087,0.548,0.259,0.716
				c0.173,0.166,0.531,0.363,1.071,0.591c0.664,0.285,1.13,0.581,1.397,0.892C93.859,1217.501,93.993,1217.892,93.993,1218.362
				L93.993,1218.362L93.993,1218.362z M89.227,1213.223l-2.094,7.017h-1.16l-1.438-5.021c-0.05-0.174-0.087-0.389-0.109-0.645
				h-0.028c-0.014,0.161-0.061,0.37-0.143,0.63l-1.562,5.036h-1.118l-2.108-7.017h1.173l1.438,5.276
				c0.046,0.183,0.078,0.394,0.096,0.63h0.055c0.008-0.173,0.051-0.388,0.129-0.645l1.604-5.262h1.023l1.452,5.29
				c0.044,0.178,0.078,0.388,0.095,0.63h0.054c0.011-0.219,0.047-0.429,0.11-0.63l1.426-5.29L89.227,1213.223L89.227,1213.223z
				 M77.899,1216.746c0-0.882-0.194-1.557-0.583-2.029c-0.389-0.47-0.944-0.706-1.668-0.706c-0.718,0-1.287,0.242-1.704,0.724
				c-0.418,0.482-0.628,1.161-0.628,2.038c0,0.841,0.21,1.497,0.631,1.969c0.42,0.473,0.987,0.71,1.701,0.71
				c0.727,0,1.286-0.233,1.671-0.698C77.707,1218.287,77.899,1217.617,77.899,1216.746L77.899,1216.746z M79.046,1216.704
				c0,1.115-0.314,2.011-0.946,2.689c-0.629,0.679-1.474,1.018-2.533,1.018c-1.031,0-1.856-0.331-2.473-0.99
				c-0.616-0.661-0.924-1.529-0.924-2.607c0-1.161,0.317-2.077,0.949-2.751c0.631-0.675,1.502-1.01,2.612-1.01
				c1.036,0,1.847,0.325,2.435,0.976C78.752,1214.68,79.046,1215.571,79.046,1216.704L79.046,1216.704z M69.668,1217.067v-1.034
				c0-0.58-0.192-1.061-0.577-1.446c-0.384-0.384-0.851-0.576-1.4-0.576c-0.673,0-1.207,0.25-1.603,0.751
				c-0.395,0.5-0.594,1.193-0.594,2.08c0,0.804,0.187,1.439,0.56,1.908c0.373,0.469,0.875,0.703,1.507,0.703
				c0.613,0,1.119-0.224,1.514-0.672C69.471,1218.333,69.668,1217.762,69.668,1217.067L69.668,1217.067z M70.787,1220.24h-1.119
				v-1.192h-0.026c-0.52,0.91-1.319,1.364-2.401,1.364c-0.883,0-1.585-0.318-2.108-0.956c-0.523-0.637-0.784-1.488-0.784-2.551
				c0-1.16,0.289-2.093,0.87-2.796c0.579-0.703,1.355-1.055,2.329-1.055c0.955,0,1.653,0.379,2.094,1.137h0.026v-4.337h1.118
				L70.787,1220.24L70.787,1220.24z M63.025,1220.24h-1.119v-4.001c0-1.484-0.541-2.228-1.622-2.228
				c-0.551,0-1.011,0.209-1.381,0.627c-0.372,0.417-0.557,0.951-0.557,1.6v4.001h-1.118v-7.017h1.118v1.166h0.027
				c0.524-0.891,1.287-1.336,2.292-1.336c0.769,0,1.354,0.251,1.756,0.753c0.402,0.502,0.604,1.215,0.604,2.138V1220.24
				L63.025,1220.24z M55.534,1220.24h-1.119v-7.017h1.119V1220.24z M55.725,1210.916c0,0.21-0.073,0.385-0.218,0.523
				c-0.146,0.14-0.317,0.209-0.519,0.209c-0.205,0-0.377-0.067-0.518-0.202c-0.142-0.136-0.212-0.312-0.212-0.531
				c0-0.196,0.07-0.367,0.209-0.512c0.138-0.143,0.312-0.215,0.521-0.215s0.384,0.071,0.526,0.213
				C55.654,1210.543,55.725,1210.715,55.725,1210.916L55.725,1210.916z M53.506,1210.415l-2.764,9.825H49.4l-2.014-7.187
				c-0.077-0.271-0.125-0.601-0.149-0.993H47.21c-0.036,0.337-0.098,0.665-0.183,0.98l-2.027,7.2h-1.33l-2.858-9.825h1.254
				l2.081,7.537c0.087,0.333,0.142,0.663,0.17,0.986h0.027c0.022-0.279,0.091-0.606,0.205-0.986l2.169-7.537h1.104l2.067,7.591
				c0.078,0.284,0.132,0.587,0.163,0.911h0.027c0.022-0.237,0.084-0.549,0.185-0.938l1.999-7.564H53.506L53.506,1210.415z
				 M126.689,1216.061c-0.009-0.648-0.165-1.152-0.467-1.51c-0.302-0.359-0.729-0.538-1.279-0.538c-0.519,0-0.962,0.188-1.331,0.562
				c-0.369,0.374-0.6,0.871-0.696,1.486H126.689z M127.835,1217.014h-4.931c0.018,0.79,0.226,1.393,0.624,1.812
				c0.398,0.417,0.949,0.626,1.654,0.626c0.791,0,1.512-0.255,2.162-0.767v1.048c-0.609,0.453-1.418,0.678-2.428,0.678
				c-0.996,0-1.773-0.323-2.333-0.969s-0.838-1.541-0.838-2.682c0-0.694,0.14-1.329,0.419-1.901c0.28-0.574,0.665-1.018,1.156-1.333
				c0.491-0.316,1.037-0.473,1.637-0.473c0.905,0,1.611,0.295,2.118,0.887c0.507,0.591,0.76,1.419,0.76,2.484V1217.014
				L127.835,1217.014z M121.097,1214.361c-0.201-0.151-0.484-0.226-0.853-0.226c-0.496,0-0.898,0.234-1.207,0.702
				c-0.31,0.469-0.464,1.078-0.464,1.827v3.576h-1.119v-7.016h1.119v1.445h0.027c0.154-0.484,0.393-0.867,0.716-1.148
				c0.323-0.28,0.694-0.421,1.112-0.421c0.292,0,0.514,0.032,0.669,0.097V1214.361L121.097,1214.361z M115.135,1216.746
				c0-0.881-0.195-1.558-0.583-2.028c-0.389-0.471-0.944-0.706-1.667-0.706c-0.719,0-1.287,0.241-1.706,0.723
				c-0.419,0.482-0.627,1.162-0.627,2.038c0,0.841,0.209,1.498,0.631,1.971c0.421,0.472,0.988,0.708,1.702,0.708
				c0.727,0,1.285-0.232,1.671-0.699C114.942,1218.288,115.135,1217.618,115.135,1216.746L115.135,1216.746z M116.281,1216.705
				c0,1.115-0.315,2.011-0.945,2.69c-0.629,0.677-1.475,1.017-2.534,1.017c-1.032,0-1.856-0.33-2.473-0.99
				c-0.617-0.66-0.925-1.528-0.925-2.607c0-1.16,0.316-2.077,0.949-2.75c0.632-0.675,1.502-1.011,2.612-1.011
				c1.037,0,1.848,0.325,2.436,0.976C115.988,1214.68,116.281,1215.572,116.281,1216.705L116.281,1216.705z M108.569,1220.172
				c-0.269,0.15-0.619,0.227-1.05,0.227c-1.219,0-1.828-0.69-1.828-2.07v-4.152h-1.201v-0.952h1.201v-1.713l1.118-0.363v2.076h1.76
				v0.952h-1.76v3.96c0,0.471,0.08,0.806,0.239,1.004c0.159,0.198,0.425,0.298,0.798,0.298c0.276,0,0.519-0.075,0.723-0.227
				V1220.172L108.569,1220.172z M103.947,1217.76c0,0.827-0.291,1.475-0.873,1.946c-0.582,0.47-1.374,0.706-2.373,0.706
				c-0.363,0-0.774-0.061-1.231-0.182c-0.458-0.121-0.781-0.248-0.973-0.38v-1.364c0.278,0.252,0.642,0.462,1.095,0.631
				c0.453,0.169,0.874,0.253,1.265,0.253c1.255,0,1.882-0.49,1.882-1.473c0-0.411-0.133-0.764-0.402-1.059
				c-0.268-0.294-0.818-0.682-1.65-1.162c-0.805-0.457-1.369-0.89-1.692-1.301c-0.323-0.412-0.484-0.912-0.484-1.5
				c0-0.777,0.289-1.409,0.867-1.895c0.578-0.486,1.323-0.729,2.237-0.729c0.878,0,1.52,0.116,1.924,0.35v1.287
				c-0.509-0.401-1.171-0.602-1.985-0.602c-0.541,0-0.983,0.136-1.326,0.407c-0.344,0.272-0.516,0.632-0.516,1.08
				c0,0.324,0.052,0.585,0.153,0.78c0.103,0.197,0.275,0.391,0.519,0.583c0.244,0.191,0.654,0.45,1.231,0.774
				c0.864,0.484,1.468,0.941,1.814,1.37C103.773,1216.709,103.947,1217.203,103.947,1217.76L103.947,1217.76z"/>
		</g>
	</g>
</g>
</svg>
