<svg xmlns="http://www.w3.org/2000/svg" width="93.116" height="39.529" viewBox="0 0 93.116 39.529"><g fill="#FFF"><path d="M25.712 26.196c-.443 1.573-1.255 3.707.386 3.707.62 0 1.09-.48 1.445-1.137.397-1.52.85-3.257 1.28-4.912-.266.01-.603.02-.98.02-1.79 0-1.977 1.774-2.13 2.322zM85.904 7.994c0-.125-.104-.153-.21-.153h-.202v.31h.145c.134 0 .267-.004.267-.155z"/><path d="M90.81 0H12.686c-1.63 0-3.304 1.29-3.718 2.868L.094 36.664c-.414 1.575.58 2.865 2.212 2.865h78.12c1.63 0 3.304-1.29 3.718-2.867l8.878-33.796C93.437 1.29 92.442 0 90.812 0zM60.28 17.317c-.256.986-.582 2.45-1.07 4.246h-5.75L59.456 9.82l-1.168 4.073c1.75.72 2.318 2.156 1.99 3.424zm-4.673-3.89c.254 0 .495.012.728.03L46.94 24.394c.21-.773 1.593-6.014 1.876-7.096.657-2.5 2.532-3.872 6.79-3.872zm-43.44 19.606h-4.44l6.983-26.61h11.765l-1.054 4.11h-7.35l-1.78 6.785h5.678l-1.073 4.11h-5.682l-3.046 11.605zm14.262 0l.52-1.982c-2.28 2.528-5.265 2.564-6.31 1.284-1.11-1.36-.285-3.384.68-6.877.96-3.493 4.155-4.067 6.03-4.067 1.15 0 1.54.025 2.134 0 .448-1.74.797-3.202.906-3.682.398-1.75-.552-1.774-.84-1.774-.677 0-1.18.09-1.556 1.5-.377 1.408-.542 2.158-.542 2.158h-4.466s.09-.35.595-2.28c.656-2.5 2.558-3.883 6.815-3.883 3.843 0 5.132 2.11 4.672 3.89-.46 1.773-4.12 15.713-4.12 15.713h-4.52zm6.135-.012l6.983-26.607h4.44l-6.98 26.61h-4.443zm6.05.014l6.982-26.61h4.44l-6.98 26.61h-4.44zm7.017-3.763c.24-.92.784-2.935 1.253-4.66h5.688l-3.207 8.5c-3.108-.32-4.153-2.218-3.733-3.84zm6.545 3.78l-4.26 3.896L59.15 21.772c-.174.64-1.776 6.437-2.06 7.516-.55 2.098-1.963 3.396-4.915 3.763zm12.51-.016s.208-.775.542-2.008c-2.284 2.55-4.997 2.592-6.048 1.308-1.11-1.36-.474-3.23.49-6.72l3.04-11.502h4.43L64 26.07c-.442 1.574-1.213 3.833.354 3.833.66 0 1.153-.548 1.515-1.274.233-.867 3.633-13.57 3.85-14.518l4.454-.002c-.46 1.777-5.05 18.923-5.05 18.923h-4.44zm18.85-16.364H81.38l-2.573 9.526c-.442 1.573-1.21 3.705.344 3.705h.938l-.81 3.134c-3.13.127-4.625.26-5.547-.7-1.213-1.27-.407-3.23.557-6.72l2.396-8.944h-1.67l.657-2.56h1.698l1.463-5.457 5.305-2.187-2.065 7.644h2.123l-.656 2.56zm2.125-7.707c-.436 0-.77-.337-.77-.77 0-.434.334-.77.77-.77.434 0 .77.336.77.77 0 .432-.336.77-.77.77z"/><path d="M85.662 7.532c-.374 0-.65.292-.65.66s.276.66.65.66c.373 0 .65-.29.65-.66s-.277-.66-.65-.66zm.265 1.106l-.25-.396h-.184v.396h-.11v-.89h.342c.2 0 .29.086.29.246 0 .157-.103.228-.223.25l.264.395h-.13z"/></g></svg>