<svg xmlns="http://www.w3.org/2000/svg" width="19.048" height="19.16" viewBox="0 0 19.048 19.16"><path fill="none" stroke="#FFF" stroke-width=".451" stroke-miterlimit="10" d="M0 0h19.048v19.16H0z"/><path d="M1.755 1.375H5.4c2.154 0 3.623 1.06 3.623 3.186v.027C9.023 6.75 7.53 7.9 5.343 7.9h-.88v2.43H1.756V1.376zm3.438 4.388c.695 0 1.156-.346 1.156-.985v-.026c0-.652-.428-.984-1.147-.984h-.74v1.995h.73zm4.342.114v-.025c0-2.674 1.887-4.67 4.305-4.67 1.78 0 2.986.96 3.67 2.33l-2.236 1.445c-.3-.64-.73-1.088-1.47-1.088-.913 0-1.517.88-1.517 1.955v.025c0 1.166.627 1.984 1.516 1.984.766 0 1.193-.46 1.53-1.126l2.233 1.395c-.684 1.33-1.816 2.418-3.832 2.418-2.244 0-4.2-1.865-4.2-4.642zM1.637 15.57v-.01c0-1.188.85-2.076 1.986-2.076.616 0 1.116.228 1.507.603l-.675.898c-.235-.222-.498-.347-.796-.347-.47 0-.81.397-.81.938v.012c0 .562.355.95.858.95.206 0 .318-.034.41-.093v-.396h-.615v-.856h1.743v1.843c-.39.353-.936.597-1.588.597-1.122 0-2.023-.83-2.023-2.064zm5.33-2.03H8.16l1.52 4.01H8.37l-.188-.534h-1.26l-.186.533H5.45l1.518-4.01zm.915 2.532l-.33-.967-.328.967h.658zm2.058-2.504h1.255l.77 1.4.774-1.4h1.252v3.98h-1.197v-1.973l-.83 1.416h-.02l-.828-1.414v1.973H9.94v-3.98zm4.58 0h3.07v1.092H15.7v.404h1.76v.96H15.7v.435h1.914v1.09h-3.096v-3.983zM1.64 11.793h15.97v.227H1.64z" fill="#FFF"/></svg>