<svg xmlns="http://www.w3.org/2000/svg" viewBox="0 0 114 154.3">
  <path d="M113.8.4H-.2v154.3h114V.4h0z" fill="#fff" />
  <path d="M112.2 2v151H1.6V2h110.6" />
  <path d="M7.6 7.7h98.7v23H7.6zm.2 28.7h98.6v89.8H7.8z" fill="#fff" />
  <path
    d="M13.4 12.1c2.2 0 3.1.6 3.1 2.6v3c0 1.9-.9 2.6-2.9 2.6h-.5v6.1h-1.8V12.1h2.1zm-.4 6.7h.3c1.1 0 1.3-.4 1.3-1.7v-1.9c0-1.3-.2-1.7-1.3-1.7H13v5.3zm6.9-6.7c2.1 0 3 .6 3 2.4v2.3c0 1.4-.5 2.1-2 2.2 1.6.1 2.1.8 2.1 2.4v5h-2v-5c0-1.3-.2-1.6-1.5-1.6h-.4v6.6h-1.8V12.1h2.6zm-.7 6.2h.4c1.2 0 1.4-.4 1.4-1.6v-1.6c0-1.2-.3-1.6-1.4-1.6h-.4v4.8zm7-6.2v14.3h-1.9V12.1h1.9zm2.6 0l1.3 12h.1l1.2-12H33l-1.8 14.3h-2.4l-2-14.3h2zm9 0L40 26.4h-2l-.5-3.6h-2.4l-.5 3.6H33l2.3-14.3h2.5zm-2.4 9.2h2l-.9-7.6h-.1l-1 7.6zM46 16h-1.8v-1c0-1.1-.2-1.7-.8-1.7-.8 0-.9.6-.9 2v7.8c0 1.4.1 2 .9 2 .6 0 .8-.5.8-1.6v-1.3h1.9v1.3c0 2.2-.6 3.1-2.7 3.1-2.2 0-2.7-1.1-2.7-3.8v-7.1c0-2.7.6-3.8 2.7-3.8s2.7.9 2.7 3.1v1H46zm1.8-3.9l1.3 6.3h.1l1.2-6.3H52l-2.2 8.3v5.9H48v-5.9l-2-8.3h1.8zm13 3.9H59v-1c0-1.1-.2-1.7-.8-1.7-.8 0-.9.6-.9 2v7.8c0 1.4.1 2 .9 2 .6 0 .8-.5.8-1.6v-1.3h1.9v1.3c0 2.2-.6 3.1-2.7 3.1-2.2 0-2.7-1.1-2.7-3.8v-7.1c0-2.7.6-3.8 2.7-3.8s2.7.9 2.7 3.1l-.1 1h0zm5.4-3.9v1.5h-2.4v4.5h2.3v1.5h-2.3v5.2h2.6v1.5H62V12.1h4.2zm3.6 0c2.1 0 3 .6 3 2.4v2.3c0 1.4-.5 2.1-2 2.2 1.6.1 2.1.8 2.1 2.4v5H71v-5c0-1.3-.2-1.6-1.5-1.6h-.4v6.6h-1.8V12.1h2.5zm-.6 6.2h.4c1.2 0 1.4-.4 1.4-1.6v-1.6c0-1.2-.3-1.6-1.4-1.6h-.4v4.8zm9.6-6.2v1.5h-1.7v12.7h-1.9V13.6h-1.7v-1.5h5.3zm2.5 0v14.3h-1.9V12.1h1.9zm5.9 0v1.5h-2.4v4.7h2.3v1.5h-2.3v6.6H83V12.1h4.2zm2.9 0v14.3h-1.9V12.1h1.9zm5.7 0v1.5h-2.4v4.5h2.3v1.5h-2.3v5.2H96v1.5h-4.4V12.1h4.2zm3.3 0c3 0 3.6.8 3.6 4v6.3c0 3.1-.6 4-3.6 4h-1.9V12.1h1.9zM99 24.9h.4c1.2 0 1.5-.3 1.5-1.6v-8.2c0-1.2-.3-1.6-1.5-1.6H99v11.4z" />
  <path
    d="M7.9 145.8v-13.5h19.8v3.2H15.9v1.9h10v3.2h-10v2.1h12.3v3.1zm37.2-9.5c-.1-.5-.6-.7-1.2-.9s-1.3-.2-2.1-.2c-1.8 0-2.5.3-2.5.8 0 2 14 .8 14 5.7 0 3.1-4.7 4.7-11.4 4.7-6.4 0-10.6-2.1-10.8-4.5h7.6c.2.5.6.8 1.3 1.1.6.2 1.5.3 2.3.3 2 0 3.3-.3 3.3-1 0-2-14-.6-14-5.8 0-2.9 4.5-4.3 10.6-4.3 6.8 0 9.8 1.9 10.4 4.3h-7.5v-.2zm20.1 1.9h3.1c2.5 0 3.8-.4 3.8-1.3 0-1-1.4-1.4-3.2-1.4h-3.7v2.7zm0 2.9v4.7h-8v-13.5h11.5c8.1 0 10.8 1.2 10.8 3.9 0 1.6-1.2 2.9-4.1 3.3 2.6.5 4.1.8 4.1 3.6 0 1.8-.1 2.4.8 2.4v.4h-8.1c-.2-.3-.4-1.2-.4-2.4 0-1.8-.5-2.3-4.3-2.3l-2.3-.1h0zm27.1-5.6v2.3h3.3c1.6 0 2.7-.4 2.7-1.2 0-1.1-1.6-1.1-3.2-1.1h-2.8zm0 4.7v2.5h3.5c2 0 3.5-.2 3.5-1.2 0-1.2-1.9-1.3-4.4-1.3h-2.6zm-8 5.6v-13.5h11.6c5.5 0 9.8.7 9.8 3.4 0 1.4-1.6 2.4-3.2 2.9 2.6.4 4.1 1.6 4.1 3.1 0 3-4.2 4.1-10.5 4.1H84.3zM18.9 66.2c-1.9 1.3-3.3 3-3.2 5.6.1 2.7 1.8 4.3 4.1 5.4-1.3 2.2-1.9 4.3-.7 6.6 1.2 2.4 3.3 3.2 5.9 3.2v1.7c-.1 4.1 3.7 6.9 7.6 5.6 1.1-.4 1.4-.1 1.8.9 1.4 4 6.2 5.2 9.4 2.3.3-.3.6-.5 1-.9 1.6 2.1 3.6 3.1 6.1 2.7 2.6-.4 3.9-2.3 4.9-4.6 2.3 1.2 4.6 1.4 6.7 0 2.2-1.5 2.7-3.7 2.5-6.2 2.5 0 4.7-.5 6.1-2.7s1-4.5-.2-6.8c2.4-.9 4.1-2.4 4.5-5s-.9-4.5-2.8-6c.2-.2.2-.4.3-.5 3.5-3.2 2-9.2-2.6-10.1-.8-.2-.7-.6-.6-1.2.2-1.1.4-2.3.2-3.4-.6-3-3-4.5-6.4-4.3-.9.1-1.3-.1-1.4-1.1-.3-3.1-2.8-5.3-5.9-5.1-1.3.1-2.6.7-4.1 1.1-1.1-1.9-2.6-3.5-5.3-3.6s-4.4 1.3-5.8 3.6c-2-1.7-4.1-2.4-6.6-1.4s-3.5 3-3.8 5.6c-.4-.1-.6-.1-.8-.2-5.2-1.1-8.4 3.3-7.1 7.3.2.7-.1.9-.8 1.1-3.5.8-5.3 3.4-4.6 6.8.2 1.3.9 2.4 1.6 3.6zm59.3 6.7c0 .2-.1.3-.1.4-.1 2.8-1.2 5-3.3 6.8-.3.2-.4.9-.3 1.4.6 4.3-1.8 8.2-6 9.5-.4.1-.7.4-1.1.6.3.3.6.7.9.9l18.8 10.1c.3.2.7.3 1 .5V91.7c0-.5.4-1.1.8-1.4 1.4-1 2.9-1.9 4.3-2.8l5.4-3.5c-6.8-3.9-13.4-7.5-20.4-11.1zm-23.6 50.5c.4-.4.6-.7.9-1l6.4-8c.3-.3.8-.7 1.2-.7l4.4.5 7.4.8-8.4-20.5c-2.7 3.2-4.6 4-8.6 3.8-.4 0-1 .3-1.3.7-1.8 2.1-4 3.2-6.7 3.1-1.4-.1-2.7-.5-4.2-.8l8.9 22.1zm44-8.6c-2.6 0-4.6 2-4.6 4.6 0 2.5 2.1 4.5 4.6 4.5 2.6 0 4.5-2 4.5-4.6a4.48 4.48 0 0 0-4.5-4.5z"
    fill="#fff" />
  <path
    d="M18.9 66.2c-.6-1.3-1.4-2.4-1.6-3.6-.7-3.4 1.2-6 4.6-6.8.7-.2 1-.4.8-1.1-1.3-4 1.9-8.4 7.1-7.3.2 0 .5.1.8.2.3-2.5 1.3-4.6 3.8-5.6 2.4-.9 4.5-.2 6.6 1.4 1.4-2.3 3.1-3.7 5.8-3.6 2.6.1 4.2 1.7 5.3 3.6 1.5-.4 2.8-1 4.1-1.1 3.1-.2 5.6 2 5.9 5.1.1 1.1.5 1.2 1.4 1.1 3.4-.2 5.8 1.3 6.4 4.3.2 1.1 0 2.3-.2 3.4-.1.6-.2 1.1.6 1.2 4.6 1 6.2 6.9 2.6 10.1-.1.1-.2.3-.3.5 2 1.5 3.2 3.4 2.8 6s-2.1 4-4.5 5c1.2 2.3 1.6 4.5.2 6.8-1.4 2.2-3.6 2.8-6.1 2.7.2 2.5-.3 4.7-2.5 6.2-2.2 1.4-4.4 1.2-6.7 0-.9 2.3-2.2 4.2-4.9 4.6-2.6.4-4.5-.6-6.1-2.7-.4.3-.7.6-1 .9-3.2 2.9-8 1.7-9.4-2.3-.4-1-.7-1.3-1.8-.9-3.9 1.3-7.7-1.5-7.6-5.6V87c-2.5 0-4.6-.8-5.9-3.2-1.2-2.3-.6-4.5.7-6.6-2.3-1.1-4-2.7-4.1-5.4-.1-2.6 1.3-4.3 3.2-5.6zm27 28.7c13.9 0 25.1-11.1 25.2-25 .1-13.8-11.3-25.1-25.2-25.1-13.7 0-25 11.2-25 24.9-.1 13.9 11.1 25.2 25 25.2zm32.3-22l20.5 11-5.4 3.5-4.3 2.8c-.4.3-.8.9-.8 1.4-.1 3.8 0 7.5 0 11.4a4.67 4.67 0 0 1-1-.5L68.4 92.4c-.4-.2-.6-.6-.9-.9.4-.2.7-.5 1.1-.6 4.1-1.3 6.6-5.2 6-9.5-.1-.4 0-1.1.3-1.4 2.1-1.8 3.2-4 3.3-6.8v-.3zm-23.6 50.5l-9.1-22c1.5.3 2.8.7 4.2.8 2.7.1 4.9-1 6.7-3.1.3-.4.9-.7 1.3-.7 4 .2 5.9-.6 8.6-3.8l8.4 20.5-7.4-.8-4.4-.5c-.4 0-1 .3-1.2.7-2.2 2.6-4.3 5.3-6.4 8-.1.2-.3.5-.7.9z"
    fill="#085ea9" />
  <path
    d="M45.9 94.9c-13.9 0-25-11.3-25-25.3 0-13.7 11.3-24.9 25-24.9 13.9.1 25.3 11.4 25.2 25.2s-11.4 25-25.2 25zM33.9 69c.2-2.3.4-4.4.7-6.7-2.7-1-5.1-2.3-6.9-4.7-2.1 2.6-3.9 8.3-3.6 11.3 3.3.1 6.5.1 9.8.1zM24 70.9c.3 4.2 1.4 7.9 3.7 11.4 1.8-2.5 4.3-3.7 6.9-4.8-.2-2.3-.4-4.4-.7-6.6H24zm40.3-13.2c-1.7 2.2-3.9 3.5-6.4 4.5-.3.1-.5.6-.5 1 .1 1.6.3 3.3.4 4.9 0 .8.3 1.1 1.1 1.1h5.8c3.4 0 3.4 0 2.8-3.3-.4-3-1.4-5.7-3.2-8.2zm0 24.5c2.1-3.4 3.4-6.9 3.5-10.8 0-.2-.6-.7-.9-.7-2.7-.1-5.4 0-8 0-.7 0-1 .3-1 1-.1 1.7-.3 3.3-.4 5 0 .3.3.8.5 1 2.5 1 4.7 2.3 6.3 4.5zM53.2 54.1c-2.4.5-4.3.8-6.2 1.3-.3.1-.7.4-.7.6-.1 2.1 0 4.2 0 6.7l9.5-1.3-2.6-7.3zm2.6 24.7c-3.2-.9-6.2-1.4-9.4-1.3v6.7c2.2.5 4.4 1.1 6.8 1.7.8-2.2 1.6-4.6 2.6-7.1zm-11-23.2c-2-.5-3.8-1-5.9-1.6l-2.6 7.3 8.6 1.3c-.1-2.6-.1-4.9-.1-7zm-.1 28.7v-7l-8.5 1.3 2.7 7.3 5.8-1.6zm1.7-15.2h9.4c.2 0 .7-.5.6-.7-.1-1.6-.2-3.2-.4-4.8 0-.2-.5-.5-.7-.5-3 .4-5.9.9-8.9 1.4v4.6zm0 6.3l8.7 1.4c.7.1 1 0 1-.7.1-1.4.3-2.7.4-4.1.1-.9-.2-1.3-1.2-1.3-2.6.1-5.3 0-7.9 0-.3 0-.7.1-1 .1v4.6zM36 63c-.2 2-.4 3.9-.5 6h9.3v-4.7L36 63zm0 13.8c3-.5 5.9-.9 8.8-1.3v-4.6h-9.3c.1 2.1.3 4 .5 5.9zm21.2-16.2c2.2-.7 4.3-1.8 5.8-3.7.2-.3.2-1-.1-1.2-1.7-1.6-3.4-3.1-5.2-4.6-.2-.2-.8-.2-1 0-.8.6-1.6 1.4-2.2 2 .8 2.4 1.7 4.9 2.7 7.5zm-2.7 26.3c.7.6 1.4 1.3 2.2 1.9.2.2.8.2 1 .1 1.8-1.5 3.6-3.1 5.3-4.7.2-.2.3-.8.1-1-1.5-2.1-3.6-3.1-5.9-3.9-1 2.6-1.9 5.1-2.7 7.6zM34.9 60.6l1.6-4.9c.3-.9 1.1-1.8.9-2.5-.1-.7-1.3-1.2-1.9-1.9-.5-.6-.9-.7-1.5-.2-1.6 1.5-3.3 2.9-4.9 4.4-.6.6-.5 1.1 0 1.6 1.7 1.7 3.6 2.7 5.8 3.5zm-.1 18.7c-2.1.8-4.1 1.7-5.6 3.5-.3.3-.5 1-.3 1.2 1.6 2.1 3.6 3.9 5.9 5.2 1-.9 1.8-1.6 2.7-2.3l-2.7-7.6zm11.6 12.1c2.6-.2 4.2-1.9 5.7-3.9-1.9-.8-3.7-1.4-5.7-1.1v5zm0-42.9v5.3c1.9-.4 3.7-.8 5.7-1.3-1.5-2.2-3.1-3.7-5.7-4zm-1.6.1c-2.1.6-3.5 2-4.9 3.9l4.9 1.2v-5.1zm-4.9 38.8c1.4 1.9 2.8 3.3 4.9 3.9v-5.1c-1.7.4-3.2.7-4.9 1.2zm-3.7-37.6c.9.7 1.6 1.3 2.3 1.8 1.1-1.2 2-2.3 3-3.4 0-.1-.1-.1-.1-.2-1.6.5-3.3 1.1-5.2 1.8zm0 40.3l5.2 1.8c0-.1.1-.1.1-.2-1-1.1-2-2.2-3-3.4-.7.5-1.3 1-2.3 1.8zm17.4-1.8l-3.1 3.4c0 .1 0 .1.1.2l5.2-1.8c-1-.7-1.6-1.3-2.2-1.8zm0-36.7c.7-.5 1.3-1.1 2.2-1.8-1.9-.7-3.6-1.2-5.2-1.8v.2c.9 1.1 1.9 2.1 3 3.4z"
    fill="#fff" />
  <g fill="#085ea9">
    <path
      d="M33.9 69h-9.8c-.3-3 1.5-8.7 3.6-11.3 1.8 2.3 4.2 3.6 6.9 4.7-.4 2.2-.5 4.4-.7 6.6zM24 70.9h9.9l.7 6.6c-2.6 1-5.1 2.3-6.9 4.8-2.5-3.6-3.5-7.3-3.7-11.4zm40.3-13.2c1.7 2.5 2.7 5.2 3.3 8.1.5 3.3.5 3.3-2.9 3.3h-5.8c-.8 0-1.1-.3-1.1-1.1l-.4-4.9c0-.3.2-.9.5-1 2.6-.9 4.8-2.2 6.4-4.4zm0 24.5c-1.7-2.2-3.9-3.5-6.4-4.5-.3-.1-.5-.6-.5-1l.4-5c0-.7.3-1 1-1h8c.3 0 .9.4.9.7.1 4-1.2 7.5-3.4 10.8zM53.2 54.1l2.6 7.2-9.5 1.3v-6.7c0-.2.4-.6.7-.6l6.2-1.2zm2.6 24.7l-2.5 7.1-6.8-1.7v-6.7c3-.1 6.1.4 9.3 1.3zm-11-23.2v7l-8.6-1.3 2.6-7.3 6 1.6zm-.1 28.7l-5.9 1.6-2.8-7.3 8.6-1.3.1 7zm1.7-15.2v-4.6l8.9-1.4c.2 0 .7.3.7.5l.4 4.8c0 .2-.4.7-.6.7h-9.4zm0 6.3v-4.5c.3 0 .7-.1 1-.1h7.9c1 0 1.3.4 1.2 1.3-.2 1.3-.3 2.7-.4 4.1-.1.7-.4.8-1 .7l-8.7-1.5zM36 63l8.8 1.3V69h-9.3l.5-6zm0 13.8l-.6-5.9h9.3v4.6L36 76.8zm21.2-16.2l-2.7-7.5 2.2-2c.2-.2.8-.2 1 0l5.2 4.6c.2.2.3.9.1 1.2-1.5 1.9-3.7 2.9-5.8 3.7zm-2.7 26.3l2.7-7.5c2.3.8 4.4 1.8 5.9 3.9.1.2.1.8-.1 1L57.7 89c-.2.2-.8.1-1-.1-.9-.7-1.5-1.4-2.2-2zM34.9 60.6c-2.2-.8-4.1-1.8-5.6-3.5-.5-.6-.7-1.1 0-1.6l4.9-4.4c.6-.5 1-.4 1.5.2.6.7 1.7 1.2 1.9 1.9.1.7-.6 1.6-.9 2.5-.7 1.6-1.2 3.2-1.8 4.9zm-.1 18.7l2.7 7.6-2.7 2.3c-2.3-1.3-4.3-3.1-5.9-5.2-.2-.2.1-.9.3-1.2 1.5-1.8 3.5-2.7 5.6-3.5zm11.6 12.1v-5c2-.2 3.8.4 5.7 1.1-1.5 2-3.1 3.7-5.7 3.9z" />
    <path
      d="M46.4 48.5c2.6.3 4.2 1.9 5.7 4.1l-5.7 1.3v-5.4zm-1.6.1v5.1l-4.9-1.2c1.3-1.9 2.7-3.3 4.9-3.9zm-4.9 38.8l4.9-1.2v5.1c-2.1-.6-3.6-2-4.9-3.9zm-3.7-37.6l5.2-1.8c0 .1.1.1.1.2l-3 3.4c-.6-.6-1.3-1.1-2.3-1.8zm0 40.3l2.3-1.8 3 3.4c0 .1-.1.1-.1.2l-5.2-1.8zm17.4-1.8l2.3 1.8-5.2 1.8c0-.1 0-.1-.1-.2l3-3.4zm0-36.7l-3-3.4V48l5.2 1.8c-1 .7-1.6 1.2-2.2 1.8z" />
  </g>
  <path d="M97.5 119c0-.7.1-1.1.1-1.7l1.8.5c.1 0 .1.5 0 .5-.6.3-1.2.4-1.9.7z" fill="#fff" />
  <path
    d="M98.5 118.8c.8 0 1-.3 1-.7s-.2-.6-.9-.6h-1v1.3h.9zm-.9.8v2.2h-.9v-5.1h1.8c1 0 2 .3 2 1.4 0 .6-.4 1-1.1 1.2h0c.7.1.8.5.9 1s.1 1 .3 1.5h-1.1c-.1-.3-.1-.6-.2-.9-.1-.4-.1-.8-.3-1.1-.2-.2-.5-.2-.8-.2h-.6m4.7-.3c0-2-1.7-3.5-3.8-3.5s-3.8 1.6-3.8 3.5c0 2 1.7 3.6 3.8 3.6 2.2-.1 3.8-1.7 3.8-3.6m-8.5 0c0-2.4 2.1-4.3 4.7-4.3s4.6 1.9 4.6 4.3-2.1 4.3-4.6 4.3-4.7-2-4.7-4.3"
    fill="#151011" />
</svg>