<svg xmlns="http://www.w3.org/2000/svg" width="60.479" height="12.589" viewBox="0 0 60.479 12.589"><path d="M59.157 9.966h-.29v-.098h.684v.098h-.283v.773h-.11m.857 0l-.238-.708v.707h-.113v-.873h.158l.25.74.25-.74h.16v.87h-.113v-.706l-.24.708M45.952 2.98H40.88c-1.47 0-2.19.908-2.19 2.088v3.588c0 .73-.35 1.256-1.08 1.256h-4.768c-.03 0-.054.024-.054.054v.723c0 .027.024.053.054.053h5.32c1.473 0 2.193-.906 2.193-2.086v-3.59c0-.73.346-1.26 1.076-1.26h4.523c.03 0 .055-.022.055-.052v-.72c0-.03-.024-.055-.055-.055m-14.987.002h-9.178c-.03 0-.054.024-.054.054v.722c0 .03.024.053.054.053h8.627c.73 0 1.077.53 1.077 1.26s-.346 1.256-1.077 1.256H23.59c-1.06 0-1.855.89-1.855 2.072v2.292c0 .028.025.054.054.054h1.555c.03 0 .055-.025.055-.055V8.394c0-.73.423-1.242 1.027-1.242h6.54c1.47 0 2.193-.904 2.193-2.084 0-1.18-.723-2.09-2.194-2.09m27.03 6.103h-1.61.055c-.03 0-.055-.025-.055-.056v-5.22c0-.802-.555-1.064-1.336-.584l-9.353 5.744c-.37.226-.492.48-.402.67.078.162.277.274.684.274l8.685.003c.025.002.045.02.05.042v.732c0 .03.024.057.056.057h1.56c.03 0 .057-.025.057-.057V9.97c0-.03.025-.057.055-.057H58c.03 0 .057-.025.057-.055v-.72c-.004-.03-.03-.054-.06-.054m-3.282-.06c0 .032-.023.058-.053.058H47.38c-.06 0-.09-.014-.097-.036-.01-.033.01-.06.054-.09l7.246-4.46c.05-.03.133-.025.133.073v4.456z" fill="#FFF"/><g fill="#FFF"><path d="M6.1 0v11.747l2.66.842V2.735c0-.46.204-.77.538-.66.433.118.517.543.517 1.005v3.935c1.656.8 2.96 0 2.96-2.11 0-2.168-.763-3.13-3.013-3.902C8.877.706 7.232.21 6.102 0z"/><path d="M9.263 10.874l4.275-1.525c.484-.176.56-.42.165-.55-.394-.128-1.106-.09-1.593.082L9.263 9.887V8.29l.164-.056s.823-.292 1.98-.42c1.156-.126 2.574.017 3.687.44 1.254.395 1.394.978 1.076 1.38-.318.403-1.1.69-1.1.69L9.26 12.41v-1.536zm-8.037-.162C-.06 10.35-.276 9.595.31 9.16c.543-.403 1.464-.704 1.464-.704l3.81-1.354v1.542l-2.74.982c-.485.175-.56.42-.166.55.395.128 1.107.093 1.592-.083l1.315-.477v1.38c-.084.017-.176.032-.262.046-1.316.213-2.717.125-4.097-.33m13.582 1.234c0-.14.053-.268.152-.365.096-.1.226-.15.365-.15.137 0 .268.053.365.15.098.1.15.23.15.367 0 .287-.23.518-.516.518-.14 0-.27-.055-.365-.15-.1-.1-.153-.23-.153-.368zm.517.62c.166 0 .322-.063.44-.18s.18-.274.18-.44-.063-.32-.18-.438c-.118-.12-.274-.186-.44-.186-.345 0-.62.28-.62.623 0 .166.063.322.18.44.117.118.272.182.44.182"/><path d="M15.493 11.79c0 .04-.01.062-.03.078-.022.016-.053.023-.09.023h-.193v-.195h.204c.028 0 .05.004.067.014.03.013.044.04.044.08zm.138.447c-.006-.004-.015-.016-.02-.033 0-.012-.003-.027-.005-.053l-.003-.086c0-.043-.008-.072-.024-.092-.01-.013-.024-.024-.04-.034.02-.014.04-.03.052-.05.02-.028.026-.063.026-.106 0-.082-.034-.14-.102-.168-.035-.018-.078-.025-.13-.025h-.323v.69h.12v-.284h.187c.033 0 .06.006.075.012.024.012.037.035.04.074l.005.11.004.057.01.022.007.01h.133v-.04l-.01-.003"/></g></svg>