<svg xmlns="http://www.w3.org/2000/svg" width="36.914" height="13.926" viewBox="0 0 36.914 13.926"><g fill-rule="evenodd" clip-rule="evenodd"><path d="M34.273.134c.72.19 1.354.6 1.798 1.298 1.034 1.623 1.236 3.552-.064 5.08-1.032 1.212-2.43 1.862-3.785 2.573-2.164 1.133-4.363 2.2-6.517 3.354-.465.248-.764.34-1.21 0-.537-.41-1.146-.728-1.726-1.08-.36-.22-.28-.4.036-.574.992-.547 1.984-1.093 2.975-1.643.316-.176.655-.326.936-.55.77-.615 1.1-1.382.863-2.4-.488-2.102.34-3.728 1.994-4.965C30.785.32 32.723-.282 34.274.134zm-4.652 5.15c0 .183-.014.365.003.545.09.938.34 1.203 1.298 1.11 1.5-.146 2.76-.9 3.744-1.967.898-.973.267-2.59-1.01-2.903-1.815-.445-4.014 1.304-4.033 3.215z"/><path fill="#FFF" d="M29.62 5.285c.02-1.912 2.22-3.66 4.035-3.215 1.275.312 1.907 1.93 1.01 2.904-.985 1.067-2.246 1.82-3.744 1.967-.956.094-1.208-.17-1.297-1.11-.017-.18-.002-.363-.002-.545z"/><path d="M13.548 10.62c1.862 1.09 3.698 2.224 5.564 3.306h6.45c-1.39-.86-2.778-1.722-4.172-2.577-3.902-2.4-7.804-4.797-11.716-7.18C6.668 2.338 3.51 1.378 0 2.58v.273c1.376.785 2.754 1.566 4.128 2.354 3.143 1.8 6.296 3.582 9.42 5.412z"/></g></svg>